{
.appVersion = "1352";
classes = (
{
automatic = 1;

glyphs = (
{
glyphname = A;
layers = (
{
anchors = (
{
name = bottom;
position = "{292, 0}";
},
{
name = ogonek;
position = "{627, 0}";
},
{
name = top;
position = "{432, 700}";
},
{
name = topleft;
position = "{194, 700}";
}
);
color = -1;
layerId = UUID0;
paths = (
{
closed = 1;
nodes = (
"-19 0 LINE",
"435 684 LINE",
"426 684 LINE",
"606 0 LINE",
"627 0 LINE",
"442 700 LINE",
"422 700 LINE",
"-43 0 LINE"
);
},
{
closed = 1;
nodes = (
"561 211 LINE",
"555 230 LINE",
"120 230 LINE",
"106 211 LINE"
);
}
);
width = 688;
},
{
anchors = (
{
name = bottom;
position = "{348, 0}";
},
{
name = ogonek;
position = "{770, 0}";
},
{
name = top;
position = "{488, 700}";
},
{
name = topleft;
position = "{206, 701}";
}
);
color = -1;
guideLines = (
{
angle = 245.556;
position = "{-113, 56}";
}
);
layerId = "5DA6E103-6A94-47F2-987D-4952DB8EA68E";
paths = (
{
closed = 1;
nodes = (
"175 0 LINE",
"514 591 LINE",
"422 591 LINE",
"535 0 LINE",
"770 0 LINE",
"604 700 LINE",
"372 700 LINE",
"-74 0 LINE"
);
},
{
closed = 1;
nodes = (
"574 122 LINE",
"548 292 LINE",
"226 292 LINE",
"132 122 LINE"
);
}
);
width = 806;
},
{
anchors = (
{
name = bottom;
position = "{317, 0}";
},
{
name = ogonek;
position = "{690, 0}";
},
{
name = top;
position = "{457, 700}";
},
{
name = topleft;
position = "{200, 700}";
}
);
color = -1;
layerId = "C4221BDF-4AE8-4E40-821A-B2476087DE1A";
paths = (
{
closed = 1;
nodes = (
"67 0 LINE",
"471 639 LINE",
"425 639 LINE",
"576 0 LINE",
"690 0 LINE",
"514 700 LINE",
"401 700 LINE",
"-56 0 LINE"
);
},
{
closed = 1;
nodes = (
"568 168 LINE",
"553 260 LINE",
"167 260 LINE",
"118 168 LINE"
);
}
);
width = 740;
}
);
leftKerningGroup = A;
rightKerningGroup = A;
rightMetricsKey = "=|";
unicode = 0041;
},
{
glyphname = AE;
layers = (
{
anchors = (
{
name = bottom;
position = "{428, 0}";
},
{
name = top;
position = "{568, 700}";
}
);
color = -1;
layerId = UUID0;
paths = (
{
closed = 1;
nodes = (
"-18 0 LINE",
"553 685 LINE",
"537 681 LINE",
"559 681 LINE",
"563 700 LINE",
"540 700 LINE",
"-43 0 LINE"
);
},
{
closed = 1;
nodes = (
"465 211 LINE",
"469 230 LINE",
"157 230 LINE",
"143 211 LINE"
);
},
{
closed = 1;
nodes = (
"884 0 LINE",
"888 19 LINE",
"442 19 LINE",
"574 681 LINE",
"1005 681 LINE",
"1009 700 LINE",
"558 700 LINE",
"418 0 LINE"
);
},
{
closed = 1;
nodes = (
"893 346 LINE",
"897 365 LINE",
"506 365 LINE",
"502 346 LINE"
);
}
);
width = 1005;
},
{
anchors = (
{
name = bottom;
position = "{569, 0}";
},
{
name = top;
position = "{709, 700}";
}
);
color = -1;
layerId = "5DA6E103-6A94-47F2-987D-4952DB8EA68E";
paths = (
{
closed = 1;
nodes = (
"180 0 LINE",
"604 616 LINE",
"439 522 LINE",
"638 522 LINE",
"674 700 LINE",
"430 700 LINE",
"-74 0 LINE"
);
},
{
closed = 1;
nodes = (
"558 122 LINE",
"592 292 LINE",
"227 292 LINE",
"193 122 LINE"
);
},
{
closed = 1;
nodes = (
"1035 0 LINE",
"1071 178 LINE",
"720 178 LINE",
"789 522 LINE",
"1126 522 LINE",
"1162 700 LINE",
"593 700 LINE",
"453 0 LINE"
);
},
{
closed = 1;
nodes = (
"1035 270 LINE",
"1069 440 LINE",
"757 440 LINE",
"723 270 LINE"
);
}
);
width = 1124;
},
{
anchors = (
{
name = bottom;
position = "{490, 0}";
},
{
name = top;
position = "{630, 700}";
}
);
color = -1;
layerId = "C4221BDF-4AE8-4E40-821A-B2476087DE1A";
paths = (
{
closed = 1;
nodes = (
"71 0 LINE",
"575 652 LINE",
"494 604 LINE",
"594 604 LINE",
"611 700 LINE",
"490 700 LINE",
"-57 0 LINE"
);
},
{
closed = 1;
nodes = (
"506 168 LINE",
"523 260 LINE",
"188 260 LINE",
"165 168 LINE"
);
},
{
closed = 1;
nodes = (
"948 0 LINE",
"968 99 LINE",
"566 99 LINE",
"666 601 LINE",
"1054 601 LINE",
"1074 700 LINE",
"573 700 LINE",
"433 0 LINE"
);
},
{
closed = 1;
nodes = (
"952 307 LINE",
"972 404 LINE",
"618 404 LINE",
"597 307 LINE"
);
}
);
width = 1055;
}
);
leftKerningGroup = A;
rightKerningGroup = E;
rightMetricsKey = E;
unicode = 00C6;
},
{
glyphname = B;
layers = (
{
anchors = (
{
name = bottom;
position = "{325, 0}";
},
{
name = top;
position = "{465, 700}";
}
);
color = -1;
layerId = UUID0;
paths = (
{
closed = 1;
nodes = (
"382 0 LINE SMOOTH",
"567 0 OFFCURVE",
"672 77 OFFCURVE",
"672 214 CURVE SMOOTH",
"672 314 OFFCURVE",
"596 362 OFFCURVE",
"471 362 CURVE",
"452 351 LINE",
"589 351 OFFCURVE",
"701 421 OFFCURVE",
"701 559 CURVE SMOOTH",
"701 652 OFFCURVE",
"623 700 OFFCURVE",
"498 700 CURVE SMOOTH",
"221 700 LINE",
"81 0 LINE"
);
},
{
closed = 1;
nodes = (
"237 681 LINE",
"498 681 LINE SMOOTH",
"614 681 OFFCURVE",
"681 639 OFFCURVE",
"681 556 CURVE SMOOTH",
"681 430 OFFCURVE",
"577 365 OFFCURVE",
"435 365 CURVE SMOOTH",
"169 365 LINE",
"165 346 LINE",
"455 346 LINE SMOOTH",
"585 346 OFFCURVE",
"652 308 OFFCURVE",
"652 212 CURVE SMOOTH",
"652 88 OFFCURVE",
"557 19 OFFCURVE",
"386 19 CURVE SMOOTH",
"105 19 LINE"
);
}
);
width = 748;
},
{
anchors = (
{
name = bottom;
position = "{327, 0}";
},
{
name = top;
position = "{467, 700}";
}
);
color = -1;
layerId = "5DA6E103-6A94-47F2-987D-4952DB8EA68E";
paths = (
{
closed = 1;
nodes = (
"406 0 LINE SMOOTH",
"585 0 OFFCURVE",
"733 68 OFFCURVE",
"733 223 CURVE SMOOTH",
"733 325 OFFCURVE",
"646 385 OFFCURVE",
"503 385 CURVE",
"473 331 LINE",
"643 331 OFFCURVE",
"764 403 OFFCURVE",
"764 533 CURVE SMOOTH",
"764 639 OFFCURVE",
"679 700 OFFCURVE",
"513 700 CURVE SMOOTH",
"142 700 LINE",
"2 0 LINE"
);
},
{
closed = 1;
nodes = (
"341 535 LINE",
"456 535 LINE SMOOTH",
"495 535 OFFCURVE",
"518 521 OFFCURVE",
"518 492 CURVE SMOOTH",
"518 454 OFFCURVE",
"494 431 OFFCURVE",
"440 431 CURVE SMOOTH",
"304 431 LINE",
"273 275 LINE",
"441 275 LINE SMOOTH",
"472 275 OFFCURVE",
"499 260 OFFCURVE",
"499 229 CURVE SMOOTH",
"499 186 OFFCURVE",
"465 165 OFFCURVE",
"419 165 CURVE SMOOTH",
"267 165 LINE"
);
}
);
width = 773;
},
{
anchors = (
{
name = bottom;
position = "{324, 0}";
},
{
name = top;
position = "{464, 700}";
}
);
color = -1;
layerId = "C4221BDF-4AE8-4E40-821A-B2476087DE1A";
paths = (
{
closed = 1;
nodes = (
"390 0 LINE SMOOTH",
"573 0 OFFCURVE",
"697 73 OFFCURVE",
"697 220 CURVE SMOOTH",
"697 320 OFFCURVE",
"628 374 OFFCURVE",
"528 374 CURVE",
"504 342 LINE",
"616 342 OFFCURVE",
"727 412 OFFCURVE",
"727 544 CURVE SMOOTH",
"727 646 OFFCURVE",
"645 700 OFFCURVE",
"503 700 CURVE SMOOTH",
"187 700 LINE",
"47 0 LINE"
);
},
{
closed = 1;
nodes = (
"282 607 LINE",
"478 607 LINE SMOOTH",
"560 607 OFFCURVE",
"608 582 OFFCURVE",
"608 525 CURVE SMOOTH",
"608 442 OFFCURVE",
"539 401 OFFCURVE",
"435 401 CURVE SMOOTH",
"222 401 LINE",
"204 308 LINE",
"447 308 LINE SMOOTH",
"534 308 OFFCURVE",
"583 285 OFFCURVE",
"583 219 CURVE SMOOTH",
"583 136 OFFCURVE",
"515 93 OFFCURVE",
"398 93 CURVE SMOOTH",
"180 93 LINE"
);
}
);
width = 759;
}
);
leftKerningGroup = H;
leftMetricsKey = H;
rightKerningGroup = B;
unicode = 0042;
},
{
glyphname = C;
layers = (
{
anchors = (
{
name = bottom;
position = "{366, 0}";
},
{
name = top;
position = "{495, 700}";
}
);
color = -1;
layerId = UUID0;
paths = (
{
closed = 1;
nodes = (
"491 -3 OFFCURVE",
"586 32 OFFCURVE",
"644 86 CURVE",
"632 102 LINE",
"573 47 OFFCURVE",
"491 16 OFFCURVE",
"388 16 CURVE SMOOTH",
"192 16 OFFCURVE",
"91 123 OFFCURVE",
"91 280 CURVE SMOOTH",
"91 499 OFFCURVE",
"246 684 OFFCURVE",
"490 684 CURVE SMOOTH",
"591 684 OFFCURVE",
"665 656 OFFCURVE",
"713 602 CURVE",
"727 615 LINE",
"680 671 OFFCURVE",
"597 703 OFFCURVE",
"492 703 CURVE SMOOTH",
"229 703 OFFCURVE",
"71 504 OFFCURVE",
"71 280 CURVE SMOOTH",
"71 111 OFFCURVE",
"182 -3 OFFCURVE",
"386 -3 CURVE SMOOTH"
);
}
);
width = 711;
},
{
anchors = (
{
name = bottom;
position = "{347, 0}";
},
{
name = top;
position = "{503, 701}";
}
);
color = -1;
layerId = "5DA6E103-6A94-47F2-987D-4952DB8EA68E";
paths = (
{
closed = 1;
nodes = (
"529 -16 OFFCURVE",
"633 19 OFFCURVE",
"718 123 CURVE",
"579 256 LINE",
"531 198 OFFCURVE",
"478 175 OFFCURVE",
"423 175 CURVE SMOOTH",
"336 175 OFFCURVE",
"279 230 OFFCURVE",
"279 312 CURVE SMOOTH",
"279 437 OFFCURVE",
"357 525 OFFCURVE",
"468 525 CURVE SMOOTH",
"532 525 OFFCURVE",
"578 495 OFFCURVE",
"608 443 CURVE",
"778 576 LINE",
"727 666 OFFCURVE",
"617 716 OFFCURVE",
"483 716 CURVE SMOOTH",
"224 716 OFFCURVE",
"41 543 OFFCURVE",
"41 297 CURVE SMOOTH",
"41 111 OFFCURVE",
"183 -16 OFFCURVE",
"400 -16 CURVE SMOOTH"
);
}
);
width = 744;
},
{
anchors = (
{
name = bottom;
position = "{358, 0}";
},
{
name = top;
position = "{498, 700}";
}
);
color = -1;
layerId = "C4221BDF-4AE8-4E40-821A-B2476087DE1A";
paths = (
{
closed = 1;
nodes = (
"509 -9 OFFCURVE",
"610 26 OFFCURVE",
"676 100 CURVE",
"609 175 LINE",
"555 120 OFFCURVE",
"485 93 OFFCURVE",
"403 93 CURVE SMOOTH",
"252 93 OFFCURVE",
"173 174 OFFCURVE",
"173 295 CURVE SMOOTH",
"173 464 OFFCURVE",
"290 607 OFFCURVE",
"480 607 CURVE SMOOTH",
"565 607 OFFCURVE",
"627 578 OFFCURVE",
"667 525 CURVE",
"749 596 LINE",
"701 669 OFFCURVE",
"606 709 OFFCURVE",
"488 709 CURVE SMOOTH",
"227 709 OFFCURVE",
"58 523 OFFCURVE",
"58 288 CURVE SMOOTH",
"58 112 OFFCURVE",
"183 -9 OFFCURVE",
"395 -9 CURVE SMOOTH"
);
}
);
width = 725;
}
);
leftKerningGroup = O;
leftMetricsKey = O;
rightKerningGroup = C;
unicode = 0043;
},
{
glyphname = D;
layers = (
{
anchors = (
{
name = bottom;
position = "{344, 0}";
},
{
name = center;
position = "{219, 356}";
},
{
name = top;
position = "{479, 699}";
}
);
color = -1;
layerId = UUID0;
paths = (
{
closed = 1;
nodes = (
"357 0 LINE SMOOTH",
"624 0 OFFCURVE",
"793 177 OFFCURVE",
"793 420 CURVE SMOOTH",
"793 587 OFFCURVE",
"681 700 OFFCURVE",
"472 700 CURVE SMOOTH",
"221 700 LINE",
"81 0 LINE"
);
},
{
closed = 1;
nodes = (
"237 681 LINE",
"470 681 LINE SMOOTH",
"673 681 OFFCURVE",
"773 576 OFFCURVE",
"773 420 CURVE SMOOTH",
"773 186 OFFCURVE",
"612 19 OFFCURVE",
"359 19 CURVE SMOOTH",
"105 19 LINE"
);
}
);
width = 826;
},
{
anchors = (
{
name = bottom;
position = "{304, 0}";
},
{
name = center;
position = "{222, 355}";
},
{
name = top;
position = "{442, 700}";
}
);
color = -1;
layerId = "5DA6E103-6A94-47F2-987D-4952DB8EA68E";
paths = (
{
closed = 1;
nodes = (
"377 0 LINE SMOOTH",
"632 0 OFFCURVE",
"815 156 OFFCURVE",
"815 403 CURVE SMOOTH",
"815 587 OFFCURVE",
"679 700 OFFCURVE",
"458 700 CURVE SMOOTH",
"142 700 LINE",
"2 0 LINE"
);
},
{
closed = 1;
nodes = (
"341 516 LINE",
"431 516 LINE SMOOTH",
"526 516 OFFCURVE",
"577 470 OFFCURVE",
"577 389 CURVE SMOOTH",
"577 274 OFFCURVE",
"510 184 OFFCURVE",
"385 184 CURVE SMOOTH",
"275 184 LINE"
);
}
);
width = 826;
},
{
anchors = (
{
name = bottom;
position = "{326, 0}";
},
{
name = center;
position = "{220, 356}";
},
{
name = top;
position = "{462, 699}";
}
);
color = -1;
layerId = "C4221BDF-4AE8-4E40-821A-B2476087DE1A";
paths = (
{
closed = 1;
nodes = (
"367 0 LINE SMOOTH",
"628 0 OFFCURVE",
"802 164 OFFCURVE",
"802 412 CURVE SMOOTH",
"802 587 OFFCURVE",
"677 700 OFFCURVE",
"465 700 CURVE SMOOTH",
"187 700 LINE",
"47 0 LINE"
);
},
{
closed = 1;
nodes = (
"281 601 LINE",
"453 601 LINE SMOOTH",
"609 601 OFFCURVE",
"687 525 OFFCURVE",
"687 405 CURVE SMOOTH",
"687 229 OFFCURVE",
"567 99 OFFCURVE",
"370 99 CURVE SMOOTH",
"181 99 LINE"
);
}
);
width = 826;
}
);
leftKerningGroup = H;
leftMetricsKey = H;
rightKerningGroup = O;
unicode = 0044;
},
{
glyphname = E;
layers = (
{
anchors = (
{
name = bottom;
position = "{324, 0}";
},
{
name = ogonek;
position = "{547, 0}";
},
{
name = top;
position = "{447, 700}";
},
{
name = topleft;
position = "{129, 700}";
}
);
color = -1;
layerId = UUID0;
paths = (
{
closed = 1;
nodes = (
"165 346 LINE",
"556 346 LINE",
"560 365 LINE",
"169 365 LINE"
);
},
{
closed = 1;
nodes = (
"237 681 LINE",
"668 681 LINE",
"672 700 LINE",
"221 700 LINE",
"81 0 LINE",
"547 0 LINE",
"551 19 LINE",
"105 19 LINE"
);
}
);
width = 668;
},
{
anchors = (
{
name = bottom;
position = "{287, 0}";
},
{
name = ogonek;
position = "{584, 0}";
},
{
name = top;
position = "{427, 700}";
},
{
name = topleft;
position = "{76, 700}";
}
);
color = -1;
layerId = "5DA6E103-6A94-47F2-987D-4952DB8EA68E";
paths = (
{
closed = 1;
nodes = (
"272 270 LINE",
"584 270 LINE",
"618 440 LINE",
"306 440 LINE"
);
},
{
closed = 1;
nodes = (
"338 522 LINE",
"675 522 LINE",
"711 700 LINE",
"142 700 LINE",
"2 0 LINE",
"584 0 LINE",
"620 178 LINE",
"269 178 LINE"
);
}
);
width = 673;
},
{
anchors = (
{
name = bottom;
position = "{308, 0}";
},
{
name = ogonek;
position = "{563, 0}";
},
{
name = top;
position = "{438, 700}";
},
{
name = topleft;
position = "{106, 700}";
}
);
color = -1;
layerId = "C4221BDF-4AE8-4E40-821A-B2476087DE1A";
paths = (
{
closed = 1;
nodes = (
"214 307 LINE",
"568 307 LINE",
"587 404 LINE",
"233 404 LINE"
);
},
{
closed = 1;
nodes = (
"281 601 LINE",
"669 601 LINE",
"689 700 LINE",
"187 700 LINE",
"47 0 LINE",
"563 0 LINE",
"583 99 LINE",
"181 99 LINE"
);
}
);
width = 670;
}
);
leftKerningGroup = H;
leftMetricsKey = H;
rightKerningGroup = E;
unicode = 0045;
},
{
glyphname = F;
layers = (
{
color = -1;
layerId = UUID0;
paths = (
{
closed = 1;
nodes = (
"161 326 LINE",
"552 326 LINE",
"556 345 LINE",
"165 345 LINE"
);
},
{
closed = 1;
nodes = (
"237 681 LINE",
"668 681 LINE",
"672 700 LINE",
"221 700 LINE",
"81 0 LINE",
"101 0 LINE"
);
}
);
width = 629;
},
{
color = -1;
layerId = "5DA6E103-6A94-47F2-987D-4952DB8EA68E";
paths = (
{
closed = 1;
nodes = (
"267 224 LINE",
"574 224 LINE",
"610 402 LINE",
"302 402 LINE"
);
},
{
closed = 1;
nodes = (
"342 522 LINE",
"675 522 LINE",
"711 700 LINE",
"142 700 LINE",
"2 0 LINE",
"238 0 LINE"
);
}
);
width = 644;
},
{
color = -1;
layerId = "C4221BDF-4AE8-4E40-821A-B2476087DE1A";
paths = (
{
closed = 1;
nodes = (
"206 275 LINE",
"561 275 LINE",
"581 374 LINE",
"226 374 LINE"
);
},
{
closed = 1;
nodes = (
"281 601 LINE",
"669 601 LINE",
"689 700 LINE",
"187 700 LINE",
"47 0 LINE",
"161 0 LINE"
);
}
);
width = 636;
}
);
leftKerningGroup = H;
leftMetricsKey = H;
rightKerningGroup = F;
unicode = 0046;
},
{
glyphname = G;
layers = (
{
anchors = (
{
name = bottom;
position = "{350, 0}";
},
{
name = top;
position = "{490, 699}";
}
);
color = -1;
layerId = UUID0;
paths = (
{
closed = 1;
nodes = (
"483 -3 OFFCURVE",
"569 33 OFFCURVE",
"628 87 CURVE",
"618 102 LINE",
"556 48 OFFCURVE",
"483 16 OFFCURVE",
"388 16 CURVE SMOOTH",
"192 16 OFFCURVE",
"91 123 OFFCURVE",
"91 280 CURVE SMOOTH",
"91 499 OFFCURVE",
"246 684 OFFCURVE",
"490 684 CURVE SMOOTH",
"593 684 OFFCURVE",
"670 656 OFFCURVE",
"718 601 CURVE",
"732 614 LINE",
"685 670 OFFCURVE",
"599 703 OFFCURVE",
"492 703 CURVE SMOOTH",
"229 703 OFFCURVE",
"71 504 OFFCURVE",
"71 280 CURVE SMOOTH",
"71 111 OFFCURVE",
"182 -3 OFFCURVE",
"386 -3 CURVE SMOOTH"
);
},
{
closed = 1;
nodes = (
"628 87 LINE",
"679 343 LINE",
"660 343 LINE",
"609 87 LINE"
);
}
);
width = 774;
},
{
anchors = (
{
name = bottom;
position = "{355, 0}";
},
{
name = top;
position = "{509, 701}";
}
);
color = -1;
layerId = "5DA6E103-6A94-47F2-987D-4952DB8EA68E";
paths = (
{
closed = 1;
nodes = (
"511 -16 OFFCURVE",
"610 14 OFFCURVE",
"684 67 CURVE",
"595 235 LINE",
"539 191 OFFCURVE",
"486 175 OFFCURVE",
"433 175 CURVE SMOOTH",
"336 175 OFFCURVE",
"279 230 OFFCURVE",
"279 312 CURVE SMOOTH",
"279 437 OFFCURVE",
"357 525 OFFCURVE",
"480 525 CURVE SMOOTH",
"546 525 OFFCURVE",
"595 506 OFFCURVE",
"640 448 CURVE",
"809 579 LINE",
"743 669 OFFCURVE",
"638 716 OFFCURVE",
"491 716 CURVE SMOOTH",
"224 716 OFFCURVE",
"41 543 OFFCURVE",
"41 297 CURVE SMOOTH",
"41 111 OFFCURVE",
"183 -16 OFFCURVE",
"400 -16 CURVE SMOOTH"
);
},
{
closed = 1;
nodes = (
"684 67 LINE",
"744 369 LINE",
"539 369 LINE",
"486 103 LINE"
);
}
);
width = 769;
},
{
anchors = (
{
name = bottom;
position = "{352, 0}";
},
{
name = top;
position = "{498, 700}";
}
);
color = 3;
layerId = "C4221BDF-4AE8-4E40-821A-B2476087DE1A";
paths = (
{
closed = 1;
nodes = (
"490 -9 OFFCURVE",
"584 22 OFFCURVE",
"653 77 CURVE",
"608 170 LINE",
"549 119 OFFCURVE",
"484 93 OFFCURVE",
"408 93 CURVE SMOOTH",
"252 93 OFFCURVE",
"173 175 OFFCURVE",
"173 295 CURVE SMOOTH",
"173 469 OFFCURVE",
"295 607 OFFCURVE",
"486 607 CURVE SMOOTH",
"573 607 OFFCURVE",
"637 583 OFFCURVE",
"684 527 CURVE",
"766 597 LINE",
"710 669 OFFCURVE",
"616 709 OFFCURVE",
"491 709 CURVE SMOOTH",
"227 709 OFFCURVE",
"58 523 OFFCURVE",
"58 288 CURVE SMOOTH",
"58 111 OFFCURVE",
"187 -9 OFFCURVE",
"395 -9 CURVE SMOOTH"
);
},
{
closed = 1;
nodes = (
"653 77 LINE",
"709 356 LINE",
"599 356 LINE",
"547 95 LINE"
);
}
);
width = 772;
}
);
leftKerningGroup = O;
leftMetricsKey = O;
rightKerningGroup = G;
unicode = 0047;
},
{
glyphname = H;
layers = (
{
anchors = (
{
name = bottom;
position = "{356, 0}";
},
{
name = center;
position = "{464, 538}";
},
{
name = top;
position = "{496, 700}";
}
);
color = -1;
layerId = UUID0;
paths = (
{
closed = 1;
nodes = (
"611 0 LINE",
"631 0 LINE",
"771 700 LINE",
"751 700 LINE"
);
},
{
closed = 1;
nodes = (
"241 700 LINE",
"221 700 LINE",
"81 0 LINE",
"101 0 LINE"
);
},
{
closed = 1;
nodes = (
"689 365 LINE",
"169 365 LINE",
"165 346 LINE",
"685 346 LINE"
);
}
);
width = 816;
},
{
anchors = (
{
name = bottom;
position = "{347, 0}";
},
{
name = center;
position = "{462, 576}";
},
{
name = top;
position = "{487, 700}";
}
);
color = -1;
layerId = "5DA6E103-6A94-47F2-987D-4952DB8EA68E";
paths = (
{
closed = 1;
nodes = (
"456 0 LINE",
"692 0 LINE",
"832 700 LINE",
"596 700 LINE"
);
},
{
closed = 1;
nodes = (
"378 700 LINE",
"142 700 LINE",
"2 0 LINE",
"238 0 LINE"
);
},
{
closed = 1;
nodes = (
"562 452 LINE",
"313 452 LINE",
"274 258 LINE",
"523 258 LINE"
);
}
);
width = 804;
},
{
anchors = (
{
name = bottom;
position = "{352, 0}";
},
{
name = center;
position = "{463, 556}";
},
{
name = top;
position = "{492, 700}";
}
);
color = -1;
layerId = "C4221BDF-4AE8-4E40-821A-B2476087DE1A";
paths = (
{
closed = 1;
nodes = (
"544 0 LINE",
"658 0 LINE",
"798 700 LINE",
"684 700 LINE"
);
},
{
closed = 1;
nodes = (
"301 700 LINE",
"187 700 LINE",
"47 0 LINE",
"161 0 LINE"
);
},
{
closed = 1;
nodes = (
"635 405 LINE",
"233 405 LINE",
"214 306 LINE",
"615 306 LINE"
);
}
);
width = 811;
}
);
leftKerningGroup = H;
rightKerningGroup = H;
rightMetricsKey = "=|";
unicode = 0048;
},
{
glyphname = I;
layers = (
{
anchors = (
{
name = bottom;
position = "{91, 0}";
},
{
name = ogonek;
position = "{101, 0}";
},
{
name = top;
position = "{231, 700}";
},
{
name = topleft;
position = "{129, 699}";
}
);
color = -1;
layerId = UUID0;
paths = (
{
closed = 1;
nodes = (
"101 0 LINE",
"241 700 LINE",
"221 700 LINE",
"81 0 LINE"
);
}
);
width = 286;
},
{
anchors = (
{
name = bottom;
position = "{120, 0}";
},
{
name = ogonek;
position = "{238, 0}";
},
{
name = top;
position = "{260, 700}";
},
{
name = topleft;
position = "{76, 700}";
}
);
color = -1;
layerId = "5DA6E103-6A94-47F2-987D-4952DB8EA68E";
paths = (
{
closed = 1;
nodes = (
"238 0 LINE",
"378 700 LINE",
"142 700 LINE",
"2 0 LINE"
);
}
);
width = 350;
},
{
anchors = (
{
name = bottom;
position = "{104, 0}";
},
{
name = ogonek;
position = "{161, 0}";
},
{
name = top;
position = "{244, 700}";
},
{
name = topleft;
position = "{107, 699}";
}
);
color = -1;
layerId = "C4221BDF-4AE8-4E40-821A-B2476087DE1A";
paths = (
{
closed = 1;
nodes = (
"161 0 LINE",
"301 700 LINE",
"187 700 LINE",
"47 0 LINE"
);
}
);
width = 314;
}
);
leftKerningGroup = H;
leftMetricsKey = H;
rightKerningGroup = H;
rightMetricsKey = H;
unicode = 0049;
},
{
glyphname = IJ;
layers = (
{
anchors = (
{
name = top;
position = "{255, 700}";
}
);
color = -1;
guideLines = (
{
angle = 90;
position = "{224, 197}";
}
);
layerId = UUID0;
paths = (
{
closed = 1;
nodes = (
"456 -3 OFFCURVE",
"553 91 OFFCURVE",
"593 290 CURVE SMOOTH",
"675 700 LINE",
"655 700 LINE",
"574 294 LINE SMOOTH",
"536 103 OFFCURVE",
"445 16 OFFCURVE",
"289 16 CURVE SMOOTH",
"210 16 OFFCURVE",
"143 40 OFFCURVE",
"94 78 CURVE",
"81 61 LINE",
"130 24 OFFCURVE",
"201 -3 OFFCURVE",
"289 -3 CURVE SMOOTH"
);
},
{
closed = 1;
nodes = (
"153 290 LINE",
"235 700 LINE",
"215 700 LINE",
"133 290 LINE"
);
}
);
width = 714;
},
{
anchors = (
{
name = top;
position = "{254, 700}";
}
);
color = -1;
layerId = "5DA6E103-6A94-47F2-987D-4952DB8EA68E";
paths = (
{
closed = 1;
nodes = (
"508 -16 OFFCURVE",
"640 87 OFFCURVE",
"684 305 CURVE SMOOTH",
"763 700 LINE",
"527 700 LINE",
"450 313 LINE SMOOTH",
"430 211 OFFCURVE",
"390 172 OFFCURVE",
"307 172 CURVE SMOOTH",
"240 172 OFFCURVE",
"170 194 OFFCURVE",
"106 238 CURVE",
"-8 69 LINE",
"66 17 OFFCURVE",
"163 -16 OFFCURVE",
"297 -16 CURVE SMOOTH"
);
},
{
closed = 1;
nodes = (
"299 336 LINE",
"372 700 LINE",
"136 700 LINE",
"63 336 LINE"
);
}
);
width = 729;
},
{
anchors = (
{
name = top;
position = "{256, 700}";
}
);
color = -1;
layerId = "C4221BDF-4AE8-4E40-821A-B2476087DE1A";
paths = (
{
closed = 1;
nodes = (
"481 -9 OFFCURVE",
"592 89 OFFCURVE",
"633 297 CURVE SMOOTH",
"713 700 LINE",
"599 700 LINE",
"520 303 LINE SMOOTH",
"491 155 OFFCURVE",
"424 93 OFFCURVE",
"304 93 CURVE SMOOTH",
"227 93 OFFCURVE",
"156 115 OFFCURVE",
"99 156 CURVE",
"42 64 LINE",
"101 20 OFFCURVE",
"186 -9 OFFCURVE",
"296 -9 CURVE SMOOTH"
);
},
{
closed = 1;
nodes = (
"217 312 LINE",
"295 700 LINE",
"181 700 LINE",
"103 312 LINE"
);
}
);
width = 721;
}
);
leftKerningGroup = H;
rightKerningGroup = U;
rightMetricsKey = U;
unicode = 0132;
},
{
glyphname = J;
layers = (
{
anchors = (
{
name = top;
position = "{297, 700}";
}
);
color = -1;
layerId = UUID0;
paths = (
{
closed = 1;
nodes = (
"243 -3 OFFCURVE",
"308 49 OFFCURVE",
"336 190 CURVE SMOOTH",
"438 700 LINE",
"156 700 LINE",
"152 681 LINE",
"414 681 LINE",
"317 196 LINE SMOOTH",
"290 63 OFFCURVE",
"233 16 OFFCURVE",
"140 16 CURVE SMOOTH",
"67 16 OFFCURVE",
"13 51 OFFCURVE",
"-12 106 CURVE",
"-30 96 LINE",
"-5 37 OFFCURVE",
"58 -3 OFFCURVE",
"137 -3 CURVE SMOOTH"
);
}
);
width = 477;
},
{
anchors = (
{
name = top;
position = "{373, 700}";
}
);
color = -1;
layerId = "5DA6E103-6A94-47F2-987D-4952DB8EA68E";
paths = (
{
closed = 1;
nodes = (
"374 -16 OFFCURVE",
"480 58 OFFCURVE",
"520 260 CURVE SMOOTH",
"608 700 LINE",
"137 700 LINE",
"101 522 LINE",
"339 522 LINE",
"284 246 LINE SMOOTH",
"274 197 OFFCURVE",
"245 169 OFFCURVE",
"200 169 CURVE SMOOTH",
"158 169 OFFCURVE",
"124 191 OFFCURVE",
"93 235 CURVE",
"-58 92 LINE",
"-6 20 OFFCURVE",
"78 -16 OFFCURVE",
"196 -16 CURVE SMOOTH"
);
}
);
width = 574;
},
{
anchors = (
{
name = top;
position = "{331, 700}";
}
);
color = -1;
layerId = "C4221BDF-4AE8-4E40-821A-B2476087DE1A";
paths = (
{
closed = 1;
nodes = (
"302 -9 OFFCURVE",
"384 52 OFFCURVE",
"418 224 CURVE SMOOTH",
"513 700 LINE",
"150 700 LINE",
"130 601 LINE",
"381 601 LINE",
"305 219 LINE SMOOTH",
"287 127 OFFCURVE",
"241 90 OFFCURVE",
"169 90 CURVE SMOOTH",
"108 90 OFFCURVE",
"62 119 OFFCURVE",
"35 169 CURVE",
"-43 94 LINE",
"-6 29 OFFCURVE",
"68 -9 OFFCURVE",
"167 -9 CURVE SMOOTH"
);
}
);
width = 520;
}
);
leftKerningGroup = J;
rightKerningGroup = U;
rightMetricsKey = U;
unicode = 004A;
},
{
glyphname = K;
layers = (
{
anchors = (
{
name = bottom;
position = "{318, 0}";
},
{
name = top;
position = "{458, 700}";
}
);
color = -1;
layerId = UUID0;
paths = (
{
closed = 1;
nodes = (
"353 369 LINE",
"361 376 LINE",
"742 700 LINE",
"712 700 LINE",
"140 213 LINE",
"133 182 LINE"
);
},
{
closed = 1;
nodes = (
"101 0 LINE",
"241 700 LINE",
"221 700 LINE",
"81 0 LINE"
);
},
{
closed = 1;
nodes = (
"625 0 LINE",
"357 387 LINE",
"340 377 LINE",
"601 0 LINE"
);
}
);
width = 693;
},
{
anchors = (
{
name = bottom;
position = "{329, 0}";
},
{
name = top;
position = "{469, 700}";
}
);
color = -1;
guideLines = (
{
angle = 48.4917;
position = "{961, 544}";
}
);
layerId = "5DA6E103-6A94-47F2-987D-4952DB8EA68E";
paths = (
{
closed = 1;
nodes = (
"342 236 LINE",
"502 374 LINE",
"861 700 LINE",
"590 700 LINE",
"278 409 LINE",
"243 144 LINE"
);
},
{
closed = 1;
nodes = (
"234 0 LINE",
"374 700 LINE",
"142 700 LINE",
"2 0 LINE"
);
},
{
closed = 1;
nodes = (
"738 0 LINE",
"481 430 LINE",
"306 272 LINE",
"475 0 LINE"
);
}
);
width = 765;
},
{
anchors = (
{
name = bottom;
position = "{323, 0}";
},
{
name = top;
position = "{463, 700}";
}
);
color = -1;
layerId = "C4221BDF-4AE8-4E40-821A-B2476087DE1A";
paths = (
{
closed = 1;
nodes = (
"354 316 LINE",
"426 375 LINE",
"802 700 LINE",
"654 700 LINE",
"200 308 LINE",
"186 171 LINE"
);
},
{
closed = 1;
nodes = (
"161 0 LINE",
"301 700 LINE",
"187 700 LINE",
"47 0 LINE"
);
},
{
closed = 1;
nodes = (
"675 0 LINE",
"402 404 LINE",
"326 326 LINE",
"547 0 LINE"
);
}
);
width = 724;
}
);
leftKerningGroup = H;
leftMetricsKey = H;
rightKerningGroup = K;
unicode = 004B;
},
{
glyphname = L;
layers = (
{
anchors = (
{
name = bottom;
position = "{310, 0}";
},
{
name = center;
position = "{163, 360}";
},
{
name = dot;
position = "{453, 360}";
},
{
name = top;
position = "{231, 700}";
},
{
name = topright;
position = "{534, 700}";
}
);
color = -1;
guideLines = (
{
angle = 90;
position = "{360, 31}";
}
);
layerId = UUID0;
paths = (
{
closed = 1;
nodes = (
"518 0 LINE",
"522 19 LINE",
"105 19 LINE",
"241 700 LINE",
"221 700 LINE",
"81 0 LINE"
);
}
);
width = 580;
},
{
anchors = (
{
name = bottom;
position = "{290, 0}";
},
{
name = center;
position = "{200, 400}";
},
{
name = dot;
position = "{517, 441}";
},
{
name = top;
position = "{260, 700}";
},
{
name = topright;
position = "{508, 700}";
}
);
color = -1;
guideLines = (
{
angle = 90;
position = "{426, 193}";
}
);
layerId = "5DA6E103-6A94-47F2-987D-4952DB8EA68E";
paths = (
{
closed = 1;
nodes = (
"554 0 LINE",
"591 183 LINE",
"275 183 LINE",
"378 700 LINE",
"142 700 LINE",
"2 0 LINE"
);
}
);
width = 617;
},
{
anchors = (
{
name = bottom;
position = "{302, 0}";
},
{
name = center;
position = "{180, 379}";
},
{
name = dot;
position = "{482, 399}";
},
{
name = top;
position = "{245, 700}";
},
{
name = topright;
position = "{524, 700}";
}
);
color = -1;
layerId = "C4221BDF-4AE8-4E40-821A-B2476087DE1A";
paths = (
{
closed = 1;
nodes = (
"534 0 LINE",
"554 99 LINE",
"181 99 LINE",
"301 700 LINE",
"187 700 LINE",
"47 0 LINE"
);
}
);
width = 596;
}
);
leftKerningGroup = H;
leftMetricsKey = H;
rightKerningGroup = L;
unicode = 004C;
},
{
glyphname = Lslash;
layers = (
{
color = -1;
components = (
{
name = L;
},
{
name = slashshortcomb.case;
transform = "{1, 0, 0, 1, -13, -17}";
}
);
layerId = UUID0;
width = 580;
},
{
color = -1;
components = (
{
name = L;
transform = "{1, 0, 0, 1, 20, 0}";
},
{
name = slashshortcomb.case;
transform = "{1, 0, 0, 1, -106, -1}";
}
);
layerId = "5DA6E103-6A94-47F2-987D-4952DB8EA68E";
leftMetricsKey = "=+20";
width = 637;
},
{
associatedMasterId = "5DA6E103-6A94-47F2-987D-4952DB8EA68E";
components = (
{
name = L;
transform = "{1, 0, 0, 1, 22, 0}";
}
);
layerId = "3BC2F7E6-F9BB-4738-9062-63173B658B64";
name = "Bold Aug 12 16, 13:13";
paths = (
{
closed = 1;
nodes = (
"-30 412 LINE",
"8 278 LINE",
"472 412 LINE",
"434 547 LINE"
);
}
);
width = 606;
},
{
associatedMasterId = UUID0;
components = (
{
name = L;
transform = "{1, 0, 0, 1, 17, 0}";
}
);
layerId = "F8838ADD-41F4-4367-88F4-BAD3059E85B1";
name = "Regular Aug 12 16, 13:13";
paths = (
{
closed = 1;
nodes = (
"5.538 420.615 LINE",
"25.769 348.538 LINE",
"405.769 457.769 LINE",
"385.538 530.846 LINE"
);
}
);
width = 551;
},
{
associatedMasterId = UUID0;
components = (
{
name = L;
transform = "{1, 0, 0, 1, 12, 0}";
}
);
layerId = "67F4E7B2-099A-41A3-92F2-F0F567FD6002";
name = "Thin Aug 12 16, 13:14";
paths = (
{
closed = 1;
nodes = (
"36 428 LINE",
"41 409 LINE",
"349 497 LINE",
"344 517 LINE"
);
}
);
width = 503;
},
{
color = -1;
components = (
{
name = L;
transform = "{1, 0, 0, 1, 9, 0}";
},
{
name = slashshortcomb.case;
transform = "{1, 0, 0, 1, -52, -9}";
}
);
layerId = "C4221BDF-4AE8-4E40-821A-B2476087DE1A";
leftMetricsKey = "=+9po";
width = 605;
}
);
leftKerningGroup = H;
rightKerningGroup = L;
rightMetricsKey = L;
unicode = 0141;
},
{
glyphname = M;
layers = (
{
anchors = (
{
name = bottom;
position = "{426, 0}";
},
{
name = top;
position = "{566, 700}";
}
);
color = -1;
layerId = UUID0;
paths = (
{
closed = 1;
nodes = (
"101 0 LINE",
"235 671 LINE",
"227 672 LINE",
"446 99 LINE",
"458 99 LINE",
"894 669 LINE",
"885 671 LINE",
"751 0 LINE",
"771 0 LINE",
"911 700 LINE",
"892 700 LINE",
"451 121 LINE",
"460 118 LINE",
"238 700 LINE",
"221 700 LINE",
"81 0 LINE"
);
}
);
width = 956;
},
{
anchors = (
{
name = bottom;
position = "{421, 0}";
},
{
name = top;
position = "{561, 700}";
}
);
color = -1;
layerId = "5DA6E103-6A94-47F2-987D-4952DB8EA68E";
paths = (
{
closed = 1;
nodes = (
"217 0 LINE",
"292 376 LINE",
"252 379 LINE",
"388 63 LINE",
"492 63 LINE",
"734 378 LINE",
"700 376 LINE",
"627 0 LINE",
"842 0 LINE",
"980 700 LINE",
"779 700 LINE",
"419 243 LINE",
"521 243 LINE",
"334 700 LINE",
"142 700 LINE",
"2 0 LINE"
);
}
);
width = 954;
},
{
anchors = (
{
name = bottom;
position = "{425, 0}";
},
{
name = top;
position = "{565, 700}";
}
);
color = -1;
layerId = "C4221BDF-4AE8-4E40-821A-B2476087DE1A";
paths = (
{
closed = 1;
nodes = (
"157 0 LINE",
"262 526 LINE",
"239 530 LINE",
"422 82 LINE",
"474 82 LINE",
"826 528 LINE",
"798 530 LINE",
"692 0 LINE",
"802 0 LINE",
"942 700 LINE",
"843 700 LINE",
"438 180 LINE",
"487 179 LINE",
"280 700 LINE",
"187 700 LINE",
"47 0 LINE"
);
}
);
width = 955;
}
);
leftKerningGroup = H;
leftMetricsKey = H;
rightKerningGroup = H;
rightMetricsKey = H;
unicode = 004D;
},
{
glyphname = N;
layers = (
{
anchors = (
{
name = bottom;
position = "{356, 0}";
},
{
name = top;
position = "{496, 700}";
}
);
color = -1;
layerId = UUID0;
paths = (
{
closed = 1;
nodes = (
"101 0 LINE",
"236 675 LINE",
"228 678 LINE",
"614 0 LINE",
"631 0 LINE",
"771 700 LINE",
"751 700 LINE",
"616 25 LINE",
"624 22 LINE",
"238 700 LINE",
"221 700 LINE",
"81 0 LINE"
);
}
);
width = 816;
},
{
anchors = (
{
name = bottom;
position = "{347, 0}";
},
{
name = top;
position = "{487, 700}";
}
);
color = -1;
layerId = "5DA6E103-6A94-47F2-987D-4952DB8EA68E";
paths = (
{
closed = 1;
nodes = (
"232 0 LINE",
"317 426 LINE",
"235 426 LINE",
"498 0 LINE",
"692 0 LINE",
"832 700 LINE",
"602 700 LINE",
"517 274 LINE",
"599 274 LINE",
"336 700 LINE",
"142 700 LINE",
"2 0 LINE"
);
}
);
width = 804;
},
{
anchors = (
{
name = bottom;
position = "{353, 0}";
},
{
name = top;
position = "{493, 700}";
}
);
color = -1;
layerId = "C4221BDF-4AE8-4E40-821A-B2476087DE1A";
paths = (
{
closed = 1;
nodes = (
"161 0 LINE",
"272 555 LINE",
"237 560 LINE",
"564 0 LINE",
"658 0 LINE",
"798 700 LINE",
"684 700 LINE",
"573 145 LINE",
"608 140 LINE",
"281 700 LINE",
"187 700 LINE",
"47 0 LINE"
);
}
);
width = 811;
}
);
leftKerningGroup = H;
leftMetricsKey = H;
rightKerningGroup = H;
rightMetricsKey = H;
unicode = 004E;
},
{
glyphname = Eng;
layers = (
{
color = -1;
layerId = UUID0;
paths = (
{
closed = 1;
nodes = (
"101 0 LINE",
"236 677 LINE",
"228 678 LINE",
"614 1 LINE",
"624 23 LINE",
"238 700 LINE",
"221 700 LINE",
"81 0 LINE"
);
},
{
closed = 1;
nodes = (
"537 -197 OFFCURVE",
"602 -145 OFFCURVE",
"630 -4 CURVE SMOOTH",
"771 700 LINE",
"751 700 LINE",
"611 2 LINE SMOOTH",
"584 -131 OFFCURVE",
"527 -178 OFFCURVE",
"434 -178 CURVE SMOOTH",
"361 -178 OFFCURVE",
"307 -143 OFFCURVE",
"282 -88 CURVE",
"264 -98 LINE",
"289 -157 OFFCURVE",
"352 -197 OFFCURVE",
"431 -197 CURVE SMOOTH"
);
}
);
width = 816;
},
{
color = -1;
layerId = "5DA6E103-6A94-47F2-987D-4952DB8EA68E";
paths = (
{
closed = 1;
nodes = (
"232 0 LINE",
"317 426 LINE",
"235 426 LINE",
"498 0 LINE",
"599 274 LINE",
"336 700 LINE",
"142 700 LINE",
"2 0 LINE"
);
},
{
closed = 1;
nodes = (
"553 -204 OFFCURVE",
"664 -142 OFFCURVE",
"712 100 CURVE SMOOTH",
"832 700 LINE",
"602 700 LINE",
"475 67 LINE SMOOTH",
"462 0 OFFCURVE",
"435 -20 OFFCURVE",
"390 -20 CURVE SMOOTH",
"362 -20 OFFCURVE",
"336 -11 OFFCURVE",
"313 5 CURVE",
"192 -148 LINE",
"242 -184 OFFCURVE",
"319 -204 OFFCURVE",
"385 -204 CURVE SMOOTH"
);
}
);
width = 804;
},
{
color = -1;
layerId = "C4221BDF-4AE8-4E40-821A-B2476087DE1A";
paths = (
{
closed = 1;
nodes = (
"161 0 LINE",
"272 555 LINE",
"237 560 LINE",
"564 0 LINE",
"608 140 LINE",
"281 700 LINE",
"187 700 LINE",
"47 0 LINE"
);
},
{
closed = 1;
nodes = (
"547 -200 OFFCURVE",
"629 -144 OFFCURVE",
"667 46 CURVE SMOOTH",
"798 700 LINE",
"684 700 LINE",
"549 24 LINE SMOOTH",
"531 -67 OFFCURVE",
"489 -102 OFFCURVE",
"417 -102 CURVE SMOOTH",
"365 -102 OFFCURVE",
"322 -79 OFFCURVE",
"296 -43 CURVE",
"232 -122 LINE",
"267 -170 OFFCURVE",
"339 -200 OFFCURVE",
"414 -200 CURVE SMOOTH"
);
}
);
width = 811;
}
);
leftKerningGroup = H;
leftMetricsKey = H;
rightKerningGroup = H;
rightMetricsKey = H;
unicode = 014A;
},
{
glyphname = O;
layers = (
{
anchors = (
{
name = bottom;
position = "{366, 0}";
},
{
name = center;
position = "{435, 350}";
},
{
name = ogonek;
position = "{417, 0}";
},
{
name = top;
position = "{506, 700}";
},
{
name = topleft;
position = "{147, 700}";
},
{
name = topright;
position = "{755, 700}";
}
);
color = -1;
guideLines = (
{
angle = 90;
position = "{1572, 734}";
}
);
layerId = UUID0;
paths = (
{
closed = 1;
nodes = (
"644 -3 OFFCURVE",
"802 196 OFFCURVE",
"802 420 CURVE SMOOTH",
"802 589 OFFCURVE",
"691 703 OFFCURVE",
"487 703 CURVE SMOOTH",
"229 703 OFFCURVE",
"71 504 OFFCURVE",
"71 280 CURVE SMOOTH",
"71 111 OFFCURVE",
"182 -3 OFFCURVE",
"386 -3 CURVE SMOOTH"
);
},
{
closed = 1;
nodes = (
"192 16 OFFCURVE",
"91 123 OFFCURVE",
"91 280 CURVE SMOOTH",
"91 499 OFFCURVE",
"246 684 OFFCURVE",
"485 684 CURVE SMOOTH",
"681 684 OFFCURVE",
"782 577 OFFCURVE",
"782 420 CURVE SMOOTH",
"782 201 OFFCURVE",
"627 16 OFFCURVE",
"388 16 CURVE SMOOTH"
);
}
);
width = 836;
},
{
anchors = (
{
name = bottom;
position = "{369, 0}";
},
{
name = center;
position = "{439, 350}";
},
{
name = ogonek;
position = "{492, 0}";
},
{
name = top;
position = "{509, 700}";
},
{
name = topleft;
position = "{119, 700}";
},
{
name = topright;
position = "{675, 700}";
}
);
color = -1;
guideLines = (
{
angle = 90;
position = "{1323, 664}";
}
);
layerId = "5DA6E103-6A94-47F2-987D-4952DB8EA68E";
paths = (
{
closed = 1;
nodes = (
"653 -16 OFFCURVE",
"837 156 OFFCURVE",
"837 403 CURVE SMOOTH",
"837 587 OFFCURVE",
"700 716 OFFCURVE",
"482 716 CURVE SMOOTH",
"225 716 OFFCURVE",
"41 544 OFFCURVE",
"41 297 CURVE SMOOTH",
"41 113 OFFCURVE",
"178 -16 OFFCURVE",
"396 -16 CURVE SMOOTH"
);
},
{
closed = 1;
nodes = (
"330 175 OFFCURVE",
"279 230 OFFCURVE",
"279 311 CURVE SMOOTH",
"279 426 OFFCURVE",
"346 525 OFFCURVE",
"462 525 CURVE SMOOTH",
"548 525 OFFCURVE",
"599 470 OFFCURVE",
"599 389 CURVE SMOOTH",
"599 274 OFFCURVE",
"532 175 OFFCURVE",
"416 175 CURVE SMOOTH"
);
}
);
width = 848;
},
{
anchors = (
{
name = bottom;
position = "{367, 0}";
},
{
name = center;
position = "{437, 350}";
},
{
name = ogonek;
position = "{450, 0}";
},
{
name = top;
position = "{507, 700}";
},
{
name = topleft;
position = "{135, 700}";
},
{
name = topright;
position = "{720, 700}";
}
);
color = -1;
layerId = "C4221BDF-4AE8-4E40-821A-B2476087DE1A";
paths = (
{
closed = 1;
nodes = (
"648 -9 OFFCURVE",
"817 177 OFFCURVE",
"817 412 CURVE SMOOTH",
"817 588 OFFCURVE",
"695 709 OFFCURVE",
"485 709 CURVE SMOOTH",
"227 709 OFFCURVE",
"58 523 OFFCURVE",
"58 288 CURVE SMOOTH",
"58 112 OFFCURVE",
"180 -9 OFFCURVE",
"390 -9 CURVE SMOOTH"
);
},
{
closed = 1;
nodes = (
"252 93 OFFCURVE",
"173 175 OFFCURVE",
"173 295 CURVE SMOOTH",
"173 464 OFFCURVE",
"290 607 OFFCURVE",
"475 607 CURVE SMOOTH",
"623 607 OFFCURVE",
"702 525 OFFCURVE",
"702 405 CURVE SMOOTH",
"702 236 OFFCURVE",
"585 93 OFFCURVE",
"400 93 CURVE SMOOTH"
);
}
);
width = 841;
}
);
leftKerningGroup = O;
rightKerningGroup = O;
unicode = 004F;
},
{
glyphname = Ohorn;
layers = (
{
anchors = (
{
name = bottom;
position = "{366, 0}";
},
{
name = top;
position = "{506, 700}";
}
);
color = -1;
layerId = UUID0;
paths = (
{
closed = 1;
nodes = (
"644 -3 OFFCURVE",
"802 196 OFFCURVE",
"802 420 CURVE SMOOTH",
"802 540 OFFCURVE",
"746 632 OFFCURVE",
"640 675 CURVE",
"637 674 LINE",
"661 671 OFFCURVE",
"685 669 OFFCURVE",
"721 669 CURVE SMOOTH",
"807 669 OFFCURVE",
"855 706 OFFCURVE",
"855 771 CURVE SMOOTH",
"855 797 OFFCURVE",
"846 825 OFFCURVE",
"833 845 CURVE",
"815 837 LINE",
"826 818 OFFCURVE",
"835 796 OFFCURVE",
"835 770 CURVE SMOOTH",
"835 719 OFFCURVE",
"795 688 OFFCURVE",
"722 688 CURVE SMOOTH",
"646 688 OFFCURVE",
"592 703 OFFCURVE",
"487 703 CURVE SMOOTH",
"229 703 OFFCURVE",
"71 504 OFFCURVE",
"71 280 CURVE SMOOTH",
"71 111 OFFCURVE",
"182 -3 OFFCURVE",
"386 -3 CURVE SMOOTH"
);
},
{
closed = 1;
nodes = (
"192 16 OFFCURVE",
"91 123 OFFCURVE",
"91 280 CURVE SMOOTH",
"91 499 OFFCURVE",
"246 684 OFFCURVE",
"485 684 CURVE SMOOTH",
"681 684 OFFCURVE",
"782 577 OFFCURVE",
"782 420 CURVE SMOOTH",
"782 201 OFFCURVE",
"627 16 OFFCURVE",
"388 16 CURVE SMOOTH"
);
}
);
width = 836;
},
{
anchors = (
{
name = bottom;
position = "{369, 0}";
},
{
name = top;
position = "{509, 700}";
}
);
color = -1;
layerId = "5DA6E103-6A94-47F2-987D-4952DB8EA68E";
paths = (
{
closed = 1;
nodes = (
"653 -16 OFFCURVE",
"837 156 OFFCURVE",
"837 403 CURVE SMOOTH",
"837 488 OFFCURVE",
"808 562 OFFCURVE",
"755 615 CURVE",
"633 564 LINE",
"664 560 OFFCURVE",
"684 557 OFFCURVE",
"705 557 CURVE SMOOTH",
"827 557 OFFCURVE",
"915 626 OFFCURVE",
"915 749 CURVE SMOOTH",
"915 797 OFFCURVE",
"901 834 OFFCURVE",
"878 863 CURVE",
"750 818 LINE",
"762 804 OFFCURVE",
"770 783 OFFCURVE",
"770 761 CURVE SMOOTH",
"770 724 OFFCURVE",
"743 695 OFFCURVE",
"695 695 CURVE SMOOTH",
"642 695 OFFCURVE",
"592 716 OFFCURVE",
"482 716 CURVE SMOOTH",
"225 716 OFFCURVE",
"41 544 OFFCURVE",
"41 297 CURVE SMOOTH",
"41 113 OFFCURVE",
"178 -16 OFFCURVE",
"396 -16 CURVE SMOOTH"
);
},
{
closed = 1;
nodes = (
"330 175 OFFCURVE",
"279 230 OFFCURVE",
"279 311 CURVE SMOOTH",
"279 426 OFFCURVE",
"346 525 OFFCURVE",
"462 525 CURVE SMOOTH",
"548 525 OFFCURVE",
"599 470 OFFCURVE",
"599 389 CURVE SMOOTH",
"599 274 OFFCURVE",
"532 175 OFFCURVE",
"416 175 CURVE SMOOTH"
);
}
);
width = 848;
},
{
anchors = (
{
name = bottom;
position = "{367, 0}";
},
{
name = top;
position = "{507, 700}";
}
);
color = -1;
layerId = "C4221BDF-4AE8-4E40-821A-B2476087DE1A";
paths = (
{
closed = 1;
nodes = (
"648 -9 OFFCURVE",
"817 177 OFFCURVE",
"817 412 CURVE SMOOTH",
"817 504 OFFCURVE",
"783 580 OFFCURVE",
"722 633 CURVE",
"682 620 LINE",
"698 618 OFFCURVE",
"716 616 OFFCURVE",
"732 616 CURVE SMOOTH",
"820 616 OFFCURVE",
"880 672 OFFCURVE",
"880 761 CURVE SMOOTH",
"880 797 OFFCURVE",
"868 829 OFFCURVE",
"851 853 CURVE",
"782 827 LINE",
"794 811 OFFCURVE",
"802 789 OFFCURVE",
"802 765 CURVE SMOOTH",
"802 720 OFFCURVE",
"768 692 OFFCURVE",
"707 692 CURVE SMOOTH",
"628 692 OFFCURVE",
"576 709 OFFCURVE",
"485 709 CURVE SMOOTH",
"227 709 OFFCURVE",
"58 523 OFFCURVE",
"58 288 CURVE SMOOTH",
"58 112 OFFCURVE",
"180 -9 OFFCURVE",
"390 -9 CURVE SMOOTH"
);
},
{
closed = 1;
nodes = (
"252 93 OFFCURVE",
"173 175 OFFCURVE",
"173 295 CURVE SMOOTH",
"173 464 OFFCURVE",
"290 607 OFFCURVE",
"475 607 CURVE SMOOTH",
"623 607 OFFCURVE",
"702 525 OFFCURVE",
"702 405 CURVE SMOOTH",
"702 236 OFFCURVE",
"585 93 OFFCURVE",
"400 93 CURVE SMOOTH"
);
}
);
width = 841;
}
);
leftKerningGroup = O;
leftMetricsKey = O;
widthMetricsKey = O;
rightKerningGroup = O;
unicode = 01A0;
},
{
glyphname = Oogonek;
layers = (
{
anchors = (
{
name = top;
position = "{506, 700}";
}
);
color = -1;
layerId = UUID0;
paths = (
{
closed = 1;
nodes = (
"347 -213 OFFCURVE",
"375 -204 OFFCURVE",
"398 -186 CURVE",
"390 -169 LINE",
"370 -185 OFFCURVE",
"344 -194 OFFCURVE",
"319 -194 CURVE SMOOTH",
"283 -194 OFFCURVE",
"262 -176 OFFCURVE",
"262 -142 CURVE SMOOTH",
"262 -88 OFFCURVE",
"322 -22 OFFCURVE",
"468 4 CURVE SMOOTH",
"676 41 OFFCURVE",
"802 219 OFFCURVE",
"802 420 CURVE SMOOTH",
"802 589 OFFCURVE",
"691 703 OFFCURVE",
"487 703 CURVE SMOOTH",
"229 703 OFFCURVE",
"71 504 OFFCURVE",
"71 280 CURVE SMOOTH",
"71 111 OFFCURVE",
"182 -3 OFFCURVE",
"386 -3 CURVE",
"383 0 LINE",
"284 -36 OFFCURVE",
"242 -89 OFFCURVE",
"242 -144 CURVE SMOOTH",
"242 -187 OFFCURVE",
"272 -213 OFFCURVE",
"317 -213 CURVE SMOOTH"
);
},
{
closed = 1;
nodes = (
"192 16 OFFCURVE",
"91 123 OFFCURVE",
"91 280 CURVE SMOOTH",
"91 499 OFFCURVE",
"246 684 OFFCURVE",
"485 684 CURVE SMOOTH",
"681 684 OFFCURVE",
"782 577 OFFCURVE",
"782 420 CURVE SMOOTH",
"782 201 OFFCURVE",
"627 16 OFFCURVE",
"388 16 CURVE SMOOTH"
);
}
);
width = 836;
},
{
anchors = (
{
name = top;
position = "{509, 700}";
}
);
color = -1;
layerId = "5DA6E103-6A94-47F2-987D-4952DB8EA68E";
paths = (
{
closed = 1;
nodes = (
"409 -240 OFFCURVE",
"447 -230 OFFCURVE",
"474 -217 CURVE",
"465 -124 LINE",
"449 -131 OFFCURVE",
"427 -138 OFFCURVE",
"405 -138 CURVE SMOOTH",
"377 -138 OFFCURVE",
"359 -122 OFFCURVE",
"359 -97 CURVE SMOOTH",
"359 -67 OFFCURVE",
"383 -27 OFFCURVE",
"486 -9 CURVE SMOOTH",
"695 28 OFFCURVE",
"837 186 OFFCURVE",
"837 403 CURVE SMOOTH",
"837 587 OFFCURVE",
"700 716 OFFCURVE",
"482 716 CURVE SMOOTH",
"225 716 OFFCURVE",
"41 544 OFFCURVE",
"41 297 CURVE SMOOTH",
"41 113 OFFCURVE",
"178 -16 OFFCURVE",
"396 -16 CURVE",
"368 29 LINE",
"284 -4 OFFCURVE",
"220 -59 OFFCURVE",
"220 -132 CURVE SMOOTH",
"220 -200 OFFCURVE",
"278 -240 OFFCURVE",
"366 -240 CURVE SMOOTH"
);
},
{
closed = 1;
nodes = (
"330 175 OFFCURVE",
"279 230 OFFCURVE",
"279 311 CURVE SMOOTH",
"279 426 OFFCURVE",
"346 525 OFFCURVE",
"462 525 CURVE SMOOTH",
"548 525 OFFCURVE",
"599 470 OFFCURVE",
"599 389 CURVE SMOOTH",
"599 274 OFFCURVE",
"532 175 OFFCURVE",
"416 175 CURVE SMOOTH"
);
}
);
width = 848;
},
{
anchors = (
{
name = top;
position = "{507, 700}";
}
);
color = -1;
layerId = "C4221BDF-4AE8-4E40-821A-B2476087DE1A";
paths = (
{
closed = 1;
nodes = (
"379 -226 OFFCURVE",
"410 -217 OFFCURVE",
"437 -203 CURVE",
"424 -147 LINE",
"405 -157 OFFCURVE",
"381 -163 OFFCURVE",
"358 -163 CURVE SMOOTH",
"328 -163 OFFCURVE",
"308 -148 OFFCURVE",
"308 -120 CURVE SMOOTH",
"308 -77 OFFCURVE",
"354 -29 OFFCURVE",
"495 2 CURVE SMOOTH",
"689 44 OFFCURVE",
"817 207 OFFCURVE",
"817 412 CURVE SMOOTH",
"817 588 OFFCURVE",
"695 709 OFFCURVE",
"485 709 CURVE SMOOTH",
"227 709 OFFCURVE",
"58 523 OFFCURVE",
"58 288 CURVE SMOOTH",
"58 112 OFFCURVE",
"180 -9 OFFCURVE",
"390 -9 CURVE",
"375 25 LINE",
"271 -13 OFFCURVE",
"229 -71 OFFCURVE",
"229 -134 CURVE SMOOTH",
"229 -193 OFFCURVE",
"276 -226 OFFCURVE",
"341 -226 CURVE SMOOTH"
);
},
{
closed = 1;
nodes = (
"252 93 OFFCURVE",
"173 175 OFFCURVE",
"173 295 CURVE SMOOTH",
"173 464 OFFCURVE",
"290 607 OFFCURVE",
"475 607 CURVE SMOOTH",
"623 607 OFFCURVE",
"702 525 OFFCURVE",
"702 405 CURVE SMOOTH",
"702 236 OFFCURVE",
"585 93 OFFCURVE",
"400 93 CURVE SMOOTH"
);
}
);
width = 841;
}
);
leftKerningGroup = O;
rightKerningGroup = O;
unicode = 01EA;
},
{
glyphname = OE;
layers = (
{
anchors = (
{
name = bottom;
position = "{535, 0}";
},
{
name = top;
position = "{675, 700}";
}
);
color = -1;
layerId = UUID0;
paths = (
{
closed = 1;
nodes = (
"531 0 LINE",
"535 19 LINE",
"394 19 LINE SMOOTH",
"191 19 OFFCURVE",
"91 124 OFFCURVE",
"91 280 CURVE SMOOTH",
"91 513 OFFCURVE",
"252 681 OFFCURVE",
"505 681 CURVE SMOOTH",
"667 681 LINE",
"671 700 LINE",
"507 700 LINE SMOOTH",
"240 700 OFFCURVE",
"71 523 OFFCURVE",
"71 280 CURVE SMOOTH",
"71 113 OFFCURVE",
"183 0 OFFCURVE",
"392 0 CURVE SMOOTH"
);
},
{
closed = 1;
nodes = (
"991 0 LINE",
"995 19 LINE",
"549 19 LINE",
"681 681 LINE",
"1112 681 LINE",
"1116 700 LINE",
"665 700 LINE",
"525 0 LINE"
);
},
{
closed = 1;
nodes = (
"1000 346 LINE",
"1004 365 LINE",
"613 365 LINE",
"609 346 LINE"
);
}
);
width = 1112;
},
{
anchors = (
{
name = bottom;
position = "{594, 0}";
},
{
name = top;
position = "{734, 700}";
}
);
color = -1;
layerId = "5DA6E103-6A94-47F2-987D-4952DB8EA68E";
paths = (
{
closed = 1;
nodes = (
"538 0 LINE",
"575 184 LINE",
"425 184 LINE SMOOTH",
"330 184 OFFCURVE",
"279 230 OFFCURVE",
"279 311 CURVE SMOOTH",
"279 426 OFFCURVE",
"346 516 OFFCURVE",
"471 516 CURVE SMOOTH",
"641 516 LINE",
"678 700 LINE",
"479 700 LINE SMOOTH",
"224 700 OFFCURVE",
"41 544 OFFCURVE",
"41 297 CURVE SMOOTH",
"41 113 OFFCURVE",
"177 0 OFFCURVE",
"398 0 CURVE SMOOTH"
);
},
{
closed = 1;
nodes = (
"1060 0 LINE",
"1096 178 LINE",
"745 178 LINE",
"814 522 LINE",
"1151 522 LINE",
"1187 700 LINE",
"618 700 LINE",
"478 0 LINE"
);
},
{
closed = 1;
nodes = (
"1060 270 LINE",
"1094 440 LINE",
"782 440 LINE",
"748 270 LINE"
);
}
);
width = 1149;
},
{
anchors = (
{
name = bottom;
position = "{561, 0}";
},
{
name = top;
position = "{701, 700}";
}
);
color = -1;
layerId = "C4221BDF-4AE8-4E40-821A-B2476087DE1A";
paths = (
{
closed = 1;
nodes = (
"534 0 LINE",
"552 99 LINE",
"407 99 LINE SMOOTH",
"251 99 OFFCURVE",
"173 175 OFFCURVE",
"173 295 CURVE SMOOTH",
"173 471 OFFCURVE",
"293 601 OFFCURVE",
"490 601 CURVE SMOOTH",
"656 601 LINE",
"674 700 LINE",
"493 700 LINE SMOOTH",
"232 700 OFFCURVE",
"58 536 OFFCURVE",
"58 288 CURVE SMOOTH",
"58 113 OFFCURVE",
"183 0 OFFCURVE",
"395 0 CURVE SMOOTH"
);
},
{
closed = 1;
nodes = (
"1021 0 LINE",
"1041 99 LINE",
"639 99 LINE",
"739 601 LINE",
"1127 601 LINE",
"1147 700 LINE",
"645 700 LINE",
"505 0 LINE"
);
},
{
closed = 1;
nodes = (
"1026 307 LINE",
"1045 404 LINE",
"691 404 LINE",
"672 307 LINE"
);
}
);
width = 1128;
}
);
leftKerningGroup = O;
leftMetricsKey = O;
rightKerningGroup = E;
rightMetricsKey = E;
unicode = 0152;
},
{
glyphname = P;
layers = (
{
color = -1;
layerId = UUID0;
paths = (
{
closed = 1;
nodes = (
"101 0 LINE",
"151 249 LINE",
"140 240 LINE",
"373 240 LINE SMOOTH",
"568 240 OFFCURVE",
"690 334 OFFCURVE",
"690 514 CURVE SMOOTH",
"690 633 OFFCURVE",
"604 700 OFFCURVE",
"456 700 CURVE SMOOTH",
"221 700 LINE",
"81 0 LINE"
);
},
{
closed = 1;
nodes = (
"239 691 LINE",
"228 681 LINE",
"457 681 LINE SMOOTH",
"594 681 OFFCURVE",
"670 621 OFFCURVE",
"670 514 CURVE SMOOTH",
"670 345 OFFCURVE",
"561 259 OFFCURVE",
"372 259 CURVE SMOOTH",
"144 259 LINE",
"151 251 LINE"
);
}
);
width = 710;
},
{
color = -1;
layerId = "5DA6E103-6A94-47F2-987D-4952DB8EA68E";
paths = (
{
closed = 1;
nodes = (
"238 0 LINE",
"293 275 LINE",
"167 172 LINE",
"393 172 LINE SMOOTH",
"608 172 OFFCURVE",
"747 291 OFFCURVE",
"747 468 CURVE SMOOTH",
"747 614 OFFCURVE",
"641 700 OFFCURVE",
"453 700 CURVE SMOOTH",
"142 700 LINE",
"2 0 LINE"
);
},
{
closed = 1;
nodes = (
"363 628 LINE",
"237 518 LINE",
"420 518 LINE SMOOTH",
"474 518 OFFCURVE",
"508 497 OFFCURVE",
"508 447 CURVE SMOOTH",
"508 388 OFFCURVE",
"470 354 OFFCURVE",
"405 354 CURVE SMOOTH",
"204 354 LINE",
"287 247 LINE"
);
}
);
width = 743;
},
{
color = -1;
layerId = "C4221BDF-4AE8-4E40-821A-B2476087DE1A";
paths = (
{
closed = 1;
nodes = (
"161 0 LINE",
"214 262 LINE",
"153 207 LINE",
"382 207 LINE SMOOTH",
"586 207 OFFCURVE",
"713 313 OFFCURVE",
"713 492 CURVE SMOOTH",
"713 623 OFFCURVE",
"617 700 OFFCURVE",
"451 700 CURVE SMOOTH",
"187 700 LINE",
"47 0 LINE"
);
},
{
closed = 1;
nodes = (
"293 659 LINE",
"233 601 LINE",
"440 601 LINE SMOOTH",
"541 601 OFFCURVE",
"598 561 OFFCURVE",
"598 481 CURVE SMOOTH",
"598 366 OFFCURVE",
"520 306 OFFCURVE",
"385 306 CURVE SMOOTH",
"171 306 LINE",
"211 249 LINE"
);
}
);
width = 724;
}
);
leftKerningGroup = H;
leftMetricsKey = H;
rightKerningGroup = P;
unicode = 0050;
},
{
glyphname = Thorn;
layers = (
{
anchors = (
{
name = bottom;
position = "{303, 0}";
},
{
name = top;
position = "{443, 700}";
}
);
color = -1;
layerId = UUID0;
paths = (
{
closed = 1;
nodes = (
"353 139 LINE SMOOTH",
"548 139 OFFCURVE",
"670 233 OFFCURVE",
"670 413 CURVE SMOOTH",
"670 532 OFFCURVE",
"584 599 OFFCURVE",
"436 599 CURVE SMOOTH",
"212 599 LINE",
"208 580 LINE",
"437 580 LINE SMOOTH",
"574 580 OFFCURVE",
"650 520 OFFCURVE",
"650 413 CURVE SMOOTH",
"650 244 OFFCURVE",
"541 158 OFFCURVE",
"352 158 CURVE SMOOTH",
"124 158 LINE",
"120 139 LINE"
);
},
{
closed = 1;
nodes = (
"101 0 LINE",
"241 700 LINE",
"221 700 LINE",
"81 0 LINE"
);
}
);
width = 710;
},
{
anchors = (
{
name = bottom;
position = "{317, 0}";
},
{
name = top;
position = "{457, 700}";
}
);
color = -1;
layerId = "5DA6E103-6A94-47F2-987D-4952DB8EA68E";
paths = (
{
closed = 1;
nodes = (
"379 105 LINE SMOOTH",
"594 105 OFFCURVE",
"733 224 OFFCURVE",
"733 401 CURVE SMOOTH",
"733 547 OFFCURVE",
"627 633 OFFCURVE",
"442 633 CURVE SMOOTH",
"316 633 LINE",
"280 451 LINE",
"406 451 LINE SMOOTH",
"460 451 OFFCURVE",
"494 430 OFFCURVE",
"494 380 CURVE SMOOTH",
"494 321 OFFCURVE",
"456 287 OFFCURVE",
"391 287 CURVE SMOOTH",
"247 287 LINE",
"211 105 LINE"
);
},
{
closed = 1;
nodes = (
"238 0 LINE",
"378 700 LINE",
"142 700 LINE",
"2 0 LINE"
);
}
);
width = 743;
},
{
anchors = (
{
name = bottom;
position = "{309, 0}";
},
{
name = top;
position = "{449, 700}";
}
);
color = -1;
layerId = "C4221BDF-4AE8-4E40-821A-B2476087DE1A";
paths = (
{
closed = 1;
nodes = (
"366 123 LINE SMOOTH",
"570 123 OFFCURVE",
"697 230 OFFCURVE",
"697 408 CURVE SMOOTH",
"697 540 OFFCURVE",
"602 616 OFFCURVE",
"438 616 CURVE SMOOTH",
"258 616 LINE",
"240 517 LINE",
"424 517 LINE SMOOTH",
"525 517 OFFCURVE",
"582 477 OFFCURVE",
"582 397 CURVE SMOOTH",
"582 282 OFFCURVE",
"504 222 OFFCURVE",
"369 222 CURVE SMOOTH",
"179 222 LINE",
"161 123 LINE"
);
},
{
closed = 1;
nodes = (
"161 0 LINE",
"301 700 LINE",
"187 700 LINE",
"47 0 LINE"
);
}
);
width = 724;
}
);
leftKerningGroup = H;
leftMetricsKey = H;
rightKerningGroup = Thorn;
rightMetricsKey = P;
unicode = 00DE;
},
{
glyphname = Q;
layers = (
{
anchors = (
{
name = top;
position = "{506, 700}";
}
);
color = -1;
layerId = UUID0;
paths = (
{
closed = 1;
nodes = (
"644 -3 OFFCURVE",
"802 196 OFFCURVE",
"802 420 CURVE SMOOTH",
"802 589 OFFCURVE",
"691 703 OFFCURVE",
"487 703 CURVE SMOOTH",
"229 703 OFFCURVE",
"71 504 OFFCURVE",
"71 280 CURVE SMOOTH",
"71 111 OFFCURVE",
"182 -3 OFFCURVE",
"386 -3 CURVE SMOOTH"
);
},
{
closed = 1;
nodes = (
"644 -124 OFFCURVE",
"703 -99 OFFCURVE",
"745 -48 CURVE",
"731 -35 LINE",
"694 -82 OFFCURVE",
"643 -105 OFFCURVE",
"585 -105 CURVE SMOOTH",
"511 -105 OFFCURVE",
"452 -65 OFFCURVE",
"401 8 CURVE",
"376 3 LINE",
"436 -78 OFFCURVE",
"501 -124 OFFCURVE",
"584 -124 CURVE SMOOTH"
);
},
{
closed = 1;
nodes = (
"192 16 OFFCURVE",
"91 123 OFFCURVE",
"91 280 CURVE SMOOTH",
"91 499 OFFCURVE",
"246 684 OFFCURVE",
"485 684 CURVE SMOOTH",
"681 684 OFFCURVE",
"782 577 OFFCURVE",
"782 420 CURVE SMOOTH",
"782 201 OFFCURVE",
"627 16 OFFCURVE",
"388 16 CURVE SMOOTH"
);
}
);
width = 836;
},
{
anchors = (
{
name = top;
position = "{510, 700}";
}
);
color = -1;
layerId = "5DA6E103-6A94-47F2-987D-4952DB8EA68E";
paths = (
{
closed = 1;
nodes = (
"653 -16 OFFCURVE",
"837 156 OFFCURVE",
"837 403 CURVE SMOOTH",
"837 587 OFFCURVE",
"700 716 OFFCURVE",
"482 716 CURVE SMOOTH",
"225 716 OFFCURVE",
"41 544 OFFCURVE",
"41 297 CURVE SMOOTH",
"41 113 OFFCURVE",
"178 -16 OFFCURVE",
"396 -16 CURVE SMOOTH"
);
},
{
closed = 1;
nodes = (
"667 -177 OFFCURVE",
"743 -154 OFFCURVE",
"794 -107 CURVE",
"709 30 LINE",
"678 3 OFFCURVE",
"639 -13 OFFCURVE",
"605 -13 CURVE SMOOTH",
"559 -13 OFFCURVE",
"535 6 OFFCURVE",
"516 80 CURVE",
"261 30 LINE",
"327 -111 OFFCURVE",
"431 -177 OFFCURVE",
"583 -177 CURVE SMOOTH"
);
},
{
closed = 1;
nodes = (
"330 175 OFFCURVE",
"279 230 OFFCURVE",
"279 311 CURVE SMOOTH",
"279 426 OFFCURVE",
"346 525 OFFCURVE",
"462 525 CURVE SMOOTH",
"548 525 OFFCURVE",
"599 470 OFFCURVE",
"599 389 CURVE SMOOTH",
"599 274 OFFCURVE",
"532 175 OFFCURVE",
"416 175 CURVE SMOOTH"
);
}
);
width = 848;
},
{
anchors = (
{
name = top;
position = "{508, 700}";
}
);
color = -1;
layerId = "C4221BDF-4AE8-4E40-821A-B2476087DE1A";
paths = (
{
closed = 1;
nodes = (
"648 -9 OFFCURVE",
"817 177 OFFCURVE",
"817 412 CURVE SMOOTH",
"817 588 OFFCURVE",
"695 709 OFFCURVE",
"485 709 CURVE SMOOTH",
"227 709 OFFCURVE",
"58 523 OFFCURVE",
"58 288 CURVE SMOOTH",
"58 112 OFFCURVE",
"180 -9 OFFCURVE",
"390 -9 CURVE SMOOTH"
);
},
{
closed = 1;
nodes = (
"660 -150 OFFCURVE",
"725 -126 OFFCURVE",
"766 -77 CURVE",
"720 -6 LINE",
"687 -41 OFFCURVE",
"641 -60 OFFCURVE",
"594 -60 CURVE SMOOTH",
"532 -60 OFFCURVE",
"488 -31 OFFCURVE",
"453 43 CURVE",
"325 16 LINE",
"388 -91 OFFCURVE",
"478 -150 OFFCURVE",
"591 -150 CURVE SMOOTH"
);
},
{
closed = 1;
nodes = (
"252 93 OFFCURVE",
"173 175 OFFCURVE",
"173 295 CURVE SMOOTH",
"173 464 OFFCURVE",
"290 607 OFFCURVE",
"475 607 CURVE SMOOTH",
"623 607 OFFCURVE",
"702 525 OFFCURVE",
"702 405 CURVE SMOOTH",
"702 236 OFFCURVE",
"585 93 OFFCURVE",
"400 93 CURVE SMOOTH"
);
}
);
width = 841;
}
);
leftKerningGroup = O;
leftMetricsKey = O;
widthMetricsKey = O;
rightKerningGroup = O;
unicode = 0051;
},
{
glyphname = R;
layers = (
{
anchors = (
{
name = bottom;
position = "{314, 0}";
},
{
name = top;
position = "{454, 700}";
}
);
color = -1;
layerId = UUID0;
paths = (
{
closed = 1;
nodes = (
"101 0 LINE",
"151 249 LINE",
"140 240 LINE",
"373 240 LINE SMOOTH",
"568 240 OFFCURVE",
"690 334 OFFCURVE",
"690 514 CURVE SMOOTH",
"690 633 OFFCURVE",
"604 700 OFFCURVE",
"456 700 CURVE SMOOTH",
"221 700 LINE",
"81 0 LINE"
);
},
{
closed = 1;
nodes = (
"603 0 LINE",
"459 254 LINE",
"436 254 LINE",
"580 0 LINE"
);
},
{
closed = 1;
nodes = (
"239 689 LINE",
"228 681 LINE",
"457 681 LINE SMOOTH",
"594 681 OFFCURVE",
"670 621 OFFCURVE",
"670 514 CURVE SMOOTH",
"670 345 OFFCURVE",
"561 259 OFFCURVE",
"372 259 CURVE SMOOTH",
"144 259 LINE",
"151 251 LINE"
);
}
);
width = 716;
},
{
anchors = (
{
name = bottom;
position = "{324, 0}";
},
{
name = top;
position = "{464, 700}";
}
);
color = -1;
layerId = "5DA6E103-6A94-47F2-987D-4952DB8EA68E";
paths = (
{
closed = 1;
nodes = (
"238 0 LINE",
"293 275 LINE",
"167 176 LINE",
"393 176 LINE SMOOTH",
"608 176 OFFCURVE",
"747 294 OFFCURVE",
"747 470 CURVE SMOOTH",
"747 615 OFFCURVE",
"641 700 OFFCURVE",
"456 700 CURVE SMOOTH",
"142 700 LINE",
"2 0 LINE"
);
},
{
closed = 1;
nodes = (
"675 0 LINE",
"529 255 LINE",
"286 255 LINE",
"430 0 LINE"
);
},
{
closed = 1;
nodes = (
"363 628 LINE",
"237 518 LINE",
"420 518 LINE SMOOTH",
"474 518 OFFCURVE",
"508 497 OFFCURVE",
"508 447 CURVE SMOOTH",
"508 388 OFFCURVE",
"470 354 OFFCURVE",
"405 354 CURVE SMOOTH",
"204 354 LINE",
"287 247 LINE"
);
}
);
width = 745;
},
{
anchors = (
{
name = bottom;
position = "{318, 0}";
},
{
name = top;
position = "{458, 700}";
}
);
color = -1;
layerId = "C4221BDF-4AE8-4E40-821A-B2476087DE1A";
paths = (
{
closed = 1;
nodes = (
"162 0 LINE",
"214 262 LINE",
"155 209 LINE",
"384 209 LINE SMOOTH",
"588 209 OFFCURVE",
"715 315 OFFCURVE",
"715 492 CURVE SMOOTH",
"715 623 OFFCURVE",
"619 700 OFFCURVE",
"453 700 CURVE SMOOTH",
"187 700 LINE",
"47 0 LINE"
);
},
{
closed = 1;
nodes = (
"634 0 LINE",
"491 254 LINE",
"369 254 LINE",
"512 0 LINE"
);
},
{
closed = 1;
nodes = (
"294 659 LINE",
"235 601 LINE",
"442 601 LINE SMOOTH",
"543 601 OFFCURVE",
"600 561 OFFCURVE",
"600 481 CURVE SMOOTH",
"600 366 OFFCURVE",
"522 306 OFFCURVE",
"387 306 CURVE SMOOTH",
"173 306 LINE",
"211 249 LINE"
);
}
);
width = 729;
}
);
leftKerningGroup = H;
leftMetricsKey = H;
rightKerningGroup = R;
unicode = 0052;
},
{
glyphname = S;
layers = (
{
anchors = (
{
name = bottom;
position = "{266, 0}";
},
{
name = top;
position = "{406, 700}";
}
);
color = -1;
layerId = UUID0;
paths = (
{
closed = 1;
nodes = (
"410 -3 OFFCURVE",
"527 63 OFFCURVE",
"527 195 CURVE SMOOTH",
"527 403 OFFCURVE",
"150 312 OFFCURVE",
"150 505 CURVE SMOOTH",
"150 618 OFFCURVE",
"250 684 OFFCURVE",
"388 684 CURVE SMOOTH",
"461 684 OFFCURVE",
"528 663 OFFCURVE",
"577 624 CURVE",
"590 641 LINE",
"541 681 OFFCURVE",
"464 703 OFFCURVE",
"388 703 CURVE SMOOTH",
"242 703 OFFCURVE",
"131 633 OFFCURVE",
"131 503 CURVE SMOOTH",
"131 292 OFFCURVE",
"507 384 OFFCURVE",
"507 194 CURVE SMOOTH",
"507 79 OFFCURVE",
"406 16 OFFCURVE",
"264 16 CURVE SMOOTH",
"173 16 OFFCURVE",
"79 55 OFFCURVE",
"42 108 CURVE",
"26 95 LINE",
"64 39 OFFCURVE",
"164 -3 OFFCURVE",
"263 -3 CURVE SMOOTH"
);
}
);
width = 601;
},
{
anchors = (
{
name = bottom;
position = "{274, 0}";
},
{
name = top;
position = "{414, 700}";
}
);
color = -1;
layerId = "5DA6E103-6A94-47F2-987D-4952DB8EA68E";
paths = (
{
closed = 1;
nodes = (
"498 -16 OFFCURVE",
"634 89 OFFCURVE",
"634 245 CURVE SMOOTH",
"634 461 OFFCURVE",
"300 412 OFFCURVE",
"300 489 CURVE SMOOTH",
"300 513 OFFCURVE",
"334 536 OFFCURVE",
"403 536 CURVE SMOOTH",
"471 536 OFFCURVE",
"539 519 OFFCURVE",
"595 484 CURVE",
"680 656 LINE",
"615 695 OFFCURVE",
"522 716 OFFCURVE",
"418 716 CURVE SMOOTH",
"197 716 OFFCURVE",
"64 612 OFFCURVE",
"64 453 CURVE SMOOTH",
"64 236 OFFCURVE",
"397 279 OFFCURVE",
"397 205 CURVE SMOOTH",
"397 180 OFFCURVE",
"365 164 OFFCURVE",
"304 164 CURVE SMOOTH",
"226 164 OFFCURVE",
"146 184 OFFCURVE",
"68 229 CURVE",
"-23 55 LINE",
"44 14 OFFCURVE",
"155 -16 OFFCURVE",
"280 -16 CURVE SMOOTH"
);
}
);
width = 657;
},
{
anchors = (
{
name = bottom;
position = "{268, 0}";
},
{
name = top;
position = "{408, 700}";
}
);
color = -1;
layerId = "C4221BDF-4AE8-4E40-821A-B2476087DE1A";
paths = (
{
closed = 1;
nodes = (
"448 -9 OFFCURVE",
"571 76 OFFCURVE",
"571 213 CURVE SMOOTH",
"571 428 OFFCURVE",
"213 360 OFFCURVE",
"215 500 CURVE SMOOTH",
"216 567 OFFCURVE",
"284 612 OFFCURVE",
"394 612 CURVE SMOOTH",
"464 612 OFFCURVE",
"532 593 OFFCURVE",
"584 557 CURVE",
"629 650 LINE",
"571 688 OFFCURVE",
"488 709 OFFCURVE",
"400 709 CURVE SMOOTH",
"224 709 OFFCURVE",
"102 623 OFFCURVE",
"102 489 CURVE SMOOTH",
"102 262 OFFCURVE",
"458 334 OFFCURVE",
"458 196 CURVE SMOOTH",
"458 128 OFFCURVE",
"387 88 OFFCURVE",
"279 88 CURVE SMOOTH",
"193 88 OFFCURVE",
"107 118 OFFCURVE",
"52 166 CURVE",
"2 74 LINE",
"56 27 OFFCURVE",
"161 -9 OFFCURVE",
"269 -9 CURVE SMOOTH"
);
}
);
width = 625;
}
);
leftKerningGroup = S;
rightKerningGroup = S;
unicode = 0053;
},
{
glyphname = Saltillo;
layers = (
{
color = -1;
layerId = UUID0;
paths = (
{
closed = 1;
nodes = (
"122 298 LINE",
"202 699 LINE",
"182 699 LINE",
"102 298 LINE"
);
}
);
width = 208;
},
{
color = -1;
layerId = "5DA6E103-6A94-47F2-987D-4952DB8EA68E";
paths = (
{
closed = 1;
nodes = (
"261 296 LINE",
"372 701 LINE",
"140 701 LINE",
"59 296 LINE"
);
}
);
width = 342;
},
{
color = -1;
layerId = "C4221BDF-4AE8-4E40-821A-B2476087DE1A";
paths = (
{
closed = 1;
nodes = (
"183 297 LINE",
"276 700 LINE",
"164 700 LINE",
"83 297 LINE"
);
}
);
width = 267;
}
);
leftKerningGroup = superior;
rightKerningGroup = superior;
unicode = A78B;
},
{
glyphname = Germandbls;
layers = (
{
anchors = (
{
name = bottom;
position = "{339, 0}";
},
{
name = top;
position = "{479, 700}";
}
);
color = -1;
layerId = UUID0;
paths = (
{
closed = 1;
nodes = (
"566 -3 OFFCURVE",
"664 83 OFFCURVE",
"664 224 CURVE SMOOTH",
"664 328 OFFCURVE",
"592 387 OFFCURVE",
"476 387 CURVE SMOOTH",
"451 387 OFFCURVE",
"423 385 OFFCURVE",
"397 377 CURVE",
"399 366 LINE",
"681 610 LINE",
"684 626 LINE",
"641 676 OFFCURVE",
"572 703 OFFCURVE",
"476 703 CURVE SMOOTH",
"300 703 OFFCURVE",
"196 606 OFFCURVE",
"162 436 CURVE SMOOTH",
"75 0 LINE",
"95 0 LINE",
"180 429 LINE SMOOTH",
"213 595 OFFCURVE",
"311 684 OFFCURVE",
"475 684 CURVE SMOOTH",
"563 684 OFFCURVE",
"630 661 OFFCURVE",
"668 615 CURVE",
"671 625 LINE",
"379 373 LINE",
"382 357 LINE",
"409 365 OFFCURVE",
"444 369 OFFCURVE",
"474 369 CURVE SMOOTH",
"581 369 OFFCURVE",
"645 319 OFFCURVE",
"645 224 CURVE SMOOTH",
"645 94 OFFCURVE",
"555 16 OFFCURVE",
"423 16 CURVE SMOOTH",
"370 16 OFFCURVE",
"324 26 OFFCURVE",
"284 47 CURVE",
"274 27 LINE",
"314 7 OFFCURVE",
"367 -3 OFFCURVE",
"420 -3 CURVE SMOOTH"
);
}
);
width = 742;
},
{
anchors = (
{
name = bottom;
position = "{354, 0}";
},
{
name = top;
position = "{494, 700}";
}
);
color = -1;
guideLines = (
{
angle = 49.4672;
position = "{314, 308}";
}
);
layerId = "5DA6E103-6A94-47F2-987D-4952DB8EA68E";
paths = (
{
closed = 1;
nodes = (
"642 -16 OFFCURVE",
"760 91 OFFCURVE",
"760 234 CURVE SMOOTH",
"760 352 OFFCURVE",
"661 433 OFFCURVE",
"530 433 CURVE SMOOTH",
"511 433 OFFCURVE",
"486 430 OFFCURVE",
"464 425 CURVE",
"536 310 LINE",
"746 515 LINE",
"773 650 LINE",
"704 692 OFFCURVE",
"590 716 OFFCURVE",
"504 716 CURVE SMOOTH",
"258 716 OFFCURVE",
"119 613 OFFCURVE",
"75 395 CURVE SMOOTH",
"-4 0 LINE",
"232 0 LINE",
"309 387 LINE SMOOTH",
"329 489 OFFCURVE",
"386 536 OFFCURVE",
"484 536 CURVE SMOOTH",
"542 536 OFFCURVE",
"591 517 OFFCURVE",
"637 487 CURVE",
"652 635 LINE",
"373 365 LINE",
"394 269 LINE",
"412 275 OFFCURVE",
"432 278 OFFCURVE",
"451 278 CURVE SMOOTH",
"496 278 OFFCURVE",
"522 257 OFFCURVE",
"522 224 CURVE SMOOTH",
"522 188 OFFCURVE",
"493 164 OFFCURVE",
"445 164 CURVE SMOOTH",
"403 164 OFFCURVE",
"369 172 OFFCURVE",
"348 180 CURVE",
"290 10 LINE",
"328 -5 OFFCURVE",
"397 -16 OFFCURVE",
"456 -16 CURVE SMOOTH"
);
}
);
width = 798;
},
{
anchors = (
{
name = bottom;
position = "{350, 0}";
},
{
name = top;
position = "{490, 700}";
}
);
color = -1;
layerId = "C4221BDF-4AE8-4E40-821A-B2476087DE1A";
paths = (
{
closed = 1;
nodes = (
"599 -9 OFFCURVE",
"706 87 OFFCURVE",
"706 229 CURVE SMOOTH",
"706 340 OFFCURVE",
"622 409 OFFCURVE",
"500 409 CURVE SMOOTH",
"477 409 OFFCURVE",
"451 407 OFFCURVE",
"426 400 CURVE",
"471 339 LINE",
"709 564 LINE",
"723 638 LINE",
"669 684 OFFCURVE",
"580 709 OFFCURVE",
"488 709 CURVE SMOOTH",
"282 709 OFFCURVE",
"163 609 OFFCURVE",
"124 415 CURVE SMOOTH",
"41 0 LINE",
"155 0 LINE",
"236 407 LINE SMOOTH",
"263 543 OFFCURVE",
"344 612 OFFCURVE",
"479 612 CURVE SMOOTH",
"554 612 OFFCURVE",
"613 591 OFFCURVE",
"654 553 CURVE",
"651 630 LINE",
"376 369 LINE",
"387 314 LINE",
"410 321 OFFCURVE",
"439 325 OFFCURVE",
"464 325 CURVE SMOOTH",
"544 325 OFFCURVE",
"591 289 OFFCURVE",
"591 224 CURVE SMOOTH",
"591 140 OFFCURVE",
"530 88 OFFCURVE",
"437 88 CURVE SMOOTH",
"390 88 OFFCURVE",
"348 97 OFFCURVE",
"312 112 CURVE",
"281 19 LINE",
"320 1 OFFCURVE",
"380 -9 OFFCURVE",
"436 -9 CURVE SMOOTH"
);
}
);
width = 766;
}
);
leftKerningGroup = F.ss01;
leftMetricsKey = "=|U";
rightKerningGroup = B;
unicode = 1E9E;
},
{
glyphname = Schwa;
layers = (
{
anchors = (
{
name = bottom;
position = "{357, 0}";
},
{
name = top;
position = "{497, 700}";
}
);
color = -1;
layerId = UUID0;
paths = (
{
closed = 1;
nodes = (
"624 -3 OFFCURVE",
"782 196 OFFCURVE",
"782 420 CURVE SMOOTH",
"782 589 OFFCURVE",
"671 703 OFFCURVE",
"477 703 CURVE SMOOTH",
"372 703 OFFCURVE",
"277 668 OFFCURVE",
"222 616 CURVE",
"234 602 LINE",
"290 653 OFFCURVE",
"372 684 OFFCURVE",
"475 684 CURVE SMOOTH",
"661 684 OFFCURVE",
"762 577 OFFCURVE",
"762 420 CURVE SMOOTH",
"762 201 OFFCURVE",
"607 16 OFFCURVE",
"378 16 CURVE SMOOTH",
"200 16 OFFCURVE",
"89 120 OFFCURVE",
"89 275 CURVE SMOOTH",
"89 300 OFFCURVE",
"92 324 OFFCURVE",
"98 350 CURVE",
"87 341 LINE",
"758 341 LINE",
"762 360 LINE",
"79 360 LINE",
"73 327 OFFCURVE",
"69 301 OFFCURVE",
"69 274 CURVE SMOOTH",
"69 112 OFFCURVE",
"183 -3 OFFCURVE",
"376 -3 CURVE SMOOTH"
);
}
);
width = 816;
},
{
anchors = (
{
name = bottom;
position = "{354, 0}";
},
{
name = top;
position = "{494, 700}";
}
);
color = -1;
layerId = "5DA6E103-6A94-47F2-987D-4952DB8EA68E";
paths = (
{
closed = 1;
nodes = (
"623 -16 OFFCURVE",
"804 138 OFFCURVE",
"804 393 CURVE SMOOTH",
"804 587 OFFCURVE",
"657 716 OFFCURVE",
"440 716 CURVE SMOOTH",
"322 716 OFFCURVE",
"207 678 OFFCURVE",
"119 604 CURVE",
"228 451 LINE",
"286 500 OFFCURVE",
"352 525 OFFCURVE",
"422 525 CURVE SMOOTH",
"511 525 OFFCURVE",
"567 474 OFFCURVE",
"567 391 CURVE SMOOTH",
"567 318 OFFCURVE",
"542 157 OFFCURVE",
"400 157 CURVE SMOOTH",
"307 157 OFFCURVE",
"270 212 OFFCURVE",
"270 268 CURVE SMOOTH",
"270 284 OFFCURVE",
"272 298 OFFCURVE",
"276 312 CURVE",
"190 268 LINE",
"575 268 LINE",
"601 398 LINE",
"54 398 LINE",
"43 355 OFFCURVE",
"38 314 OFFCURVE",
"38 284 CURVE SMOOTH",
"38 109 OFFCURVE",
"180 -16 OFFCURVE",
"393 -16 CURVE SMOOTH"
);
}
);
width = 818;
},
{
anchors = (
{
name = bottom;
position = "{357, 0}";
},
{
name = top;
position = "{497, 700}";
}
);
color = 3;
layerId = "C4221BDF-4AE8-4E40-821A-B2476087DE1A";
paths = (
{
closed = 1;
nodes = (
"629 -9 OFFCURVE",
"793 177 OFFCURVE",
"793 412 CURVE SMOOTH",
"793 588 OFFCURVE",
"675 709 OFFCURVE",
"464 709 CURVE SMOOTH",
"351 709 OFFCURVE",
"247 675 OFFCURVE",
"176 612 CURVE",
"232 528 LINE",
"289 579 OFFCURVE",
"371 607 OFFCURVE",
"455 607 CURVE SMOOTH",
"604 607 OFFCURVE",
"678 525 OFFCURVE",
"678 405 CURVE SMOOTH",
"678 236 OFFCURVE",
"565 90 OFFCURVE",
"389 90 CURVE SMOOTH",
"246 90 OFFCURVE",
"167 165 OFFCURVE",
"167 295 CURVE SMOOTH",
"167 315 OFFCURVE",
"169 321 OFFCURVE",
"171 342 CURVE",
"129 289 LINE",
"676 289 LINE",
"695 386 LINE",
"68 386 LINE",
"58 341 OFFCURVE",
"55 316 OFFCURVE",
"55 288 CURVE SMOOTH",
"55 112 OFFCURVE",
"177 -9 OFFCURVE",
"378 -9 CURVE SMOOTH"
);
}
);
width = 817;
}
);
leftKerningGroup = O;
rightKerningGroup = O;
rightMetricsKey = O;
unicode = 018F;
},
{
glyphname = T;
layers = (
{
anchors = (
{
name = bottom;
position = "{222, 0}";
},
{
name = center;
position = "{293, 356}";
},
{
name = top;
position = "{362, 700}";
}
);
color = -1;
layerId = UUID0;
paths = (
{
closed = 1;
nodes = (
"232 0 LINE",
"368 681 LINE",
"628 681 LINE",
"632 700 LINE",
"92 700 LINE",
"88 681 LINE",
"348 681 LINE",
"212 0 LINE"
);
}
);
width = 548;
},
{
anchors = (
{
name = bottom;
position = "{272, 0}";
},
{
name = center;
position = "{335, 315}";
},
{
name = top;
position = "{412, 700}";
}
);
color = -1;
layerId = "5DA6E103-6A94-47F2-987D-4952DB8EA68E";
paths = (
{
closed = 1;
nodes = (
"390 0 LINE",
"493 517 LINE",
"698 517 LINE",
"735 700 LINE",
"89 700 LINE",
"52 517 LINE",
"257 517 LINE",
"154 0 LINE"
);
}
);
width = 654;
},
{
anchors = (
{
name = bottom;
position = "{244, 0}";
},
{
name = center;
position = "{311, 336}";
},
{
name = top;
position = "{384, 700}";
}
);
color = -1;
layerId = "C4221BDF-4AE8-4E40-821A-B2476087DE1A";
paths = (
{
closed = 1;
nodes = (
"301 0 LINE",
"421 601 LINE",
"657 601 LINE",
"677 700 LINE",
"91 700 LINE",
"71 601 LINE",
"307 601 LINE",
"187 0 LINE"
);
}
);
width = 594;
}
);
leftKerningGroup = T;
rightKerningGroup = T;
unicode = 0054;
},
{
glyphname = U;
layers = (
{
anchors = (
{
name = bottom;
position = "{345, 0}";
},
{
name = ogonek;
position = "{531, 0}";
},
{
name = top;
position = "{485, 700}";
},
{
name = topright;
position = "{760, 700}";
}
);
color = -1;
layerId = UUID0;
paths = (
{
closed = 1;
nodes = (
"528 -3 OFFCURVE",
"634 93 OFFCURVE",
"674 293 CURVE SMOOTH",
"755 700 LINE",
"735 700 LINE",
"654 294 LINE SMOOTH",
"617 106 OFFCURVE",
"520 16 OFFCURVE",
"360 16 CURVE SMOOTH",
"194 16 OFFCURVE",
"118 116 OFFCURVE",
"154 295 CURVE SMOOTH",
"235 700 LINE",
"215 700 LINE",
"134 293 LINE SMOOTH",
"97 107 OFFCURVE",
"183 -3 OFFCURVE",
"360 -3 CURVE SMOOTH"
);
}
);
width = 794;
},
{
anchors = (
{
name = bottom;
position = "{339, 0}";
},
{
name = ogonek;
position = "{565, 0}";
},
{
name = top;
position = "{479, 700}";
},
{
name = topright;
position = "{725, 700}";
}
);
color = -1;
layerId = "5DA6E103-6A94-47F2-987D-4952DB8EA68E";
paths = (
{
closed = 1;
nodes = (
"570 -16 OFFCURVE",
"697 95 OFFCURVE",
"739 305 CURVE SMOOTH",
"818 700 LINE",
"586 700 LINE",
"510 319 LINE SMOOTH",
"489 214 OFFCURVE",
"452 175 OFFCURVE",
"384 175 CURVE SMOOTH",
"310 175 OFFCURVE",
"276 220 OFFCURVE",
"296 319 CURVE SMOOTH",
"372 700 LINE",
"136 700 LINE",
"59 315 LINE SMOOTH",
"19 116 OFFCURVE",
"137 -16 OFFCURVE",
"355 -16 CURVE SMOOTH"
);
}
);
width = 784;
},
{
anchors = (
{
name = bottom;
position = "{342, 0}";
},
{
name = ogonek;
position = "{546, 0}";
},
{
name = top;
position = "{482, 700}";
},
{
name = topright;
position = "{745, 700}";
}
);
color = -1;
layerId = "C4221BDF-4AE8-4E40-821A-B2476087DE1A";
paths = (
{
closed = 1;
nodes = (
"546 -9 OFFCURVE",
"661 93 OFFCURVE",
"702 298 CURVE SMOOTH",
"782 700 LINE",
"670 700 LINE",
"591 306 LINE SMOOTH",
"561 158 OFFCURVE",
"490 93 OFFCURVE",
"373 93 CURVE SMOOTH",
"247 93 OFFCURVE",
"188 163 OFFCURVE",
"216 305 CURVE SMOOTH",
"295 700 LINE",
"181 700 LINE",
"102 304 LINE SMOOTH",
"64 112 OFFCURVE",
"166 -9 OFFCURVE",
"362 -9 CURVE SMOOTH"
);
}
);
width = 790;
}
);
leftKerningGroup = U;
rightKerningGroup = U;
rightMetricsKey = "=|";
unicode = 0055;
},
{
glyphname = Uogonek;
layers = (
{
color = -1;
layerId = UUID0;
paths = (
{
closed = 1;
nodes = (
"654 294 LINE SMOOTH",
"617 106 OFFCURVE",
"520 16 OFFCURVE",
"360 16 CURVE SMOOTH",
"194 16 OFFCURVE",
"118 116 OFFCURVE",
"154 295 CURVE SMOOTH",
"235 700 LINE",
"215 700 LINE",
"134 293 LINE SMOOTH",
"97 107 OFFCURVE",
"183 -3 OFFCURVE",
"360 -3 CURVE SMOOTH",
"375 -3 OFFCURVE",
"389 -2 OFFCURVE",
"400 -1 CURVE",
"367 1 LINE",
"274 -43 OFFCURVE",
"235 -91 OFFCURVE",
"235 -144 CURVE SMOOTH",
"235 -187 OFFCURVE",
"265 -213 OFFCURVE",
"310 -213 CURVE SMOOTH",
"340 -213 OFFCURVE",
"368 -204 OFFCURVE",
"391 -186 CURVE",
"383 -169 LINE",
"363 -185 OFFCURVE",
"337 -194 OFFCURVE",
"312 -194 CURVE SMOOTH",
"276 -194 OFFCURVE",
"255 -176 OFFCURVE",
"255 -142 CURVE SMOOTH",
"255 -83 OFFCURVE",
"323 -23 OFFCURVE",
"447 7 CURVE SMOOTH",
"560 34 OFFCURVE",
"640 125 OFFCURVE",
"674 293 CURVE SMOOTH",
"755 700 LINE",
"735 700 LINE"
);
}
);
width = 794;
},
{
color = -1;
layerId = "5DA6E103-6A94-47F2-987D-4952DB8EA68E";
paths = (
{
closed = 1;
nodes = (
"510 319 LINE SMOOTH",
"489 214 OFFCURVE",
"452 175 OFFCURVE",
"384 175 CURVE SMOOTH",
"310 175 OFFCURVE",
"276 220 OFFCURVE",
"296 319 CURVE SMOOTH",
"372 700 LINE",
"136 700 LINE",
"59 315 LINE SMOOTH",
"19 116 OFFCURVE",
"137 -16 OFFCURVE",
"355 -16 CURVE SMOOTH",
"371 -16 OFFCURVE",
"386 -15 OFFCURVE",
"402 -14 CURVE",
"337 30 LINE",
"243 -6 OFFCURVE",
"189 -58 OFFCURVE",
"189 -132 CURVE SMOOTH",
"189 -200 OFFCURVE",
"247 -240 OFFCURVE",
"335 -240 CURVE SMOOTH",
"378 -240 OFFCURVE",
"416 -230 OFFCURVE",
"443 -217 CURVE",
"434 -124 LINE",
"418 -131 OFFCURVE",
"396 -138 OFFCURVE",
"374 -138 CURVE SMOOTH",
"346 -138 OFFCURVE",
"328 -122 OFFCURVE",
"328 -97 CURVE SMOOTH",
"328 -60 OFFCURVE",
"360 -29 OFFCURVE",
"465 -5 CURVE SMOOTH",
"614 29 OFFCURVE",
"705 134 OFFCURVE",
"739 305 CURVE SMOOTH",
"818 700 LINE",
"586 700 LINE"
);
}
);
width = 784;
},
{
color = -1;
layerId = "C4221BDF-4AE8-4E40-821A-B2476087DE1A";
paths = (
{
closed = 1;
nodes = (
"591 306 LINE SMOOTH",
"561 158 OFFCURVE",
"490 93 OFFCURVE",
"373 93 CURVE SMOOTH",
"247 93 OFFCURVE",
"188 163 OFFCURVE",
"216 305 CURVE SMOOTH",
"295 700 LINE",
"181 700 LINE",
"102 304 LINE SMOOTH",
"64 112 OFFCURVE",
"166 -9 OFFCURVE",
"362 -9 CURVE SMOOTH",
"376 -9 OFFCURVE",
"389 -8 OFFCURVE",
"403 -7 CURVE",
"339 17 LINE",
"258 -22 OFFCURVE",
"214 -73 OFFCURVE",
"214 -134 CURVE SMOOTH",
"214 -193 OFFCURVE",
"261 -226 OFFCURVE",
"326 -226 CURVE SMOOTH",
"364 -226 OFFCURVE",
"395 -217 OFFCURVE",
"422 -203 CURVE",
"409 -147 LINE",
"390 -157 OFFCURVE",
"366 -163 OFFCURVE",
"343 -163 CURVE SMOOTH",
"313 -163 OFFCURVE",
"293 -148 OFFCURVE",
"293 -120 CURVE SMOOTH",
"293 -77 OFFCURVE",
"344 -25 OFFCURVE",
"458 2 CURVE SMOOTH",
"587 33 OFFCURVE",
"669 132 OFFCURVE",
"702 298 CURVE SMOOTH",
"782 700 LINE",
"670 700 LINE"
);
}
);
width = 790;
}
);
leftKerningGroup = U;
leftMetricsKey = U;
rightKerningGroup = U;
rightMetricsKey = U;
unicode = 0172;
},
{
glyphname = V;
layers = (
{
color = -1;
layerId = UUID0;
paths = (
{
closed = 1;
nodes = (
"293 0 LINE",
"748 700 LINE",
"724 700 LINE",
"280 17 LINE",
"289 17 LINE",
"119 700 LINE",
"98 700 LINE",
"273 0 LINE"
);
}
);
width = 670;
},
{
color = -1;
guideLines = (
{
angle = 113.6122;
position = "{433, 350}";
}
);
layerId = "5DA6E103-6A94-47F2-987D-4952DB8EA68E";
paths = (
{
closed = 1;
nodes = (
"454 0 LINE",
"890 700 LINE",
"648 700 LINE",
"280 107 LINE",
"434 107 LINE",
"308 700 LINE",
"66 700 LINE",
"222 0 LINE"
);
}
);
width = 786;
},
{
color = -1;
layerId = "C4221BDF-4AE8-4E40-821A-B2476087DE1A";
paths = (
{
closed = 1;
nodes = (
"363 0 LINE",
"810 700 LINE",
"691 700 LINE",
"280 61 LINE",
"352 61 LINE",
"202 700 LINE",
"84 700 LINE",
"251 0 LINE"
);
}
);
width = 720;
}
);
leftKerningGroup = V;
rightKerningGroup = V;
rightMetricsKey = "=|";
unicode = 0056;
},
{
glyphname = W;
layers = (
{
anchors = (
{
name = bottom;
position = "{488, 0}";
},
{
name = top;
position = "{628, 700}";
}
);
color = -1;
layerId = UUID0;
paths = (
{
closed = 1;
nodes = (
"253 0 LINE",
"626 677 LINE",
"621 676 LINE",
"723 0 LINE",
"743 0 LINE",
"1123 700 LINE",
"1101 700 LINE",
"730 17 LINE",
"740 17 LINE",
"637 700 LINE",
"617 700 LINE",
"241 17 LINE",
"250 17 LINE",
"153 700 LINE",
"133 700 LINE",
"233 0 LINE"
);
}
);
width = 1080;
},
{
anchors = (
{
name = bottom;
position = "{548, 0}";
},
{
name = top;
position = "{688, 700}";
}
);
color = -1;
layerId = "5DA6E103-6A94-47F2-987D-4952DB8EA68E";
paths = (
{
closed = 1;
nodes = (
"432 0 LINE",
"683 484 LINE",
"611 484 LINE",
"664 0 LINE",
"917 0 LINE",
"1281 700 LINE",
"1049 700 LINE",
"742 109 LINE",
"857 109 LINE",
"798 700 LINE",
"581 700 LINE",
"273 109 LINE",
"395 109 LINE",
"328 700 LINE",
"95 700 LINE",
"179 0 LINE"
);
}
);
width = 1206;
},
{
anchors = (
{
name = bottom;
position = "{561, 0}";
},
{
name = top;
position = "{561, 701}";
}
);
associatedMasterId = "5DA6E103-6A94-47F2-987D-4952DB8EA68E";
layerId = "EEA8680D-1FF3-40CE-9363-051D7C06078A";
name = "Nov 24 16, 19:29";
paths = (
{
closed = 1;
nodes = (
"222 0 LINE",
"461 0 LINE",
"561 419 LINE",
"658 0 LINE",
"897 0 LINE",
"1126 701 LINE",
"889 701 LINE",
"785 241 LINE",
"679 701 LINE",
"453 701 LINE",
"349 241 LINE",
"243 701 LINE",
"-5 701 LINE"
);
}
);
width = 1121;
},
{
anchors = (
{
name = bottom;
position = "{518, 0}";
},
{
name = top;
position = "{518, 700}";
}
);
associatedMasterId = UUID0;
layerId = "E72032C1-AF8F-44ED-9FB4-9F328EEA5C08";
name = "Nov 24 16, 19:29";
paths = (
{
closed = 1;
nodes = (
"235.462 0 LINE",
"357.077 0 LINE",
"524.923 554.692 LINE",
"690.846 0 LINE",
"812.462 0 LINE",
"1045.77 699.923 LINE",
"924 699.923 LINE",
"755.385 123.615 LINE",
"585.308 699.923 LINE",
"469 700 LINE",
"300 123.615 LINE",
"129.923 699.923 LINE",
"3.077 699.923 LINE"
);
}
);
width = 1036;
},
{
anchors = (
{
name = bottom;
position = "{514, 0}";
},
{
name = top;
position = "{654, 700}";
}
);
color = -1;
layerId = "C4221BDF-4AE8-4E40-821A-B2476087DE1A";
paths = (
{
closed = 1;
nodes = (
"331 0 LINE",
"651 583 LINE",
"617 583 LINE",
"698 0 LINE",
"820 0 LINE",
"1193 700 LINE",
"1079 700 LINE",
"736 62 LINE",
"792 62 LINE",
"707 700 LINE",
"601 700 LINE",
"255 62 LINE",
"313 62 LINE",
"229 700 LINE",
"116 700 LINE",
"209 0 LINE"
);
}
);
width = 1135;
}
);
leftKerningGroup = V;
rightKerningGroup = V;
rightMetricsKey = "=|";
unicode = 0057;
},
{
glyphname = X;
layers = (
{
color = -1;
layerId = UUID0;
paths = (
{
closed = 1;
nodes = (
"-3 0 LINE",
"332 351 LINE",
"327 353 LINE",
"523 0 LINE",
"544 0 LINE",
"340 366 LINE",
"340 360 LINE",
"664 700 LINE",
"640 700 LINE",
"329 374 LINE",
"338 369 LINE",
"154 700 LINE",
"133 700 LINE",
"323 359 LINE",
"324 369 LINE",
"-27 0 LINE"
);
}
);
width = 621;
},
{
color = -1;
layerId = "5DA6E103-6A94-47F2-987D-4952DB8EA68E";
paths = (
{
closed = 1;
nodes = (
"218 0 LINE",
"437 260 LINE",
"330 262 LINE",
"457 0 LINE",
"712 0 LINE",
"482 426 LINE",
"474 293 LINE",
"843 700 LINE",
"577 700 LINE",
"361 449 LINE",
"463 451 LINE",
"341 700 LINE",
"89 700 LINE",
"300 296 LINE",
"331 433 LINE",
"-64 0 LINE"
);
}
);
width = 762;
},
{
color = -1;
layerId = "C4221BDF-4AE8-4E40-821A-B2476087DE1A";
paths = (
{
closed = 1;
nodes = (
"96 0 LINE",
"378 308 LINE",
"327 311 LINE",
"495 0 LINE",
"617 0 LINE",
"401 394 LINE",
"398 329 LINE",
"742 700 LINE",
"611 700 LINE",
"343 411 LINE",
"394 407 LINE",
"235 700 LINE",
"114 700 LINE",
"318 327 LINE",
"324 392 LINE",
"-41 0 LINE"
);
}
);
width = 683;
}
);
leftKerningGroup = X;
rightKerningGroup = X;
unicode = 0058;
},
{
glyphname = Y;
layers = (
{
anchors = (
{
name = bottom;
position = "{253, 0}";
},
{
name = center;
position = "{301, 241}";
},
{
name = top;
position = "{393, 700}";
},
{
name = topleft;
position = "{108, 700}";
}
);
color = -1;
guideLines = (
{
angle = -101.3;
position = "{279, 129}";
}
);
layerId = UUID0;
paths = (
{
closed = 1;
nodes = (
"263 0 LINE",
"312 245 LINE",
"304 228 LINE",
"688 700 LINE",
"663 700 LINE",
"299 252 LINE",
"306 253 LINE",
"120 700 LINE",
"98 700 LINE",
"294 230 LINE",
"292 245 LINE",
"243 0 LINE"
);
}
);
width = 610;
},
{
anchors = (
{
name = bottom;
position = "{300, 0}";
},
{
name = center;
position = "{344, 217}";
},
{
name = top;
position = "{440, 700}";
},
{
name = topleft;
position = "{177, 700}";
}
);
color = -1;
guideLines = (
{
angle = -101.3;
position = "{326, 129}";
}
);
layerId = "5DA6E103-6A94-47F2-987D-4952DB8EA68E";
paths = (
{
closed = 1;
nodes = (
"418 0 LINE",
"479 307 LINE",
"399 166 LINE",
"822 700 LINE",
"585 700 LINE",
"290 333 LINE",
"439 333 LINE",
"295 700 LINE",
"58 700 LINE",
"269 166 LINE",
"243 307 LINE",
"182 0 LINE"
);
}
);
width = 710;
},
{
anchors = (
{
name = bottom;
position = "{273, 0}";
},
{
name = center;
position = "{319, 235}";
},
{
name = top;
position = "{414, 700}";
},
{
name = topleft;
position = "{138, 700}";
}
);
color = -1;
layerId = "C4221BDF-4AE8-4E40-821A-B2476087DE1A";
paths = (
{
closed = 1;
nodes = (
"330 0 LINE",
"385 275 LINE",
"346 198 LINE",
"747 700 LINE",
"626 700 LINE",
"295 289 LINE",
"360 290 LINE",
"194 700 LINE",
"81 700 LINE",
"284 199 LINE",
"271 275 LINE",
"216 0 LINE"
);
}
);
width = 654;
}
);
leftKerningGroup = Y;
rightKerningGroup = Y;
rightMetricsKey = "=|";
unicode = 0059;
},
{
glyphname = Z;
layers = (
{
anchors = (
{
name = bottom;
position = "{283, 0}";
},
{
name = top;
position = "{413, 700}";
}
);
color = -1;
layerId = UUID0;
paths = (
{
closed = 1;
nodes = (
"548 0 LINE",
"552 19 LINE",
"27 19 LINE",
"25 12 LINE",
"675 685 LINE",
"678 700 LINE",
"143 700 LINE",
"139 681 LINE",
"649 681 LINE",
"650 688 LINE",
"1 15 LINE",
"-2 0 LINE"
);
}
);
width = 639;
},
{
anchors = (
{
name = bottom;
position = "{299, 0}";
},
{
name = top;
position = "{439, 700}";
}
);
color = -1;
layerId = "5DA6E103-6A94-47F2-987D-4952DB8EA68E";
paths = (
{
closed = 1;
nodes = (
"620 0 LINE",
"657 183 LINE",
"222 183 LINE",
"242 101 LINE",
"715 555 LINE",
"744 700 LINE",
"127 700 LINE",
"90 517 LINE",
"499 517 LINE",
"479 599 LINE",
"6 145 LINE",
"-23 0 LINE"
);
}
);
width = 687;
},
{
anchors = (
{
name = bottom;
position = "{289.99, 0}";
},
{
name = top;
position = "{424, 700}";
}
);
color = -1;
layerId = "C4221BDF-4AE8-4E40-821A-B2476087DE1A";
paths = (
{
closed = 1;
nodes = (
"579 0 LINE",
"599 99 LINE",
"112 99 LINE",
"122 55 LINE",
"692 622 LINE",
"708 700 LINE",
"138 700 LINE",
"118 601 LINE",
"583 601 LINE",
"573 645 LINE",
"3 78 LINE",
"-13 0 LINE"
);
}
);
width = 660;
}
);
leftKerningGroup = Z;
rightKerningGroup = Z;
unicode = 005A;
},
{
glyphname = Iacute_J.loclNLD;
layers = (
{
color = -1;
guideLines = (
{
angle = 90;
position = "{510, 710}";
},
{
angle = 90;
position = "{786, 710}";
},
{
angle = 90;
position = "{934, 743}";
}
);
layerId = UUID0;
paths = (
{
closed = 1;
nodes = (
"456 -3 OFFCURVE",
"553 91 OFFCURVE",
"593 290 CURVE SMOOTH",
"675 700 LINE",
"655 700 LINE",
"574 294 LINE SMOOTH",
"536 103 OFFCURVE",
"445 16 OFFCURVE",
"289 16 CURVE SMOOTH",
"210 16 OFFCURVE",
"143 40 OFFCURVE",
"94 78 CURVE",
"81 61 LINE",
"130 24 OFFCURVE",
"201 -3 OFFCURVE",
"289 -3 CURVE SMOOTH"
);
},
{
closed = 1;
nodes = (
"153 290 LINE",
"235 700 LINE",
"215 700 LINE",
"133 290 LINE"
);
},
{
closed = 1;
nodes = (
"251 757 LINE",
"423 867 LINE",
"383 867 LINE",
"221 757 LINE"
);
},
{
closed = 1;
nodes = (
"693 757 LINE",
"865 867 LINE",
"825 867 LINE",
"663 757 LINE"
);
}
);
width = 714;
},
{
color = -1;
guideLines = (
{
angle = 90;
position = "{556, 701}";
}
);
layerId = "5DA6E103-6A94-47F2-987D-4952DB8EA68E";
paths = (
{
closed = 1;
nodes = (
"508 -16 OFFCURVE",
"640 87 OFFCURVE",
"684 305 CURVE SMOOTH",
"763 700 LINE",
"527 700 LINE",
"450 313 LINE SMOOTH",
"430 211 OFFCURVE",
"390 172 OFFCURVE",
"307 172 CURVE SMOOTH",
"240 172 OFFCURVE",
"170 194 OFFCURVE",
"106 238 CURVE",
"-8 69 LINE",
"66 17 OFFCURVE",
"163 -16 OFFCURVE",
"297 -16 CURVE SMOOTH"
);
},
{
closed = 1;
nodes = (
"299 336 LINE",
"372 700 LINE",
"136 700 LINE",
"63 336 LINE"
);
},
{
closed = 1;
nodes = (
"310 757 LINE",
"539 917 LINE",
"324 917 LINE",
"160 757 LINE"
);
},
{
closed = 1;
nodes = (
"700 757 LINE",
"929 917 LINE",
"714 917 LINE",
"550 757 LINE"
);
}
);
width = 729;
},
{
color = -1;
layerId = "C4221BDF-4AE8-4E40-821A-B2476087DE1A";
paths = (
{
closed = 1;
nodes = (
"479 -9 OFFCURVE",
"591 89 OFFCURVE",
"633 297 CURVE SMOOTH",
"713 700 LINE",
"599 700 LINE",
"520 303 LINE SMOOTH",
"490 155 OFFCURVE",
"421 92 OFFCURVE",
"297 92 CURVE SMOOTH",
"223 92 OFFCURVE",
"155 115 OFFCURVE",
"99 156 CURVE",
"42 65 LINE",
"102 21 OFFCURVE",
"184 -9 OFFCURVE",
"292 -9 CURVE SMOOTH"
);
},
{
closed = 1;
nodes = (
"217 312 LINE",
"295 700 LINE",
"180 700 LINE",
"102 312 LINE"
);
},
{
closed = 1;
nodes = (
"277 757 LINE",
"474 891 LINE",
"357 891 LINE",
"194 757 LINE"
);
},
{
closed = 1;
nodes = (
"696 757 LINE",
"893 891 LINE",
"777 891 LINE",
"614 757 LINE"
);
}
);
width = 721;
}
);
leftKerningGroup = H;
leftMetricsKey = IJ;
widthMetricsKey = IJ;
rightKerningGroup = U;
},
{
glyphname = Adieresis.alt;
layers = (
{
color = -1;
layerId = UUID0;
paths = (
{
closed = 1;
nodes = (
"-19 0 LINE",
"435 684 LINE",
"426 684 LINE",
"606 0 LINE",
"627 0 LINE",
"442 700 LINE",
"422 700 LINE",
"-43 0 LINE"
);
},
{
closed = 1;
nodes = (
"561 211 LINE",
"555 230 LINE",
"120 230 LINE",
"106 211 LINE"
);
},
{
closed = 1;
nodes = (
"309 651 OFFCURVE",
"321 664 OFFCURVE",
"321 679 CURVE SMOOTH",
"321 692 OFFCURVE",
"309 703 OFFCURVE",
"296 703 CURVE SMOOTH",
"281 703 OFFCURVE",
"269 690 OFFCURVE",
"269 675 CURVE SMOOTH",
"269 662 OFFCURVE",
"281 651 OFFCURVE",
"294 651 CURVE SMOOTH"
);
},
{
closed = 1;
nodes = (
"573 651 OFFCURVE",
"585 664 OFFCURVE",
"585 679 CURVE SMOOTH",
"585 692 OFFCURVE",
"573 703 OFFCURVE",
"560 703 CURVE SMOOTH",
"545 703 OFFCURVE",
"533 690 OFFCURVE",
"533 675 CURVE SMOOTH",
"533 662 OFFCURVE",
"545 651 OFFCURVE",
"558 651 CURVE SMOOTH"
);
}
);
width = 688;
},
{
color = -1;
layerId = "5DA6E103-6A94-47F2-987D-4952DB8EA68E";
paths = (
{
closed = 1;
nodes = (
"175 0 LINE",
"514 591 LINE",
"422 591 LINE",
"535 0 LINE",
"770 0 LINE",
"604 700 LINE",
"372 700 LINE",
"-74 0 LINE"
);
},
{
closed = 1;
nodes = (
"574 122 LINE",
"548 292 LINE",
"226 292 LINE",
"132 122 LINE"
);
},
{
closed = 1;
nodes = (
"227 523 OFFCURVE",
"271 563 OFFCURVE",
"271 623 CURVE SMOOTH",
"271 667 OFFCURVE",
"238 700 OFFCURVE",
"186 700 CURVE SMOOTH",
"131 700 OFFCURVE",
"87 661 OFFCURVE",
"87 601 CURVE SMOOTH",
"87 556 OFFCURVE",
"121 523 OFFCURVE",
"172 523 CURVE SMOOTH"
);
},
{
closed = 1;
nodes = (
"809 523 OFFCURVE",
"853 563 OFFCURVE",
"853 623 CURVE SMOOTH",
"853 667 OFFCURVE",
"820 700 OFFCURVE",
"768 700 CURVE SMOOTH",
"713 700 OFFCURVE",
"669 661 OFFCURVE",
"669 601 CURVE SMOOTH",
"669 556 OFFCURVE",
"703 523 OFFCURVE",
"754 523 CURVE SMOOTH"
);
}
);
width = 806;
},
{
color = -1;
layerId = "C4221BDF-4AE8-4E40-821A-B2476087DE1A";
paths = (
{
closed = 1;
nodes = (
"67 0 LINE",
"471 639 LINE",
"425 639 LINE",
"576 0 LINE",
"690 0 LINE",
"514 700 LINE",
"401 700 LINE",
"-56 0 LINE"
);
},
{
closed = 1;
nodes = (
"568 168 LINE",
"553 260 LINE",
"167 260 LINE",
"118 168 LINE"
);
},
{
closed = 1;
nodes = (
"274 590 OFFCURVE",
"300 615 OFFCURVE",
"300 652 CURVE SMOOTH",
"300 680 OFFCURVE",
"279 702 OFFCURVE",
"248 702 CURVE SMOOTH",
"214 702 OFFCURVE",
"188 676 OFFCURVE",
"188 639 CURVE SMOOTH",
"188 611 OFFCURVE",
"210 590 OFFCURVE",
"241 590 CURVE SMOOTH"
);
},
{
closed = 1;
nodes = (
"677 590 OFFCURVE",
"703 615 OFFCURVE",
"703 652 CURVE SMOOTH",
"703 680 OFFCURVE",
"682 702 OFFCURVE",
"651 702 CURVE SMOOTH",
"617 702 OFFCURVE",
"591 676 OFFCURVE",
"591 639 CURVE SMOOTH",
"591 611 OFFCURVE",
"613 590 OFFCURVE",
"644 590 CURVE SMOOTH"
);
}
);
width = 740;
}
);
leftKerningGroup = A;
leftMetricsKey = A;
rightKerningGroup = A;
rightMetricsKey = A;
},
{
glyphname = Udieresis.alt;
layers = (
{
color = -1;
layerId = UUID0;
paths = (
{
closed = 1;
nodes = (
"511 -3 OFFCURVE",
"634 95 OFFCURVE",
"674 293 CURVE SMOOTH",
"755 700 LINE",
"735 700 LINE",
"654 294 LINE SMOOTH",
"616 107 OFFCURVE",
"507 16 OFFCURVE",
"348 16 CURVE SMOOTH",
"189 16 OFFCURVE",
"116 107 OFFCURVE",
"154 294 CURVE SMOOTH",
"235 700 LINE",
"215 700 LINE",
"134 293 LINE SMOOTH",
"94 95 OFFCURVE",
"177 -3 OFFCURVE",
"344 -3 CURVE SMOOTH"
);
},
{
closed = 1;
nodes = (
"412 651 OFFCURVE",
"424 664 OFFCURVE",
"424 679 CURVE SMOOTH",
"424 692 OFFCURVE",
"412 703 OFFCURVE",
"399 703 CURVE SMOOTH",
"384 703 OFFCURVE",
"372 690 OFFCURVE",
"372 675 CURVE SMOOTH",
"372 662 OFFCURVE",
"384 651 OFFCURVE",
"397 651 CURVE SMOOTH"
);
},
{
closed = 1;
nodes = (
"576 651 OFFCURVE",
"588 664 OFFCURVE",
"588 679 CURVE SMOOTH",
"588 692 OFFCURVE",
"576 703 OFFCURVE",
"563 703 CURVE SMOOTH",
"548 703 OFFCURVE",
"536 690 OFFCURVE",
"536 675 CURVE SMOOTH",
"536 662 OFFCURVE",
"548 651 OFFCURVE",
"561 651 CURVE SMOOTH"
);
}
);
width = 794;
},
{
color = -1;
layerId = "5DA6E103-6A94-47F2-987D-4952DB8EA68E";
paths = (
{
closed = 1;
nodes = (
"570 -16 OFFCURVE",
"697 95 OFFCURVE",
"739 305 CURVE SMOOTH",
"818 700 LINE",
"586 700 LINE",
"510 319 LINE SMOOTH",
"489 214 OFFCURVE",
"452 175 OFFCURVE",
"384 175 CURVE SMOOTH",
"310 175 OFFCURVE",
"276 220 OFFCURVE",
"296 319 CURVE SMOOTH",
"372 700 LINE",
"136 700 LINE",
"59 315 LINE SMOOTH",
"19 116 OFFCURVE",
"137 -16 OFFCURVE",
"355 -16 CURVE SMOOTH"
);
},
{
closed = 1;
nodes = (
"440 533 OFFCURVE",
"484 573 OFFCURVE",
"484 633 CURVE SMOOTH",
"484 677 OFFCURVE",
"451 710 OFFCURVE",
"399 710 CURVE SMOOTH",
"344 710 OFFCURVE",
"300 671 OFFCURVE",
"300 611 CURVE SMOOTH",
"300 566 OFFCURVE",
"334 533 OFFCURVE",
"385 533 CURVE SMOOTH"
);
},
{
closed = 1;
nodes = (
"582 533 OFFCURVE",
"626 573 OFFCURVE",
"626 633 CURVE SMOOTH",
"626 677 OFFCURVE",
"593 710 OFFCURVE",
"541 710 CURVE SMOOTH",
"486 710 OFFCURVE",
"442 671 OFFCURVE",
"442 611 CURVE SMOOTH",
"442 566 OFFCURVE",
"476 533 OFFCURVE",
"527 533 CURVE SMOOTH"
);
}
);
width = 784;
},
{
associatedMasterId = "5DA6E103-6A94-47F2-987D-4952DB8EA68E";
color = -1;
layerId = "777D3F6A-5738-4102-992E-063F4DB5411C";
name = "Bold [133]";
paths = (
{
closed = 1;
nodes = (
"570 -16 OFFCURVE",
"697 95 OFFCURVE",
"739 305 CURVE SMOOTH",
"818 700 LINE",
"586 700 LINE",
"510 319 LINE SMOOTH",
"489 214 OFFCURVE",
"452 175 OFFCURVE",
"384 175 CURVE SMOOTH",
"310 175 OFFCURVE",
"276 220 OFFCURVE",
"296 319 CURVE SMOOTH",
"372 700 LINE",
"136 700 LINE",
"59 315 LINE SMOOTH",
"19 116 OFFCURVE",
"137 -16 OFFCURVE",
"355 -16 CURVE SMOOTH"
);
},
{
closed = 1;
nodes = (
"473 362 OFFCURVE",
"514 399 OFFCURVE",
"514 456 CURVE SMOOTH",
"514 497 OFFCURVE",
"483 528 OFFCURVE",
"434 528 CURVE SMOOTH",
"383 528 OFFCURVE",
"342 491 OFFCURVE",
"342 435 CURVE SMOOTH",
"342 393 OFFCURVE",
"374 362 OFFCURVE",
"421 362 CURVE SMOOTH"
);
},
{
closed = 1;
nodes = (
"510 544 OFFCURVE",
"551 581 OFFCURVE",
"551 638 CURVE SMOOTH",
"551 679 OFFCURVE",
"520 710 OFFCURVE",
"471 710 CURVE SMOOTH",
"420 710 OFFCURVE",
"379 673 OFFCURVE",
"379 617 CURVE SMOOTH",
"379 575 OFFCURVE",
"411 544 OFFCURVE",
"458 544 CURVE SMOOTH"
);
}
);
width = 784;
},
{
color = 3;
layerId = "C4221BDF-4AE8-4E40-821A-B2476087DE1A";
paths = (
{
closed = 1;
nodes = (
"546 -9 OFFCURVE",
"661 93 OFFCURVE",
"702 298 CURVE SMOOTH",
"782 700 LINE",
"670 700 LINE",
"591 306 LINE SMOOTH",
"561 158 OFFCURVE",
"490 93 OFFCURVE",
"373 93 CURVE SMOOTH",
"247 93 OFFCURVE",
"188 163 OFFCURVE",
"216 305 CURVE SMOOTH",
"295 700 LINE",
"181 700 LINE",
"102 304 LINE SMOOTH",
"64 112 OFFCURVE",
"166 -9 OFFCURVE",
"362 -9 CURVE SMOOTH"
);
},
{
closed = 1;
nodes = (
"425 594 OFFCURVE",
"452 620 OFFCURVE",
"452 657 CURVE SMOOTH",
"452 685 OFFCURVE",
"430 706 OFFCURVE",
"399 706 CURVE SMOOTH",
"366 706 OFFCURVE",
"340 681 OFFCURVE",
"340 644 CURVE SMOOTH",
"340 615 OFFCURVE",
"361 594 OFFCURVE",
"392 594 CURVE SMOOTH"
);
},
{
closed = 1;
nodes = (
"580 594 OFFCURVE",
"606 620 OFFCURVE",
"606 657 CURVE SMOOTH",
"606 685 OFFCURVE",
"584 706 OFFCURVE",
"553 706 CURVE SMOOTH",
"520 706 OFFCURVE",
"494 681 OFFCURVE",
"494 644 CURVE SMOOTH",
"494 615 OFFCURVE",
"516 594 OFFCURVE",
"546 594 CURVE SMOOTH"
);
}
);
width = 790;
},
{
associatedMasterId = "C4221BDF-4AE8-4E40-821A-B2476087DE1A";
color = -1;
layerId = "DD134B1D-81E9-439D-8248-BDDD744DF984";
name = "SemiBold [133]";
paths = (
{
closed = 1;
nodes = (
"546 -9 OFFCURVE",
"661 93 OFFCURVE",
"702 298 CURVE SMOOTH",
"782 700 LINE",
"670 700 LINE",
"591 306 LINE SMOOTH",
"561 158 OFFCURVE",
"490 93 OFFCURVE",
"373 93 CURVE SMOOTH",
"247 93 OFFCURVE",
"188 163 OFFCURVE",
"216 305 CURVE SMOOTH",
"295 700 LINE",
"181 700 LINE",
"102 304 LINE SMOOTH",
"64 112 OFFCURVE",
"166 -9 OFFCURVE",
"362 -9 CURVE SMOOTH"
);
},
{
closed = 1;
nodes = (
"477 461 OFFCURVE",
"503 487 OFFCURVE",
"503 524 CURVE SMOOTH",
"503 552 OFFCURVE",
"481 573 OFFCURVE",
"450 573 CURVE SMOOTH",
"417 573 OFFCURVE",
"391 548 OFFCURVE",
"391 511 CURVE SMOOTH",
"391 482 OFFCURVE",
"413 461 OFFCURVE",
"443 461 CURVE SMOOTH"
);
},
{
closed = 1;
nodes = (
"502 594 OFFCURVE",
"529 620 OFFCURVE",
"529 657 CURVE SMOOTH",
"529 685 OFFCURVE",
"507 706 OFFCURVE",
"476 706 CURVE SMOOTH",
"443 706 OFFCURVE",
"417 681 OFFCURVE",
"417 644 CURVE SMOOTH",
"417 615 OFFCURVE",
"438 594 OFFCURVE",
"469 594 CURVE SMOOTH"
);
}
);
width = 790;
}
);
leftKerningGroup = U;
leftMetricsKey = U;
rightKerningGroup = U;
rightMetricsKey = U;
},
{
glyphname = Udieresis.ss01.alt;
layers = (
{
color = -1;
layerId = UUID0;
paths = (
{
closed = 1;
nodes = (
"474 -3 OFFCURVE",
"576 53 OFFCURVE",
"634 174 CURVE",
"630 176 LINE",
"595 0 LINE",
"615 0 LINE",
"755 700 LINE",
"735 700 LINE",
"650 277 LINE SMOOTH",
"614 99 OFFCURVE",
"501 16 OFFCURVE",
"350 16 CURVE SMOOTH",
"191 16 OFFCURVE",
"117 108 OFFCURVE",
"153 290 CURVE SMOOTH",
"235 700 LINE",
"215 700 LINE",
"133 289 LINE SMOOTH",
"95 97 OFFCURVE",
"182 -3 OFFCURVE",
"348 -3 CURVE SMOOTH"
);
},
{
closed = 1;
nodes = (
"412 651 OFFCURVE",
"424 664 OFFCURVE",
"424 679 CURVE SMOOTH",
"424 692 OFFCURVE",
"412 703 OFFCURVE",
"399 703 CURVE SMOOTH",
"384 703 OFFCURVE",
"372 690 OFFCURVE",
"372 675 CURVE SMOOTH",
"372 662 OFFCURVE",
"384 651 OFFCURVE",
"397 651 CURVE SMOOTH"
);
},
{
closed = 1;
nodes = (
"576 651 OFFCURVE",
"588 664 OFFCURVE",
"588 679 CURVE SMOOTH",
"588 692 OFFCURVE",
"576 703 OFFCURVE",
"563 703 CURVE SMOOTH",
"548 703 OFFCURVE",
"536 690 OFFCURVE",
"536 675 CURVE SMOOTH",
"536 662 OFFCURVE",
"548 651 OFFCURVE",
"561 651 CURVE SMOOTH"
);
}
);
width = 800;
},
{
color = -1;
layerId = "5DA6E103-6A94-47F2-987D-4952DB8EA68E";
paths = (
{
closed = 1;
nodes = (
"370 -16 OFFCURVE",
"455 30 OFFCURVE",
"510 119 CURVE",
"486 164 LINE",
"453 0 LINE",
"682 0 LINE",
"822 700 LINE",
"586 700 LINE",
"508 310 LINE SMOOTH",
"488 211 OFFCURVE",
"435 175 OFFCURVE",
"374 175 CURVE SMOOTH",
"306 175 OFFCURVE",
"276 220 OFFCURVE",
"294 311 CURVE SMOOTH",
"372 700 LINE",
"136 700 LINE",
"57 305 LINE SMOOTH",
"17 105 OFFCURVE",
"99 -16 OFFCURVE",
"276 -16 CURVE SMOOTH"
);
},
{
closed = 1;
nodes = (
"440 533 OFFCURVE",
"484 573 OFFCURVE",
"484 633 CURVE SMOOTH",
"484 677 OFFCURVE",
"451 710 OFFCURVE",
"399 710 CURVE SMOOTH",
"344 710 OFFCURVE",
"300 671 OFFCURVE",
"300 611 CURVE SMOOTH",
"300 566 OFFCURVE",
"334 533 OFFCURVE",
"385 533 CURVE SMOOTH"
);
},
{
closed = 1;
nodes = (
"582 533 OFFCURVE",
"626 573 OFFCURVE",
"626 633 CURVE SMOOTH",
"626 677 OFFCURVE",
"593 710 OFFCURVE",
"541 710 CURVE SMOOTH",
"486 710 OFFCURVE",
"442 671 OFFCURVE",
"442 611 CURVE SMOOTH",
"442 566 OFFCURVE",
"476 533 OFFCURVE",
"527 533 CURVE SMOOTH"
);
}
);
width = 794;
},
{
associatedMasterId = "5DA6E103-6A94-47F2-987D-4952DB8EA68E";
color = -1;
layerId = "C543E0C3-A42B-4D79-91D6-EE426CF795C5";
name = "Bold [133]";
paths = (
{
closed = 1;
nodes = (
"370 -16 OFFCURVE",
"455 30 OFFCURVE",
"510 119 CURVE",
"486 164 LINE",
"453 0 LINE",
"682 0 LINE",
"822 700 LINE",
"586 700 LINE",
"508 310 LINE SMOOTH",
"488 211 OFFCURVE",
"435 175 OFFCURVE",
"374 175 CURVE SMOOTH",
"306 175 OFFCURVE",
"276 220 OFFCURVE",
"294 311 CURVE SMOOTH",
"372 700 LINE",
"136 700 LINE",
"57 305 LINE SMOOTH",
"17 105 OFFCURVE",
"99 -16 OFFCURVE",
"276 -16 CURVE SMOOTH"
);
},
{
closed = 1;
nodes = (
"473 362 OFFCURVE",
"514 399 OFFCURVE",
"514 456 CURVE SMOOTH",
"514 497 OFFCURVE",
"483 528 OFFCURVE",
"434 528 CURVE SMOOTH",
"383 528 OFFCURVE",
"342 491 OFFCURVE",
"342 435 CURVE SMOOTH",
"342 393 OFFCURVE",
"374 362 OFFCURVE",
"421 362 CURVE SMOOTH"
);
},
{
closed = 1;
nodes = (
"510 544 OFFCURVE",
"551 581 OFFCURVE",
"551 638 CURVE SMOOTH",
"551 679 OFFCURVE",
"520 710 OFFCURVE",
"471 710 CURVE SMOOTH",
"420 710 OFFCURVE",
"379 673 OFFCURVE",
"379 617 CURVE SMOOTH",
"379 575 OFFCURVE",
"411 544 OFFCURVE",
"458 544 CURVE SMOOTH"
);
}
);
width = 794;
},
{
color = 3;
layerId = "C4221BDF-4AE8-4E40-821A-B2476087DE1A";
paths = (
{
closed = 1;
nodes = (
"437 -9 OFFCURVE",
"522 37 OFFCURVE",
"578 119 CURVE",
"565 170 LINE",
"531 0 LINE",
"641 0 LINE",
"781 700 LINE",
"667 700 LINE",
"586 295 LINE SMOOTH",
"558 155 OFFCURVE",
"469 93 OFFCURVE",
"359 93 CURVE SMOOTH",
"240 93 OFFCURVE",
"187 162 OFFCURVE",
"215 300 CURVE SMOOTH",
"295 700 LINE",
"181 700 LINE",
"102 304 LINE SMOOTH",
"62 105 OFFCURVE",
"160 -9 OFFCURVE",
"327 -9 CURVE SMOOTH"
);
},
{
closed = 1;
nodes = (
"424 594 OFFCURVE",
"451 620 OFFCURVE",
"451 657 CURVE SMOOTH",
"451 685 OFFCURVE",
"429 706 OFFCURVE",
"398 706 CURVE SMOOTH",
"365 706 OFFCURVE",
"339 681 OFFCURVE",
"339 644 CURVE SMOOTH",
"339 615 OFFCURVE",
"360 594 OFFCURVE",
"391 594 CURVE SMOOTH"
);
},
{
closed = 1;
nodes = (
"579 594 OFFCURVE",
"605 620 OFFCURVE",
"605 657 CURVE SMOOTH",
"605 685 OFFCURVE",
"583 706 OFFCURVE",
"552 706 CURVE SMOOTH",
"519 706 OFFCURVE",
"493 681 OFFCURVE",
"493 644 CURVE SMOOTH",
"493 615 OFFCURVE",
"515 594 OFFCURVE",
"545 594 CURVE SMOOTH"
);
}
);
width = 794;
},
{
associatedMasterId = "C4221BDF-4AE8-4E40-821A-B2476087DE1A";
color = -1;
layerId = "AF0B4BCA-857C-4402-B337-6141E48160D5";
name = "SemiBold [133]";
paths = (
{
closed = 1;
nodes = (
"437 -9 OFFCURVE",
"522 37 OFFCURVE",
"578 119 CURVE",
"565 170 LINE",
"531 0 LINE",
"641 0 LINE",
"781 700 LINE",
"667 700 LINE",
"586 295 LINE SMOOTH",
"558 155 OFFCURVE",
"469 93 OFFCURVE",
"359 93 CURVE SMOOTH",
"240 93 OFFCURVE",
"187 162 OFFCURVE",
"215 300 CURVE SMOOTH",
"295 700 LINE",
"181 700 LINE",
"102 304 LINE SMOOTH",
"62 105 OFFCURVE",
"160 -9 OFFCURVE",
"327 -9 CURVE SMOOTH"
);
},
{
closed = 1;
nodes = (
"475 461 OFFCURVE",
"501 487 OFFCURVE",
"501 524 CURVE SMOOTH",
"501 552 OFFCURVE",
"479 573 OFFCURVE",
"448 573 CURVE SMOOTH",
"415 573 OFFCURVE",
"389 548 OFFCURVE",
"389 511 CURVE SMOOTH",
"389 482 OFFCURVE",
"411 461 OFFCURVE",
"441 461 CURVE SMOOTH"
);
},
{
closed = 1;
nodes = (
"500 594 OFFCURVE",
"527 620 OFFCURVE",
"527 657 CURVE SMOOTH",
"527 685 OFFCURVE",
"505 706 OFFCURVE",
"474 706 CURVE SMOOTH",
"441 706 OFFCURVE",
"415 681 OFFCURVE",
"415 644 CURVE SMOOTH",
"415 615 OFFCURVE",
"436 594 OFFCURVE",
"467 594 CURVE SMOOTH"
);
}
);
width = 794;
}
);
leftKerningGroup = U;
leftMetricsKey = U;
rightKerningGroup = H;
rightMetricsKey = H;
},
{
glyphname = Aogonek.loclNAV;
layers = (
{
anchors = (
{
name = top;
position = "{432, 700}";
},
{
name = topleft;
position = "{194, 700}";
}
);
layerId = UUID0;
paths = (
{
closed = 1;
nodes = (
"-19 0 LINE",
"435 684 LINE",
"426 684 LINE",
"606 0 LINE",
"627 0 LINE",
"442 700 LINE",
"422 700 LINE",
"-43 0 LINE"
);
},
{
closed = 1;
nodes = (
"307 -213 OFFCURVE",
"335 -204 OFFCURVE",
"358 -186 CURVE",
"350 -169 LINE",
"330 -185 OFFCURVE",
"304 -194 OFFCURVE",
"279 -194 CURVE SMOOTH",
"243 -194 OFFCURVE",
"222 -176 OFFCURVE",
"222 -142 CURVE SMOOTH",
"222 -93 OFFCURVE",
"268 -50 OFFCURVE",
"360 -7 CURVE",
"353 9 LINE",
"246 -39 OFFCURVE",
"202 -88 OFFCURVE",
"202 -144 CURVE SMOOTH",
"202 -187 OFFCURVE",
"232 -213 OFFCURVE",
"278 -213 CURVE SMOOTH"
);
},
{
closed = 1;
nodes = (
"561 211 LINE",
"555 230 LINE",
"120 230 LINE",
"106 211 LINE"
);
}
);
width = 688;
},
{
anchors = (
{
name = top;
position = "{457, 700}";
},
{
name = topleft;
position = "{200, 700}";
}
);
layerId = "C4221BDF-4AE8-4E40-821A-B2476087DE1A";
paths = (
{
closed = 1;
nodes = (
"67 0 LINE",
"471 639 LINE",
"425 639 LINE",
"576 0 LINE",
"690 0 LINE",
"514 700 LINE",
"401 700 LINE",
"-56 0 LINE"
);
},
{
closed = 1;
nodes = (
"331 -226 OFFCURVE",
"363 -217 OFFCURVE",
"390 -203 CURVE",
"377 -147 LINE",
"358 -157 OFFCURVE",
"333 -163 OFFCURVE",
"313 -163 CURVE SMOOTH",
"281 -163 OFFCURVE",
"261 -148 OFFCURVE",
"261 -123 CURVE SMOOTH",
"261 -87 OFFCURVE",
"303 -51 OFFCURVE",
"380 -24 CURVE",
"363 27 LINE",
"246 -10 OFFCURVE",
"182 -70 OFFCURVE",
"182 -136 CURVE SMOOTH",
"182 -193 OFFCURVE",
"229 -226 OFFCURVE",
"296 -226 CURVE SMOOTH"
);
},
{
closed = 1;
nodes = (
"568 168 LINE",
"553 260 LINE",
"167 260 LINE",
"118 168 LINE"
);
}
);
width = 740;
},
{
anchors = (
{
name = top;
position = "{488, 700}";
},
{
name = topleft;
position = "{206, 700}";
}
);
layerId = "5DA6E103-6A94-47F2-987D-4952DB8EA68E";
paths = (
{
closed = 1;
nodes = (
"175 0 LINE",
"514 591 LINE",
"422 591 LINE",
"535 0 LINE",
"770 0 LINE",
"604 700 LINE",
"372 700 LINE",
"-74 0 LINE"
);
},
{
closed = 1;
nodes = (
"371 -240 OFFCURVE",
"409 -230 OFFCURVE",
"436 -217 CURVE",
"427 -124 LINE",
"411 -131 OFFCURVE",
"389 -138 OFFCURVE",
"369 -138 CURVE SMOOTH",
"335 -138 OFFCURVE",
"321 -120 OFFCURVE",
"321 -103 CURVE SMOOTH",
"321 -75 OFFCURVE",
"361 -47 OFFCURVE",
"434 -29 CURVE",
"407 37 LINE",
"279 15 OFFCURVE",
"182 -54 OFFCURVE",
"182 -136 CURVE SMOOTH",
"182 -200 OFFCURVE",
"240 -240 OFFCURVE",
"328 -240 CURVE SMOOTH"
);
},
{
closed = 1;
nodes = (
"574 122 LINE",
"548 292 LINE",
"226 292 LINE",
"132 122 LINE"
);
}
);
width = 806;
}
);
},
{
glyphname = A.ss01;
layers = (
{
anchors = (
{
name = bottom;
position = "{350, 0}";
},
{
name = ogonek;
position = "{625, 0}";
},
{
name = top;
position = "{490, 700}";
},
{
name = topleft;
position = "{179, 700}";
}
);
color = -1;
layerId = UUID0;
paths = (
{
closed = 1;
nodes = (
"96 0 LINE",
"177 406 LINE SMOOTH",
"214 594 OFFCURVE",
"311 684 OFFCURVE",
"477 684 CURVE SMOOTH",
"644 684 OFFCURVE",
"722 585 OFFCURVE",
"686 405 CURVE SMOOTH",
"605 0 LINE",
"625 0 LINE",
"706 407 LINE SMOOTH",
"743 593 OFFCURVE",
"657 703 OFFCURVE",
"477 703 CURVE SMOOTH",
"302 703 OFFCURVE",
"197 608 OFFCURVE",
"157 408 CURVE SMOOTH",
"76 0 LINE"
);
},
{
closed = 1;
nodes = (
"662 231 LINE",
"666 250 LINE",
"140 250 LINE",
"136 231 LINE"
);
}
);
width = 804;
},
{
anchors = (
{
name = bottom;
position = "{341, 0}";
},
{
name = ogonek;
position = "{686, 0}";
},
{
name = top;
position = "{477, 700}";
},
{
name = topleft;
position = "{136, 700}";
}
);
color = -1;
layerId = "5DA6E103-6A94-47F2-987D-4952DB8EA68E";
paths = (
{
closed = 1;
nodes = (
"228 0 LINE",
"306 391 LINE SMOOTH",
"325 486 OFFCURVE",
"371 525 OFFCURVE",
"439 525 CURVE SMOOTH",
"511 525 OFFCURVE",
"546 480 OFFCURVE",
"526 381 CURVE SMOOTH",
"450 0 LINE",
"686 0 LINE",
"759 365 LINE SMOOTH",
"803 584 OFFCURVE",
"679 716 OFFCURVE",
"463 716 CURVE SMOOTH",
"256 716 OFFCURVE",
"117 605 OFFCURVE",
"75 395 CURVE SMOOTH",
"-4 0 LINE"
);
},
{
closed = 1;
nodes = (
"562 141 LINE",
"598 319 LINE",
"208 319 LINE",
"172 141 LINE"
);
}
);
width = 792;
},
{
anchors = (
{
name = bottom;
position = "{346, 0}";
},
{
name = ogonek;
position = "{652, 0}";
},
{
name = top;
position = "{486, 700}";
},
{
name = topleft;
position = "{160, 700}";
}
);
color = -1;
layerId = "C4221BDF-4AE8-4E40-821A-B2476087DE1A";
paths = (
{
closed = 1;
nodes = (
"153 0 LINE",
"233 400 LINE SMOOTH",
"262 546 OFFCURVE",
"337 607 OFFCURVE",
"460 607 CURVE SMOOTH",
"586 607 OFFCURVE",
"644 535 OFFCURVE",
"616 394 CURVE SMOOTH",
"538 0 LINE",
"652 0 LINE",
"729 387 LINE SMOOTH",
"769 589 OFFCURVE",
"664 709 OFFCURVE",
"471 709 CURVE SMOOTH",
"282 709 OFFCURVE",
"162 610 OFFCURVE",
"121 402 CURVE SMOOTH",
"41 0 LINE"
);
},
{
closed = 1;
nodes = (
"618 186 LINE",
"637 285 LINE",
"171 285 LINE",
"152 186 LINE"
);
}
);
width = 799;
}
);
leftKerningGroup = A.ss01;
leftMetricsKey = U;
rightKerningGroup = A.ss01;
rightMetricsKey = "=|";
},
{
color = 4;
glyphname = AE.ss01;
layers = (
{
anchors = (
{
name = bottom;
position = "{472, 0}";
},
{
name = top;
position = "{612, 700}";
}
);
layerId = UUID0;
paths = (
{
closed = 1;
nodes = (
"965 0 LINE",
"969 19 LINE",
"523 19 LINE",
"588 346 LINE",
"974 346 LINE",
"978 365 LINE",
"592 365 LINE",
"655 681 LINE",
"1086 681 LINE",
"1090 700 LINE",
"639 700 LINE",
"499 0 LINE"
);
},
{
closed = 1;
nodes = (
"558 241 LINE",
"561 260 LINE",
"129 260 LINE",
"126 241 LINE"
);
},
{
closed = 1;
nodes = (
"83 0 LINE",
"164 404 LINE SMOOTH",
"199 580 OFFCURVE",
"308 681 OFFCURVE",
"465 681 CURVE SMOOTH",
"645 681 LINE",
"649 700 LINE",
"467 700 LINE SMOOTH",
"299 700 OFFCURVE",
"182 593 OFFCURVE",
"144 406 CURVE SMOOTH",
"63 0 LINE"
);
}
);
width = 1059;
},
{
anchors = (
{
name = bottom;
position = "{493, 0}";
},
{
name = top;
position = "{633, 700}";
}
);
layerId = "5DA6E103-6A94-47F2-987D-4952DB8EA68E";
paths = (
{
closed = 1;
nodes = (
"1011 0 LINE",
"1047 178 LINE",
"697 178 LINE",
"715 270 LINE",
"1011 270 LINE",
"1045 440 LINE",
"749 440 LINE",
"766 522 LINE",
"1103 522 LINE",
"1138 700 LINE",
"569 700 LINE",
"429 0 LINE"
);
},
{
closed = 1;
nodes = (
"575 148 LINE",
"610 326 LINE",
"205 326 LINE",
"170 148 LINE"
);
},
{
closed = 1;
nodes = (
"228 0 LINE",
"300 361 LINE SMOOTH",
"320 460 OFFCURVE",
"374 509 OFFCURVE",
"464 509 CURVE SMOOTH",
"647 509 LINE",
"685 700 LINE",
"465 700 LINE SMOOTH",
"245 700 OFFCURVE",
"111 595 OFFCURVE",
"69 385 CURVE SMOOTH",
"-8 0 LINE"
);
}
);
width = 1100;
},
{
anchors = (
{
name = bottom;
position = "{614, 0}";
},
{
name = top;
position = "{614, 700}";
}
);
associatedMasterId = "5DA6E103-6A94-47F2-987D-4952DB8EA68E";
layerId = "F23F1876-33D7-4C08-A964-9050C707DFF6";
name = "Oct 13 17, 08:26";
paths = (
{
closed = 1;
nodes = (
"918 -16 OFFCURVE",
"1030 8 OFFCURVE",
"1104 46 CURVE",
"1035 217 LINE",
"973 184 OFFCURVE",
"886 164 OFFCURVE",
"817 164 CURVE SMOOTH",
"717 164 OFFCURVE",
"679 186 OFFCURVE",
"679 218 CURVE SMOOTH",
"679 247 OFFCURVE",
"703 266 OFFCURVE",
"757 266 CURVE SMOOTH",
"978 266 LINE",
"978 440 LINE",
"773 440 LINE SMOOTH",
"724 440 OFFCURVE",
"708 457 OFFCURVE",
"708 483 CURVE SMOOTH",
"708 515 OFFCURVE",
"745 536 OFFCURVE",
"831 536 CURVE SMOOTH",
"892 536 OFFCURVE",
"953 525 OFFCURVE",
"1020 498 CURVE",
"1084 670 LINE",
"1014 698 OFFCURVE",
"919 716 OFFCURVE",
"822 716 CURVE SMOOTH",
"579 716 OFFCURVE",
"470 612 OFFCURVE",
"470 498 CURVE SMOOTH",
"470 409 OFFCURVE",
"538 333 OFFCURVE",
"680 333 CURVE",
"675 385 LINE",
"527 385 OFFCURVE",
"441 305 OFFCURVE",
"441 202 CURVE SMOOTH",
"441 75 OFFCURVE",
"566 -16 OFFCURVE",
"808 -16 CURVE SMOOTH"
);
},
{
closed = 1;
nodes = (
"584 151 LINE",
"584 329 LINE",
"341 329 LINE",
"194 329 LINE",
"194 151 LINE"
);
},
{
closed = 1;
nodes = (
"282 0 LINE",
"282 393 LINE SMOOTH",
"282 483 OFFCURVE",
"327 525 OFFCURVE",
"391 525 CURVE SMOOTH",
"448 525 OFFCURVE",
"482 510 OFFCURVE",
"512 478 CURVE",
"641 625 LINE",
"580 685 OFFCURVE",
"494 716 OFFCURVE",
"391 716 CURVE SMOOTH",
"187 716 OFFCURVE",
"46 592 OFFCURVE",
"46 373 CURVE SMOOTH",
"46 0 LINE"
);
}
);
width = 1117;
},
{
anchors = (
{
name = bottom;
position = "{558, 0}";
},
{
name = top;
position = "{558, 700}";
}
);
associatedMasterId = UUID0;
layerId = "94A43260-883B-451A-A07C-D84E8FD2C8F2";
name = "Oct 13 17, 08:26";
paths = (
{
closed = 1;
nodes = (
"868 -3 OFFCURVE",
"965 32 OFFCURVE",
"1018 92 CURVE",
"1003 105 LINE",
"952 49 OFFCURVE",
"861 16 OFFCURVE",
"753 16 CURVE SMOOTH",
"591 16 OFFCURVE",
"513 85 OFFCURVE",
"513 185 CURVE SMOOTH",
"513 295 OFFCURVE",
"605 346 OFFCURVE",
"734 346 CURVE SMOOTH",
"897 346 LINE",
"897 365 LINE",
"733 365 LINE SMOOTH",
"615 365 OFFCURVE",
"543 421 OFFCURVE",
"543 520 CURVE SMOOTH",
"543 613 OFFCURVE",
"618 684 OFFCURVE",
"768 684 CURVE SMOOTH",
"845 684 OFFCURVE",
"915 664 OFFCURVE",
"974 627 CURVE",
"984 643 LINE",
"930 681 OFFCURVE",
"849 703 OFFCURVE",
"767 703 CURVE SMOOTH",
"606 703 OFFCURVE",
"523 621 OFFCURVE",
"523 521 CURVE SMOOTH",
"523 416 OFFCURVE",
"598 349 OFFCURVE",
"728 349 CURVE",
"724 362 LINE",
"593 362 OFFCURVE",
"493 301 OFFCURVE",
"493 184 CURVE SMOOTH",
"493 76 OFFCURVE",
"580 -3 OFFCURVE",
"752 -3 CURVE SMOOTH"
);
},
{
closed = 1;
nodes = (
"513 241 LINE",
"513 260 LINE",
"130 260 LINE",
"130 241 LINE"
);
},
{
closed = 1;
nodes = (
"136 0 LINE",
"136 409 LINE SMOOTH",
"136 593 OFFCURVE",
"232 684 OFFCURVE",
"381 684 CURVE SMOOTH",
"466 684 OFFCURVE",
"518 664 OFFCURVE",
"576 627 CURVE",
"591 639 LINE",
"528 680 OFFCURVE",
"472 703 OFFCURVE",
"381 703 CURVE SMOOTH",
"224 703 OFFCURVE",
"116 605 OFFCURVE",
"116 407 CURVE SMOOTH",
"116 0 LINE"
);
}
);
width = 1054;
},
{
anchors = (
{
name = bottom;
position = "{541, 0}";
},
{
name = top;
position = "{541, 700}";
}
);
associatedMasterId = UUID0;
layerId = "E7647B47-0C7D-40EE-9D36-B58B45A9C12F";
name = "Oct 16 17, 08:13";
paths = (
{
closed = 1;
nodes = (
"585 241 LINE",
"585 260 LINE",
"130 260 LINE",
"130 241 LINE"
);
},
{
closed = 1;
nodes = (
"136 0 LINE",
"136 409 LINE SMOOTH",
"136 593 OFFCURVE",
"232 684 OFFCURVE",
"381 684 CURVE SMOOTH",
"469 684 OFFCURVE",
"522 663 OFFCURVE",
"583 623 CURVE",
"583 643 LINE",
"523 681 OFFCURVE",
"469 703 OFFCURVE",
"381 703 CURVE SMOOTH",
"224 703 OFFCURVE",
"116 605 OFFCURVE",
"116 407 CURVE SMOOTH",
"116 0 LINE"
);
},
{
closed = 1;
nodes = (
"1039 0 LINE",
"1039 19 LINE",
"593 19 LINE",
"593 346 LINE",
"979 346 LINE",
"979 365 LINE",
"593 365 LINE",
"593 681 LINE",
"1024 681 LINE",
"1024 700 LINE",
"573 700 LINE",
"573 0 LINE"
);
}
);
width = 1081;
},
{
anchors = (
{
name = bottom;
position = "{559, 0}";
},
{
name = top;
position = "{559, 700}";
}
);
associatedMasterId = "5DA6E103-6A94-47F2-987D-4952DB8EA68E";
layerId = "9FAC024C-61BF-455C-B547-52688B56F816";
name = "Oct 16 17, 08:13";
paths = (
{
closed = 1;
nodes = (
"282 0 LINE",
"282 393 LINE SMOOTH",
"282 528 OFFCURVE",
"397 571 OFFCURVE",
"508 474 CURVE",
"601 604 LINE",
"531 681 OFFCURVE",
"445 715 OFFCURVE",
"361 715 CURVE SMOOTH",
"198 715 OFFCURVE",
"46 583 OFFCURVE",
"46 376 CURVE SMOOTH",
"46 0 LINE"
);
},
{
closed = 1;
nodes = (
"562 151 LINE",
"562 329 LINE",
"341 329 LINE",
"194 329 LINE",
"194 151 LINE"
);
},
{
closed = 1;
nodes = (
"1077 0 LINE",
"1077 178 LINE",
"727 178 LINE",
"727 270 LINE",
"1023 270 LINE",
"1023 440 LINE",
"727 440 LINE",
"727 522 LINE",
"1064 522 LINE",
"1064 700 LINE",
"495 700 LINE",
"495 0 LINE"
);
}
);
width = 1117;
},
{
anchors = (
{
name = bottom;
position = "{481, 0}";
},
{
name = top;
position = "{621, 700}";
}
);
layerId = "C4221BDF-4AE8-4E40-821A-B2476087DE1A";
paths = (
{
closed = 1;
nodes = (
"985 0 LINE",
"1004 97 LINE",
"600 97 LINE",
"643 309 LINE",
"990 309 LINE",
"1008 402 LINE",
"661 402 LINE",
"701 603 LINE",
"1091 603 LINE",
"1111 700 LINE",
"608 700 LINE",
"468 0 LINE"
);
},
{
closed = 1;
nodes = (
"564 196 LINE",
"583 292 LINE",
"163 292 LINE",
"144 196 LINE"
);
},
{
closed = 1;
nodes = (
"147 0 LINE",
"223 384 LINE SMOOTH",
"251 522 OFFCURVE",
"335 597 OFFCURVE",
"462 597 CURVE SMOOTH",
"644 597 LINE",
"665 700 LINE",
"466 700 LINE SMOOTH",
"275 700 OFFCURVE",
"150 593 OFFCURVE",
"111 395 CURVE SMOOTH",
"32 0 LINE"
);
}
);
width = 1087;
}
);
leftKerningGroup = A;
rightKerningGroup = E;
},
{
glyphname = E.ss01;
layers = (
{
anchors = (
{
name = bottom;
position = "{282, 0}";
},
{
name = ogonek;
position = "{509, 0}";
},
{
name = top;
position = "{422, 700}";
},
{
name = topleft;
position = "{154, 700}";
}
);
color = -1;
guideLines = (
{
angle = 90;
position = "{764, 250}";
}
);
layerId = UUID0;
paths = (
{
closed = 1;
nodes = (
"396 -3 OFFCURVE",
"500 33 OFFCURVE",
"555 91 CURVE",
"541 106 LINE",
"488 50 OFFCURVE",
"391 16 OFFCURVE",
"282 16 CURVE SMOOTH",
"143 16 OFFCURVE",
"66 68 OFFCURVE",
"66 161 CURVE SMOOTH",
"66 274 OFFCURVE",
"164 346 OFFCURVE",
"321 346 CURVE SMOOTH",
"484 346 LINE",
"488 365 LINE",
"324 365 LINE SMOOTH",
"222 365 OFFCURVE",
"163 414 OFFCURVE",
"163 496 CURVE SMOOTH",
"163 609 OFFCURVE",
"264 684 OFFCURVE",
"413 684 CURVE SMOOTH",
"494 684 OFFCURVE",
"559 666 OFFCURVE",
"617 627 CURVE",
"629 644 LINE",
"573 683 OFFCURVE",
"498 703 OFFCURVE",
"414 703 CURVE SMOOTH",
"253 703 OFFCURVE",
"144 621 OFFCURVE",
"144 494 CURVE SMOOTH",
"144 405 OFFCURVE",
"209 349 OFFCURVE",
"314 349 CURVE",
"312 362 LINE",
"151 362 OFFCURVE",
"46 283 OFFCURVE",
"46 159 CURVE SMOOTH",
"46 57 OFFCURVE",
"132 -3 OFFCURVE",
"279 -3 CURVE SMOOTH"
);
}
);
width = 614;
},
{
anchors = (
{
name = bottom;
position = "{320, 0}";
},
{
name = ogonek;
position = "{590, 0}";
},
{
name = top;
position = "{460, 700}";
},
{
name = topleft;
position = "{82, 700}";
}
);
color = -1;
guideLines = (
{
angle = 90;
position = "{598, 239}";
}
);
layerId = "5DA6E103-6A94-47F2-987D-4952DB8EA68E";
paths = (
{
closed = 1;
nodes = (
"458 -16 OFFCURVE",
"575 9 OFFCURVE",
"651 48 CURVE",
"601 216 LINE",
"543 185 OFFCURVE",
"462 164 OFFCURVE",
"383 164 CURVE SMOOTH",
"288 164 OFFCURVE",
"252 183 OFFCURVE",
"252 215 CURVE SMOOTH",
"252 248 OFFCURVE",
"285 266 OFFCURVE",
"330 266 CURVE SMOOTH",
"561 266 LINE",
"596 440 LINE",
"404 440 LINE SMOOTH",
"355 440 OFFCURVE",
"334 453 OFFCURVE",
"334 475 CURVE SMOOTH",
"334 511 OFFCURVE",
"372 536 OFFCURVE",
"459 536 CURVE SMOOTH",
"519 536 OFFCURVE",
"594 527 OFFCURVE",
"660 498 CURVE",
"735 667 LINE",
"676 697 OFFCURVE",
"583 716 OFFCURVE",
"475 716 CURVE SMOOTH",
"246 716 OFFCURVE",
"98 620 OFFCURVE",
"98 471 CURVE SMOOTH",
"98 400 OFFCURVE",
"154 335 OFFCURVE",
"277 335 CURVE",
"282 387 LINE",
"126 387 OFFCURVE",
"10 311 OFFCURVE",
"10 180 CURVE SMOOTH",
"10 57 OFFCURVE",
"134 -16 OFFCURVE",
"345 -16 CURVE SMOOTH"
);
}
);
width = 695;
},
{
anchors = (
{
name = bottom;
position = "{301, 0}";
},
{
name = ogonek;
position = "{547, 0}";
},
{
name = top;
position = "{441, 700}";
},
{
name = topleft;
position = "{125, 700}";
}
);
color = -1;
layerId = "C4221BDF-4AE8-4E40-821A-B2476087DE1A";
paths = (
{
closed = 1;
nodes = (
"425 -9 OFFCURVE",
"535 21 OFFCURVE",
"603 67 CURVE",
"567 157 LINE",
"512 116 OFFCURVE",
"422 89 OFFCURVE",
"323 89 CURVE SMOOTH",
"203 89 OFFCURVE",
"147 126 OFFCURVE",
"147 191 CURVE SMOOTH",
"147 263 OFFCURVE",
"215 305 OFFCURVE",
"321 305 CURVE SMOOTH",
"518 305 LINE",
"538 403 LINE",
"355 403 LINE SMOOTH",
"281 403 OFFCURVE",
"241 433 OFFCURVE",
"241 486 CURVE SMOOTH",
"241 561 OFFCURVE",
"313 611 OFFCURVE",
"435 611 CURVE SMOOTH",
"507 611 OFFCURVE",
"576 599 OFFCURVE",
"638 564 CURVE",
"677 655 LINE",
"620 690 OFFCURVE",
"537 709 OFFCURVE",
"443 709 CURVE SMOOTH",
"252 709 OFFCURVE",
"126 621 OFFCURVE",
"126 485 CURVE SMOOTH",
"126 402 OFFCURVE",
"184 344 OFFCURVE",
"269 344 CURVE",
"270 378 LINE",
"133 378 OFFCURVE",
"32 294 OFFCURVE",
"32 178 CURVE SMOOTH",
"32 61 OFFCURVE",
"141 -9 OFFCURVE",
"310 -9 CURVE SMOOTH"
);
}
);
width = 649;
}
);
leftKerningGroup = E.ss01;
rightKerningGroup = E.ss01;
},
{
glyphname = Eogonek.ss01;
layers = (
{
color = -1;
layerId = UUID0;
paths = (
{
closed = 1;
nodes = (
"439 -213 OFFCURVE",
"467 -204 OFFCURVE",
"490 -186 CURVE",
"482 -169 LINE",
"462 -185 OFFCURVE",
"436 -194 OFFCURVE",
"411 -194 CURVE SMOOTH",
"375 -194 OFFCURVE",
"354 -173 OFFCURVE",
"354 -140 CURVE SMOOTH",
"354 -66 OFFCURVE",
"430 -4 OFFCURVE",
"555 91 CURVE",
"541 106 LINE",
"484 53 OFFCURVE",
"391 16 OFFCURVE",
"282 16 CURVE SMOOTH",
"143 16 OFFCURVE",
"66 68 OFFCURVE",
"66 161 CURVE SMOOTH",
"66 274 OFFCURVE",
"164 346 OFFCURVE",
"321 346 CURVE SMOOTH",
"484 346 LINE",
"488 365 LINE",
"324 365 LINE SMOOTH",
"222 365 OFFCURVE",
"163 414 OFFCURVE",
"163 496 CURVE SMOOTH",
"163 609 OFFCURVE",
"264 684 OFFCURVE",
"413 684 CURVE SMOOTH",
"494 684 OFFCURVE",
"559 666 OFFCURVE",
"617 627 CURVE",
"629 644 LINE",
"573 683 OFFCURVE",
"498 703 OFFCURVE",
"414 703 CURVE SMOOTH",
"253 703 OFFCURVE",
"144 621 OFFCURVE",
"144 494 CURVE SMOOTH",
"144 405 OFFCURVE",
"209 349 OFFCURVE",
"314 349 CURVE",
"312 362 LINE",
"151 362 OFFCURVE",
"46 283 OFFCURVE",
"46 159 CURVE SMOOTH",
"46 57 OFFCURVE",
"132 -3 OFFCURVE",
"279 -3 CURVE SMOOTH",
"340 -3 OFFCURVE",
"402 7 OFFCURVE",
"452 26 CURVE",
"461 40 LINE",
"372 -32 OFFCURVE",
"334 -82 OFFCURVE",
"334 -142 CURVE SMOOTH",
"334 -184 OFFCURVE",
"364 -213 OFFCURVE",
"409 -213 CURVE SMOOTH"
);
}
);
width = 614;
},
{
color = -1;
layerId = "5DA6E103-6A94-47F2-987D-4952DB8EA68E";
paths = (
{
closed = 1;
nodes = (
"507 -240 OFFCURVE",
"545 -230 OFFCURVE",
"572 -217 CURVE",
"563 -124 LINE",
"547 -131 OFFCURVE",
"525 -138 OFFCURVE",
"503 -138 CURVE SMOOTH",
"475 -138 OFFCURVE",
"457 -122 OFFCURVE",
"457 -97 CURVE SMOOTH",
"457 -58 OFFCURVE",
"493 -17 OFFCURVE",
"651 48 CURVE",
"601 216 LINE",
"543 185 OFFCURVE",
"462 164 OFFCURVE",
"383 164 CURVE SMOOTH",
"288 164 OFFCURVE",
"252 183 OFFCURVE",
"252 215 CURVE SMOOTH",
"252 248 OFFCURVE",
"285 266 OFFCURVE",
"330 266 CURVE SMOOTH",
"561 266 LINE",
"596 440 LINE",
"404 440 LINE SMOOTH",
"355 440 OFFCURVE",
"334 453 OFFCURVE",
"334 475 CURVE SMOOTH",
"334 511 OFFCURVE",
"372 536 OFFCURVE",
"459 536 CURVE SMOOTH",
"519 536 OFFCURVE",
"594 527 OFFCURVE",
"660 498 CURVE",
"735 667 LINE",
"676 697 OFFCURVE",
"583 716 OFFCURVE",
"475 716 CURVE SMOOTH",
"246 716 OFFCURVE",
"98 620 OFFCURVE",
"98 471 CURVE SMOOTH",
"98 400 OFFCURVE",
"154 335 OFFCURVE",
"277 335 CURVE",
"282 387 LINE",
"126 387 OFFCURVE",
"10 311 OFFCURVE",
"10 180 CURVE SMOOTH",
"10 57 OFFCURVE",
"134 -16 OFFCURVE",
"345 -16 CURVE SMOOTH",
"380 -16 OFFCURVE",
"415 -14 OFFCURVE",
"469 -7 CURVE",
"454 24 LINE",
"375 -10 OFFCURVE",
"318 -62 OFFCURVE",
"318 -132 CURVE SMOOTH",
"318 -200 OFFCURVE",
"376 -240 OFFCURVE",
"464 -240 CURVE SMOOTH"
);
}
);
width = 695;
},
{
color = -1;
layerId = "C4221BDF-4AE8-4E40-821A-B2476087DE1A";
paths = (
{
closed = 1;
nodes = (
"476 -226 OFFCURVE",
"507 -217 OFFCURVE",
"534 -203 CURVE",
"521 -147 LINE",
"502 -157 OFFCURVE",
"478 -163 OFFCURVE",
"455 -163 CURVE SMOOTH",
"425 -163 OFFCURVE",
"405 -148 OFFCURVE",
"405 -121 CURVE SMOOTH",
"405 -77 OFFCURVE",
"454 -22 OFFCURVE",
"603 66 CURVE",
"567 157 LINE",
"512 116 OFFCURVE",
"422 89 OFFCURVE",
"323 89 CURVE SMOOTH",
"203 89 OFFCURVE",
"147 126 OFFCURVE",
"147 191 CURVE SMOOTH",
"147 263 OFFCURVE",
"215 305 OFFCURVE",
"321 305 CURVE SMOOTH",
"518 305 LINE",
"538 403 LINE",
"355 403 LINE SMOOTH",
"281 403 OFFCURVE",
"241 433 OFFCURVE",
"241 486 CURVE SMOOTH",
"241 561 OFFCURVE",
"313 611 OFFCURVE",
"435 611 CURVE SMOOTH",
"507 611 OFFCURVE",
"576 599 OFFCURVE",
"638 564 CURVE",
"677 655 LINE",
"620 690 OFFCURVE",
"537 709 OFFCURVE",
"443 709 CURVE SMOOTH",
"252 709 OFFCURVE",
"126 621 OFFCURVE",
"126 485 CURVE SMOOTH",
"126 402 OFFCURVE",
"184 344 OFFCURVE",
"269 344 CURVE",
"270 378 LINE",
"133 378 OFFCURVE",
"32 294 OFFCURVE",
"32 178 CURVE SMOOTH",
"32 61 OFFCURVE",
"141 -9 OFFCURVE",
"310 -9 CURVE SMOOTH",
"359 -9 OFFCURVE",
"407 -4 OFFCURVE",
"451 6 CURVE",
"445 22 LINE",
"367 -20 OFFCURVE",
"326 -72 OFFCURVE",
"326 -134 CURVE SMOOTH",
"326 -193 OFFCURVE",
"373 -226 OFFCURVE",
"438 -226 CURVE SMOOTH"
);
}
);
width = 649;
}
);
leftKerningGroup = E.ss01;
leftMetricsKey = E.ss01;
widthMetricsKey = E.ss01;
rightKerningGroup = E.ss01;
},
{
glyphname = F.ss01;
layers = (
{
color = -1;
layerId = UUID0;
paths = (
{
closed = 1;
nodes = (
"96 0 LINE",
"192 479 LINE SMOOTH",
"218 611 OFFCURVE",
"302 684 OFFCURVE",
"459 684 CURVE SMOOTH",
"535 684 OFFCURVE",
"595 667 OFFCURVE",
"641 628 CURVE",
"654 642 LINE",
"607 684 OFFCURVE",
"538 703 OFFCURVE",
"460 703 CURVE SMOOTH",
"292 703 OFFCURVE",
"200 624 OFFCURVE",
"172 482 CURVE SMOOTH",
"76 0 LINE"
);
},
{
closed = 1;
nodes = (
"524 326 LINE",
"528 345 LINE",
"161 345 LINE",
"157 326 LINE"
);
}
);
width = 596;
},
{
color = -1;
layerId = "5DA6E103-6A94-47F2-987D-4952DB8EA68E";
paths = (
{
closed = 1;
nodes = (
"232 0 LINE",
"315 415 LINE SMOOTH",
"330 490 OFFCURVE",
"385 525 OFFCURVE",
"470 525 CURVE SMOOTH",
"510 525 OFFCURVE",
"558 516 OFFCURVE",
"592 495 CURVE",
"693 669 LINE",
"641 699 OFFCURVE",
"554 716 OFFCURVE",
"481 716 CURVE SMOOTH",
"249 716 OFFCURVE",
"118 611 OFFCURVE",
"78 410 CURVE SMOOTH",
"-4 0 LINE"
);
},
{
closed = 1;
nodes = (
"524 224 LINE",
"560 402 LINE",
"221 402 LINE",
"185 224 LINE"
);
}
);
width = 625;
},
{
color = -1;
layerId = "C4221BDF-4AE8-4E40-821A-B2476087DE1A";
paths = (
{
closed = 1;
nodes = (
"155 0 LINE",
"245 450 LINE SMOOTH",
"266 554 OFFCURVE",
"338 607 OFFCURVE",
"464 607 CURVE SMOOTH",
"524 607 OFFCURVE",
"579 594 OFFCURVE",
"620 563 CURVE",
"671 655 LINE",
"622 691 OFFCURVE",
"545 709 OFFCURVE",
"469 709 CURVE SMOOTH",
"273 709 OFFCURVE",
"164 618 OFFCURVE",
"131 447 CURVE SMOOTH",
"41 0 LINE"
);
},
{
closed = 1;
nodes = (
"522 274 LINE",
"542 374 LINE",
"187 374 LINE",
"167 274 LINE"
);
}
);
width = 608;
}
);
leftKerningGroup = A.ss01;
leftMetricsKey = U;
rightKerningGroup = F.ss01;
},
{
glyphname = G.ss01;
layers = (
{
anchors = (
{
name = bottom;
position = "{350, 0}";
},
{
name = top;
position = "{490, 700}";
}
);
color = -1;
layerId = UUID0;
paths = (
{
closed = 1;
nodes = (
"476 -3 OFFCURVE",
"560 24 OFFCURVE",
"615 72 CURVE",
"618 95 LINE",
"551 41 OFFCURVE",
"477 16 OFFCURVE",
"388 16 CURVE SMOOTH",
"192 16 OFFCURVE",
"91 123 OFFCURVE",
"91 280 CURVE SMOOTH",
"91 498 OFFCURVE",
"246 684 OFFCURVE",
"490 684 CURVE SMOOTH",
"593 684 OFFCURVE",
"670 656 OFFCURVE",
"718 601 CURVE",
"732 614 LINE",
"685 670 OFFCURVE",
"599 703 OFFCURVE",
"492 703 CURVE SMOOTH",
"229 703 OFFCURVE",
"71 504 OFFCURVE",
"71 280 CURVE SMOOTH",
"71 111 OFFCURVE",
"182 -3 OFFCURVE",
"386 -3 CURVE SMOOTH"
);
},
{
closed = 1;
nodes = (
"610 0 LINE",
"679 343 LINE",
"660 343 LINE",
"607 80 LINE",
"606 75 LINE",
"591 0 LINE"
);
}
);
width = 774;
},
{
anchors = (
{
name = bottom;
position = "{356, 3}";
},
{
name = top;
position = "{509, 701}";
}
);
color = -1;
layerId = "5DA6E103-6A94-47F2-987D-4952DB8EA68E";
paths = (
{
closed = 1;
nodes = (
"468 -16 OFFCURVE",
"551 32 OFFCURVE",
"631 179 CURVE",
"548 231 LINE",
"510 197 OFFCURVE",
"468 171 OFFCURVE",
"412 171 CURVE SMOOTH",
"328 171 OFFCURVE",
"279 225 OFFCURVE",
"279 312 CURVE SMOOTH",
"279 437 OFFCURVE",
"357 525 OFFCURVE",
"480 525 CURVE SMOOTH",
"546 525 OFFCURVE",
"595 506 OFFCURVE",
"640 448 CURVE",
"809 579 LINE",
"743 669 OFFCURVE",
"629 716 OFFCURVE",
"491 716 CURVE SMOOTH",
"224 716 OFFCURVE",
"41 543 OFFCURVE",
"41 294 CURVE SMOOTH",
"41 101 OFFCURVE",
"183 -16 OFFCURVE",
"347 -16 CURVE SMOOTH"
);
},
{
closed = 1;
nodes = (
"670 0 LINE",
"744 369 LINE",
"539 369 LINE",
"488 115 LINE",
"536 90 LINE",
"518 0 LINE"
);
}
);
width = 769;
},
{
anchors = (
{
name = bottom;
position = "{353, 1}";
},
{
name = top;
position = "{498, 701}";
}
);
color = 3;
layerId = "C4221BDF-4AE8-4E40-821A-B2476087DE1A";
paths = (
{
closed = 1;
nodes = (
"476 -9 OFFCURVE",
"560 25 OFFCURVE",
"622 102 CURVE",
"584 180 LINE",
"533 121 OFFCURVE",
"460 93 OFFCURVE",
"388 93 CURVE SMOOTH",
"248 93 OFFCURVE",
"173 175 OFFCURVE",
"173 296 CURVE SMOOTH",
"173 468 OFFCURVE",
"295 607 OFFCURVE",
"485 607 CURVE SMOOTH",
"573 607 OFFCURVE",
"637 583 OFFCURVE",
"684 527 CURVE",
"766 597 LINE",
"710 669 OFFCURVE",
"616 709 OFFCURVE",
"491 709 CURVE SMOOTH",
"227 709 OFFCURVE",
"58 523 OFFCURVE",
"58 287 CURVE SMOOTH",
"58 106 OFFCURVE",
"187 -9 OFFCURVE",
"375 -9 CURVE SMOOTH"
);
},
{
closed = 1;
nodes = (
"636 0 LINE",
"709 356 LINE",
"599 356 LINE",
"547 95 LINE",
"553 84 LINE",
"536 0 LINE"
);
}
);
width = 772;
}
);
leftKerningGroup = O;
leftMetricsKey = O;
widthMetricsKey = G;
rightKerningGroup = G;
},
{
glyphname = I.ss01;
layers = (
{
anchors = (
{
name = bottom;
position = "{159, 0}";
},
{
name = ogonek;
position = "{169, 0}";
},
{
name = top;
position = "{299, 700}";
},
{
name = topleft;
position = "{95, 700}";
}
);
color = -1;
layerId = UUID0;
paths = (
{
closed = 1;
nodes = (
"171 10 LINE",
"307 690 LINE",
"287 690 LINE",
"151 10 LINE"
);
},
{
closed = 1;
nodes = (
"323 0 LINE",
"327 19 LINE",
"-1 19 LINE",
"-5 0 LINE"
);
},
{
closed = 1;
nodes = (
"459 681 LINE",
"463 700 LINE",
"135 700 LINE",
"131 681 LINE"
);
}
);
width = 422;
},
{
anchors = (
{
name = bottom;
position = "{203, 0}";
},
{
name = ogonek;
position = "{321, 0}";
},
{
name = top;
position = "{343, 700}";
},
{
name = topleft;
position = "{65, 700}";
}
);
color = -1;
layerId = "5DA6E103-6A94-47F2-987D-4952DB8EA68E";
paths = (
{
closed = 1;
nodes = (
"325 20 LINE",
"457 681 LINE",
"221 681 LINE",
"89 20 LINE"
);
},
{
closed = 1;
nodes = (
"426 0 LINE",
"462 178 LINE",
"16 178 LINE",
"-20 0 LINE"
);
},
{
closed = 1;
nodes = (
"530 522 LINE",
"566 700 LINE",
"120 700 LINE",
"84 522 LINE"
);
}
);
width = 516;
},
{
anchors = (
{
name = bottom;
position = "{178, 0}";
},
{
name = ogonek;
position = "{235, 0}";
},
{
name = top;
position = "{318, 700}";
},
{
name = topleft;
position = "{82, 700}";
}
);
color = -1;
layerId = "C4221BDF-4AE8-4E40-821A-B2476087DE1A";
paths = (
{
closed = 1;
nodes = (
"238 15 LINE",
"372 686 LINE",
"258 686 LINE",
"124 15 LINE"
);
},
{
closed = 1;
nodes = (
"368 0 LINE",
"386 96 LINE",
"6 96 LINE",
"-12 0 LINE"
);
},
{
closed = 1;
nodes = (
"490 604 LINE",
"508 700 LINE",
"128 700 LINE",
"110 604 LINE"
);
}
);
width = 462;
}
);
leftKerningGroup = I.ss01;
rightKerningGroup = I.ss01;
},
{
glyphname = IJ.ss01;
layers = (
{
anchors = (
{
name = top;
position = "{255, 700}";
}
);
color = -1;
layerId = UUID0;
paths = (
{
closed = 1;
nodes = (
"436 -103 OFFCURVE",
"533 -8 OFFCURVE",
"573 190 CURVE SMOOTH",
"675 700 LINE",
"655 700 LINE",
"554 194 LINE SMOOTH",
"516 4 OFFCURVE",
"425 -84 OFFCURVE",
"269 -84 CURVE SMOOTH",
"190 -84 OFFCURVE",
"123 -60 OFFCURVE",
"74 -22 CURVE",
"61 -39 LINE",
"110 -76 OFFCURVE",
"181 -103 OFFCURVE",
"269 -103 CURVE SMOOTH"
);
},
{
closed = 1;
nodes = (
"133 190 LINE",
"235 700 LINE",
"215 700 LINE",
"113 190 LINE"
);
}
);
width = 714;
},
{
anchors = (
{
name = top;
position = "{254, 700}";
}
);
color = -1;
layerId = "5DA6E103-6A94-47F2-987D-4952DB8EA68E";
paths = (
{
closed = 1;
nodes = (
"489 -110 OFFCURVE",
"621 -8 OFFCURVE",
"665 211 CURVE SMOOTH",
"763 700 LINE",
"527 700 LINE",
"431 218 LINE SMOOTH",
"411 115 OFFCURVE",
"371 78 OFFCURVE",
"288 78 CURVE SMOOTH",
"221 78 OFFCURVE",
"151 100 OFFCURVE",
"87 144 CURVE",
"-27 -25 LINE",
"47 -77 OFFCURVE",
"144 -110 OFFCURVE",
"278 -110 CURVE SMOOTH"
);
},
{
closed = 1;
nodes = (
"279 236 LINE",
"372 700 LINE",
"136 700 LINE",
"43 236 LINE"
);
}
);
width = 729;
},
{
anchors = (
{
name = top;
position = "{253, 700}";
}
);
color = -1;
layerId = "C4221BDF-4AE8-4E40-821A-B2476087DE1A";
paths = (
{
closed = 1;
nodes = (
"461 -109 OFFCURVE",
"572 -10 OFFCURVE",
"613 197 CURVE SMOOTH",
"712 700 LINE",
"598 700 LINE",
"500 203 LINE SMOOTH",
"471 54 OFFCURVE",
"404 -7 OFFCURVE",
"284 -7 CURVE SMOOTH",
"207 -7 OFFCURVE",
"136 15 OFFCURVE",
"79 56 CURVE",
"22 -36 LINE",
"81 -80 OFFCURVE",
"166 -109 OFFCURVE",
"276 -109 CURVE SMOOTH"
);
},
{
closed = 1;
nodes = (
"197 212 LINE",
"294 700 LINE",
"180 700 LINE",
"83 212 LINE"
);
}
);
width = 721;
}
);
leftKerningGroup = H;
leftMetricsKey = IJ;
rightKerningGroup = J.ss01;
rightMetricsKey = IJ;
},
{
glyphname = Iacute_J.loclNLD.ss01;
layers = (
{
color = -1;
layerId = UUID0;
paths = (
{
closed = 1;
nodes = (
"436 -103 OFFCURVE",
"533 -8 OFFCURVE",
"573 190 CURVE SMOOTH",
"675 700 LINE",
"655 700 LINE",
"554 194 LINE SMOOTH",
"516 4 OFFCURVE",
"425 -84 OFFCURVE",
"269 -84 CURVE SMOOTH",
"190 -84 OFFCURVE",
"123 -60 OFFCURVE",
"74 -22 CURVE",
"61 -39 LINE",
"110 -76 OFFCURVE",
"181 -103 OFFCURVE",
"269 -103 CURVE SMOOTH"
);
},
{
closed = 1;
nodes = (
"133 190 LINE",
"235 700 LINE",
"215 700 LINE",
"113 190 LINE"
);
},
{
closed = 1;
nodes = (
"251 757 LINE",
"423 867 LINE",
"383 867 LINE",
"221 757 LINE"
);
},
{
closed = 1;
nodes = (
"693 757 LINE",
"865 867 LINE",
"825 867 LINE",
"663 757 LINE"
);
}
);
width = 714;
},
{
color = -1;
layerId = "5DA6E103-6A94-47F2-987D-4952DB8EA68E";
paths = (
{
closed = 1;
nodes = (
"489 -110 OFFCURVE",
"621 -8 OFFCURVE",
"665 211 CURVE SMOOTH",
"763 700 LINE",
"527 700 LINE",
"431 218 LINE SMOOTH",
"411 115 OFFCURVE",
"371 78 OFFCURVE",
"288 78 CURVE SMOOTH",
"221 78 OFFCURVE",
"151 100 OFFCURVE",
"87 144 CURVE",
"-27 -25 LINE",
"47 -77 OFFCURVE",
"144 -110 OFFCURVE",
"278 -110 CURVE SMOOTH"
);
},
{
closed = 1;
nodes = (
"279 236 LINE",
"372 700 LINE",
"136 700 LINE",
"43 236 LINE"
);
},
{
closed = 1;
nodes = (
"310 757 LINE",
"539 917 LINE",
"324 917 LINE",
"160 757 LINE"
);
},
{
closed = 1;
nodes = (
"700 757 LINE",
"929 917 LINE",
"714 917 LINE",
"550 757 LINE"
);
}
);
width = 729;
},
{
color = -1;
layerId = "C4221BDF-4AE8-4E40-821A-B2476087DE1A";
paths = (
{
closed = 1;
nodes = (
"458 -106 OFFCURVE",
"570 -8 OFFCURVE",
"612 200 CURVE SMOOTH",
"712 700 LINE",
"598 700 LINE",
"499 206 LINE SMOOTH",
"469 58 OFFCURVE",
"400 -5 OFFCURVE",
"276 -5 CURVE SMOOTH",
"203 -5 OFFCURVE",
"134 18 OFFCURVE",
"79 59 CURVE",
"22 -32 LINE",
"81 -76 OFFCURVE",
"164 -106 OFFCURVE",
"272 -106 CURVE SMOOTH"
);
},
{
closed = 1;
nodes = (
"196 212 LINE",
"294 700 LINE",
"179 700 LINE",
"81 212 LINE"
);
},
{
closed = 1;
nodes = (
"276 757 LINE",
"473 891 LINE",
"356 891 LINE",
"193 757 LINE"
);
},
{
closed = 1;
nodes = (
"695 757 LINE",
"892 891 LINE",
"776 891 LINE",
"613 757 LINE"
);
}
);
width = 721;
}
);
leftKerningGroup = I.ss01;
leftMetricsKey = IJ;
widthMetricsKey = IJ;
rightKerningGroup = Jacute.ss01;
},
{
glyphname = J.ss01;
layers = (
{
anchors = (
{
name = top;
position = "{297, 700}";
}
);
color = -1;
layerId = UUID0;
paths = (
{
closed = 1;
nodes = (
"223 -103 OFFCURVE",
"288 -52 OFFCURVE",
"316 90 CURVE SMOOTH",
"438 700 LINE",
"156 700 LINE",
"152 681 LINE",
"414 681 LINE",
"297 96 LINE SMOOTH",
"270 -37 OFFCURVE",
"213 -84 OFFCURVE",
"120 -84 CURVE SMOOTH",
"47 -84 OFFCURVE",
"-7 -49 OFFCURVE",
"-32 6 CURVE",
"-50 -4 LINE",
"-25 -63 OFFCURVE",
"38 -103 OFFCURVE",
"117 -103 CURVE SMOOTH"
);
}
);
width = 477;
},
{
anchors = (
{
name = top;
position = "{373, 700}";
}
);
color = -1;
layerId = "5DA6E103-6A94-47F2-987D-4952DB8EA68E";
paths = (
{
closed = 1;
nodes = (
"354 -116 OFFCURVE",
"460 -41 OFFCURVE",
"500 160 CURVE SMOOTH",
"608 700 LINE",
"137 700 LINE",
"101 522 LINE",
"339 522 LINE",
"264 146 LINE SMOOTH",
"254 97 OFFCURVE",
"225 69 OFFCURVE",
"180 69 CURVE SMOOTH",
"138 69 OFFCURVE",
"104 91 OFFCURVE",
"73 135 CURVE",
"-78 -8 LINE",
"-26 -80 OFFCURVE",
"58 -116 OFFCURVE",
"176 -116 CURVE SMOOTH"
);
}
);
width = 574;
},
{
anchors = (
{
name = top;
position = "{330, 700}";
}
);
color = -1;
layerId = "C4221BDF-4AE8-4E40-821A-B2476087DE1A";
paths = (
{
closed = 1;
nodes = (
"282 -109 OFFCURVE",
"364 -48 OFFCURVE",
"398 124 CURVE SMOOTH",
"513 700 LINE",
"150 700 LINE",
"130 601 LINE",
"381 601 LINE",
"285 119 LINE SMOOTH",
"267 26 OFFCURVE",
"221 -10 OFFCURVE",
"149 -10 CURVE SMOOTH",
"88 -10 OFFCURVE",
"42 19 OFFCURVE",
"15 69 CURVE",
"-63 -6 LINE",
"-26 -71 OFFCURVE",
"48 -109 OFFCURVE",
"147 -109 CURVE SMOOTH"
);
}
);
width = 520;
}
);
leftKerningGroup = J.ss01;
leftMetricsKey = J;
rightKerningGroup = J.ss01;
rightMetricsKey = J;
},
{
glyphname = M.ss01;
layers = (
{
anchors = (
{
name = bottom;
position = "{549, 0}";
},
{
name = top;
position = "{700, 700}";
}
);
color = -1;
layerId = UUID0;
paths = (
{
closed = 1;
nodes = (
"101 0 LINE",
"197 445 LINE SMOOTH",
"233 611 OFFCURVE",
"334 684 OFFCURVE",
"464 684 CURVE SMOOTH",
"606 684 OFFCURVE",
"668 604 OFFCURVE",
"633 441 CURVE SMOOTH",
"538 0 LINE",
"559 0 LINE",
"649 421 LINE SMOOTH",
"688 603 OFFCURVE",
"785 684 OFFCURVE",
"920 684 CURVE SMOOTH",
"1063 684 OFFCURVE",
"1126 604 OFFCURVE",
"1091 441 CURVE SMOOTH",
"996 0 LINE",
"1015 0 LINE",
"1110 442 LINE SMOOTH",
"1147 615 OFFCURVE",
"1071 703 OFFCURVE",
"921 703 CURVE SMOOTH",
"810 703 OFFCURVE",
"715 649 OFFCURVE",
"659 518 CURVE",
"663 518 LINE",
"665 641 OFFCURVE",
"592 703 OFFCURVE",
"466 703 CURVE SMOOTH",
"360 703 OFFCURVE",
"266 655 OFFCURVE",
"214 549 CURVE",
"219 544 LINE",
"252 700 LINE",
"233 700 LINE",
"81 0 LINE"
);
}
);
width = 1200;
},
{
anchors = (
{
name = bottom;
position = "{549, 0}";
},
{
name = top;
position = "{753, 700}";
}
);
color = -1;
layerId = "5DA6E103-6A94-47F2-987D-4952DB8EA68E";
paths = (
{
closed = 1;
nodes = (
"238 0 LINE",
"320 410 LINE SMOOTH",
"335 487 OFFCURVE",
"382 525 OFFCURVE",
"440 525 CURVE SMOOTH",
"497 525 OFFCURVE",
"525 489 OFFCURVE",
"511 418 CURVE SMOOTH",
"428 0 LINE",
"664 0 LINE",
"746 410 LINE SMOOTH",
"761 487 OFFCURVE",
"812 525 OFFCURVE",
"874 525 CURVE SMOOTH",
"935 525 OFFCURVE",
"967 489 OFFCURVE",
"953 418 CURVE SMOOTH",
"870 0 LINE",
"1106 0 LINE",
"1191 425 LINE SMOOTH",
"1229 615 OFFCURVE",
"1130 716 OFFCURVE",
"975 716 CURVE SMOOTH",
"857 716 OFFCURVE",
"760 664 OFFCURVE",
"695 559 CURVE",
"762 551 LINE",
"749 660 OFFCURVE",
"684 716 OFFCURVE",
"566 716 CURVE SMOOTH",
"451 716 OFFCURVE",
"372 662 OFFCURVE",
"319 565 CURVE",
"334 524 LINE",
"370 700 LINE",
"142 700 LINE",
"2 0 LINE"
);
}
);
width = 1212;
},
{
anchors = (
{
name = bottom;
position = "{558, 0}";
},
{
name = top;
position = "{692, 700}";
}
);
color = -1;
layerId = "C4221BDF-4AE8-4E40-821A-B2476087DE1A";
paths = (
{
closed = 1;
nodes = (
"161 0 LINE",
"244 418 LINE SMOOTH",
"271 551 OFFCURVE",
"360 607 OFFCURVE",
"459 607 CURVE SMOOTH",
"557 607 OFFCURVE",
"608 552 OFFCURVE",
"584 430 CURVE SMOOTH",
"498 0 LINE",
"612 0 LINE",
"695 418 LINE SMOOTH",
"721 549 OFFCURVE",
"805 607 OFFCURVE",
"905 607 CURVE SMOOTH",
"1003 607 OFFCURVE",
"1059 552 OFFCURVE",
"1035 430 CURVE SMOOTH",
"949 0 LINE",
"1063 0 LINE",
"1149 434 LINE SMOOTH",
"1185 613 OFFCURVE",
"1097 709 OFFCURVE",
"935 709 CURVE SMOOTH",
"816 709 OFFCURVE",
"728 657 OFFCURVE",
"672 569 CURVE",
"708 567 LINE",
"698 653 OFFCURVE",
"616 709 OFFCURVE",
"496 709 CURVE SMOOTH",
"383 709 OFFCURVE",
"299 659 OFFCURVE",
"248 579 CURVE",
"269 563 LINE",
"297 700 LINE",
"187 700 LINE",
"47 0 LINE"
);
}
);
width = 1210;
},
{
anchors = (
{
name = bottom;
position = "{552, 0}";
},
{
name = top;
position = "{710, 700}";
}
);
associatedMasterId = "5DA6E103-6A94-47F2-987D-4952DB8EA68E";
color = -1;
layerId = "C6BA1A16-2B27-4AFF-95FC-23AE4ABDF61B";
name = Jacques;
paths = (
{
closed = 1;
nodes = (
"238 0 LINE",
"320 410 LINE SMOOTH",
"337 496 OFFCURVE",
"377 525 OFFCURVE",
"428 525 CURVE SMOOTH",
"478 525 OFFCURVE",
"507 494 OFFCURVE",
"492 418 CURVE SMOOTH",
"408 0 LINE",
"644 0 LINE",
"726 410 LINE SMOOTH",
"743 496 OFFCURVE",
"783 525 OFFCURVE",
"834 525 CURVE SMOOTH",
"884 525 OFFCURVE",
"913 494 OFFCURVE",
"898 418 CURVE SMOOTH",
"814 0 LINE",
"1050 0 LINE",
"1131 405 LINE SMOOTH",
"1172 610 OFFCURVE",
"1077 716 OFFCURVE",
"932 716 CURVE SMOOTH",
"821 716 OFFCURVE",
"727 662 OFFCURVE",
"676 565 CURVE",
"731 552 LINE",
"719 660 OFFCURVE",
"646 716 OFFCURVE",
"544 716 CURVE SMOOTH",
"440 716 OFFCURVE",
"367 670 OFFCURVE",
"317 576 CURVE",
"336 538 LINE",
"369 700 LINE",
"142 700 LINE",
"2 0 LINE"
);
}
);
width = 1156;
},
{
anchors = (
{
name = bottom;
position = "{518, 0}";
},
{
name = top;
position = "{658, 700}";
}
);
associatedMasterId = "C4221BDF-4AE8-4E40-821A-B2476087DE1A";
color = -1;
layerId = "16D189E5-FCFB-435D-B689-C77161412A27";
name = Jacques;
paths = (
{
closed = 1;
nodes = (
"161 0 LINE",
"247 428 LINE SMOOTH",
"273 555 OFFCURVE",
"343 607 OFFCURVE",
"432 607 CURVE SMOOTH",
"527 607 OFFCURVE",
"571 551 OFFCURVE",
"547 430 CURVE SMOOTH",
"461 0 LINE",
"575 0 LINE",
"658 416 LINE SMOOTH",
"686 551 OFFCURVE",
"753 607 OFFCURVE",
"845 607 CURVE SMOOTH",
"940 607 OFFCURVE",
"985 551 OFFCURVE",
"961 430 CURVE SMOOTH",
"875 0 LINE",
"989 0 LINE",
"1074 424 LINE SMOOTH",
"1110 606 OFFCURVE",
"1023 709 OFFCURVE",
"872 709 CURVE SMOOTH",
"771 709 OFFCURVE",
"677 657 OFFCURVE",
"631 571 CURVE",
"665 533 LINE",
"661 650 OFFCURVE",
"588 709 OFFCURVE",
"473 709 CURVE SMOOTH",
"377 709 OFFCURVE",
"302 673 OFFCURVE",
"249 580 CURVE",
"265 541 LINE",
"297 700 LINE",
"187 700 LINE",
"47 0 LINE"
);
}
);
width = 1136;
},
{
anchors = (
{
name = bottom;
position = "{511, 0}";
},
{
name = top;
position = "{651, 700}";
}
);
associatedMasterId = UUID0;
color = -1;
layerId = "7686E3A1-3CF9-4A1A-B387-1EBFC8E30278";
name = Jacques;
paths = (
{
closed = 1;
nodes = (
"101 0 LINE",
"190 445 LINE SMOOTH",
"223 611 OFFCURVE",
"316 684 OFFCURVE",
"435 684 CURVE SMOOTH",
"565 684 OFFCURVE",
"622 604 OFFCURVE",
"589 441 CURVE SMOOTH",
"501 0 LINE",
"521 0 LINE",
"605 421 LINE SMOOTH",
"641 603 OFFCURVE",
"730 684 OFFCURVE",
"853 684 CURVE SMOOTH",
"984 684 OFFCURVE",
"1042 604 OFFCURVE",
"1009 441 CURVE SMOOTH",
"921 0 LINE",
"941 0 LINE",
"1029 442 LINE SMOOTH",
"1063 615 OFFCURVE",
"992 703 OFFCURVE",
"854 703 CURVE SMOOTH",
"752 703 OFFCURVE",
"665 649 OFFCURVE",
"613 518 CURVE",
"617 518 LINE",
"619 641 OFFCURVE",
"552 703 OFFCURVE",
"437 703 CURVE SMOOTH",
"340 703 OFFCURVE",
"254 655 OFFCURVE",
"206 549 CURVE",
"210 544 LINE",
"241 700 LINE",
"221 700 LINE",
"81 0 LINE"
);
}
);
width = 1120;
}
);
leftKerningGroup = H;
leftMetricsKey = H;
rightKerningGroup = N.ss01;
rightMetricsKey = U;
},
{
glyphname = N.ss01;
layers = (
{
anchors = (
{
name = bottom;
position = "{349, 0}";
},
{
name = top;
position = "{491, 700}";
}
);
color = -1;
layerId = UUID0;
paths = (
{
closed = 1;
nodes = (
"362 703 OFFCURVE",
"260 647 OFFCURVE",
"202 526 CURVE",
"206 524 LINE",
"241 700 LINE",
"221 700 LINE",
"81 0 LINE",
"101 0 LINE",
"186 423 LINE SMOOTH",
"222 601 OFFCURVE",
"335 684 OFFCURVE",
"486 684 CURVE SMOOTH",
"645 684 OFFCURVE",
"719 592 OFFCURVE",
"683 410 CURVE SMOOTH",
"601 0 LINE",
"621 0 LINE",
"703 411 LINE SMOOTH",
"741 603 OFFCURVE",
"654 703 OFFCURVE",
"488 703 CURVE SMOOTH"
);
}
);
width = 800;
},
{
anchors = (
{
name = bottom;
position = "{345, 0}";
},
{
name = top;
position = "{485, 700}";
}
);
color = -1;
layerId = "5DA6E103-6A94-47F2-987D-4952DB8EA68E";
paths = (
{
closed = 1;
nodes = (
"454 716 OFFCURVE",
"369 670 OFFCURVE",
"314 581 CURVE",
"338 536 LINE",
"371 700 LINE",
"142 700 LINE",
"2 0 LINE",
"238 0 LINE",
"316 390 LINE SMOOTH",
"336 489 OFFCURVE",
"389 525 OFFCURVE",
"450 525 CURVE SMOOTH",
"518 525 OFFCURVE",
"548 480 OFFCURVE",
"530 389 CURVE SMOOTH",
"452 0 LINE",
"688 0 LINE",
"765 385 LINE SMOOTH",
"806 590 OFFCURVE",
"715 716 OFFCURVE",
"548 716 CURVE SMOOTH"
);
}
);
width = 794;
},
{
anchors = (
{
name = bottom;
position = "{348, 0}";
},
{
name = top;
position = "{489, 700}";
}
);
color = -1;
layerId = "C4221BDF-4AE8-4E40-821A-B2476087DE1A";
paths = (
{
closed = 1;
nodes = (
"392 709 OFFCURVE",
"306 663 OFFCURVE",
"250 581 CURVE",
"263 530 LINE",
"297 700 LINE",
"187 700 LINE",
"47 0 LINE",
"161 0 LINE",
"242 405 LINE SMOOTH",
"270 545 OFFCURVE",
"360 607 OFFCURVE",
"471 607 CURVE SMOOTH",
"591 607 OFFCURVE",
"645 538 OFFCURVE",
"617 400 CURVE SMOOTH",
"537 0 LINE",
"651 0 LINE",
"730 396 LINE SMOOTH",
"770 595 OFFCURVE",
"671 709 OFFCURVE",
"503 709 CURVE SMOOTH"
);
}
);
width = 798;
}
);
leftKerningGroup = H;
leftMetricsKey = H;
rightKerningGroup = N.ss01;
rightMetricsKey = U;
},
{
glyphname = Eng.ss01;
layers = (
{
color = -1;
layerId = UUID0;
paths = (
{
closed = 1;
nodes = (
"362 703 OFFCURVE",
"260 647 OFFCURVE",
"202 526 CURVE",
"206 524 LINE",
"241 700 LINE",
"221 700 LINE",
"81 0 LINE",
"101 0 LINE",
"186 423 LINE SMOOTH",
"222 601 OFFCURVE",
"335 684 OFFCURVE",
"486 684 CURVE SMOOTH",
"645 684 OFFCURVE",
"720 592 OFFCURVE",
"683 410 CURVE SMOOTH",
"601 2 LINE SMOOTH",
"574 -131 OFFCURVE",
"517 -178 OFFCURVE",
"424 -178 CURVE SMOOTH",
"351 -178 OFFCURVE",
"297 -143 OFFCURVE",
"272 -88 CURVE",
"254 -98 LINE",
"279 -157 OFFCURVE",
"342 -197 OFFCURVE",
"421 -197 CURVE SMOOTH",
"527 -197 OFFCURVE",
"592 -145 OFFCURVE",
"620 -4 CURVE SMOOTH",
"703 411 LINE SMOOTH",
"741 603 OFFCURVE",
"654 703 OFFCURVE",
"488 703 CURVE SMOOTH"
);
}
);
width = 800;
},
{
color = -1;
layerId = "5DA6E103-6A94-47F2-987D-4952DB8EA68E";
paths = (
{
closed = 1;
nodes = (
"454 716 OFFCURVE",
"369 670 OFFCURVE",
"314 581 CURVE",
"338 536 LINE",
"371 700 LINE",
"142 700 LINE",
"2 0 LINE",
"238 0 LINE",
"316 390 LINE SMOOTH",
"336 489 OFFCURVE",
"389 525 OFFCURVE",
"450 525 CURVE SMOOTH",
"518 525 OFFCURVE",
"548 480 OFFCURVE",
"530 389 CURVE SMOOTH",
"465 67 LINE SMOOTH",
"452 1 OFFCURVE",
"425 -20 OFFCURVE",
"380 -20 CURVE SMOOTH",
"352 -20 OFFCURVE",
"326 -11 OFFCURVE",
"303 5 CURVE",
"182 -148 LINE",
"232 -184 OFFCURVE",
"299 -204 OFFCURVE",
"375 -204 CURVE SMOOTH",
"543 -204 OFFCURVE",
"660 -142 OFFCURVE",
"708 100 CURVE SMOOTH",
"765 385 LINE SMOOTH",
"806 590 OFFCURVE",
"715 716 OFFCURVE",
"548 716 CURVE SMOOTH"
);
}
);
width = 794;
},
{
color = -1;
layerId = "C4221BDF-4AE8-4E40-821A-B2476087DE1A";
paths = (
{
closed = 1;
nodes = (
"392 709 OFFCURVE",
"306 663 OFFCURVE",
"250 581 CURVE",
"263 530 LINE",
"297 700 LINE",
"187 700 LINE",
"47 0 LINE",
"161 0 LINE",
"242 405 LINE SMOOTH",
"270 545 OFFCURVE",
"360 607 OFFCURVE",
"471 607 CURVE SMOOTH",
"591 607 OFFCURVE",
"645 538 OFFCURVE",
"617 400 CURVE SMOOTH",
"544 34 LINE SMOOTH",
"524 -64 OFFCURVE",
"479 -101 OFFCURVE",
"412 -101 CURVE SMOOTH",
"353 -101 OFFCURVE",
"310 -76 OFFCURVE",
"286 -40 CURVE",
"216 -122 LINE",
"253 -174 OFFCURVE",
"324 -200 OFFCURVE",
"404 -200 CURVE SMOOTH",
"535 -200 OFFCURVE",
"622 -144 OFFCURVE",
"660 45 CURVE SMOOTH",
"730 396 LINE SMOOTH",
"770 595 OFFCURVE",
"671 709 OFFCURVE",
"503 709 CURVE SMOOTH"
);
}
);
width = 798;
}
);
leftKerningGroup = H;
leftMetricsKey = H;
rightKerningGroup = N.ss01;
rightMetricsKey = U;
},
{
glyphname = Q.ss01;
layers = (
{
anchors = (
{
name = top;
position = "{506, 700}";
}
);
color = -1;
layerId = UUID0;
paths = (
{
closed = 1;
nodes = (
"644 -3 OFFCURVE",
"802 196 OFFCURVE",
"802 420 CURVE SMOOTH",
"802 589 OFFCURVE",
"691 703 OFFCURVE",
"487 703 CURVE SMOOTH",
"229 703 OFFCURVE",
"71 504 OFFCURVE",
"71 280 CURVE SMOOTH",
"71 111 OFFCURVE",
"182 -3 OFFCURVE",
"386 -3 CURVE SMOOTH"
);
},
{
closed = 1;
nodes = (
"349 -135 LINE",
"376 1 LINE",
"378 10 LINE",
"417 205 LINE",
"397 205 LINE",
"358 10 LINE",
"356 1 LINE",
"329 -135 LINE"
);
},
{
closed = 1;
nodes = (
"192 16 OFFCURVE",
"91 123 OFFCURVE",
"91 280 CURVE SMOOTH",
"91 499 OFFCURVE",
"246 684 OFFCURVE",
"485 684 CURVE SMOOTH",
"681 684 OFFCURVE",
"782 577 OFFCURVE",
"782 420 CURVE SMOOTH",
"782 201 OFFCURVE",
"627 16 OFFCURVE",
"388 16 CURVE SMOOTH"
);
}
);
width = 836;
},
{
anchors = (
{
name = top;
position = "{510, 700}";
}
);
color = -1;
layerId = "5DA6E103-6A94-47F2-987D-4952DB8EA68E";
paths = (
{
closed = 1;
nodes = (
"653 -16 OFFCURVE",
"837 156 OFFCURVE",
"837 403 CURVE SMOOTH",
"837 587 OFFCURVE",
"700 716 OFFCURVE",
"482 716 CURVE SMOOTH",
"225 716 OFFCURVE",
"41 544 OFFCURVE",
"41 297 CURVE SMOOTH",
"41 113 OFFCURVE",
"178 -16 OFFCURVE",
"396 -16 CURVE SMOOTH"
);
},
{
closed = 1;
nodes = (
"460 -135 LINE",
"492 25 LINE",
"495 92 LINE",
"540 315 LINE",
"323 315 LINE",
"278 92 LINE",
"256 25 LINE",
"224 -135 LINE"
);
},
{
closed = 1;
nodes = (
"330 175 OFFCURVE",
"279 230 OFFCURVE",
"279 311 CURVE SMOOTH",
"279 426 OFFCURVE",
"346 525 OFFCURVE",
"462 525 CURVE SMOOTH",
"548 525 OFFCURVE",
"599 470 OFFCURVE",
"599 389 CURVE SMOOTH",
"599 274 OFFCURVE",
"532 175 OFFCURVE",
"416 175 CURVE SMOOTH"
);
}
);
width = 848;
},
{
anchors = (
{
name = top;
position = "{510, 700}";
}
);
associatedMasterId = "5DA6E103-6A94-47F2-987D-4952DB8EA68E";
color = -1;
layerId = "BEABF591-5BC0-4CE5-A354-4906D5D47A10";
name = "Bold [170]";
paths = (
{
closed = 1;
nodes = (
"653 -16 OFFCURVE",
"837 156 OFFCURVE",
"837 403 CURVE SMOOTH",
"837 587 OFFCURVE",
"700 716 OFFCURVE",
"482 716 CURVE SMOOTH",
"225 716 OFFCURVE",
"41 544 OFFCURVE",
"41 297 CURVE SMOOTH",
"41 113 OFFCURVE",
"178 -16 OFFCURVE",
"396 -16 CURVE SMOOTH"
);
},
{
closed = 1;
nodes = (
"460 -135 LINE",
"500 65 LINE",
"264 65 LINE",
"224 -135 LINE"
);
},
{
closed = 1;
nodes = (
"330 175 OFFCURVE",
"279 230 OFFCURVE",
"279 311 CURVE SMOOTH",
"279 426 OFFCURVE",
"346 525 OFFCURVE",
"462 525 CURVE SMOOTH",
"548 525 OFFCURVE",
"599 470 OFFCURVE",
"599 389 CURVE SMOOTH",
"599 274 OFFCURVE",
"532 175 OFFCURVE",
"416 175 CURVE SMOOTH"
);
}
);
width = 848;
},
{
anchors = (
{
name = top;
position = "{508, 700}";
}
);
color = 3;
layerId = "C4221BDF-4AE8-4E40-821A-B2476087DE1A";
paths = (
{
closed = 1;
nodes = (
"648 -9 OFFCURVE",
"817 177 OFFCURVE",
"817 412 CURVE SMOOTH",
"817 588 OFFCURVE",
"695 709 OFFCURVE",
"485 709 CURVE SMOOTH",
"227 709 OFFCURVE",
"58 523 OFFCURVE",
"58 288 CURVE SMOOTH",
"58 112 OFFCURVE",
"180 -9 OFFCURVE",
"390 -9 CURVE SMOOTH"
);
},
{
closed = 1;
nodes = (
"397 -135 LINE",
"427 13 LINE",
"429 50 LINE",
"471 258 LINE",
"365 258 LINE",
"323 50 LINE",
"312 10 LINE",
"283 -135 LINE"
);
},
{
closed = 1;
nodes = (
"252 93 OFFCURVE",
"173 175 OFFCURVE",
"173 295 CURVE SMOOTH",
"173 464 OFFCURVE",
"290 607 OFFCURVE",
"475 607 CURVE SMOOTH",
"623 607 OFFCURVE",
"702 525 OFFCURVE",
"702 405 CURVE SMOOTH",
"702 236 OFFCURVE",
"585 93 OFFCURVE",
"400 93 CURVE SMOOTH"
);
}
);
width = 841;
},
{
anchors = (
{
name = top;
position = "{508, 700}";
}
);
associatedMasterId = "C4221BDF-4AE8-4E40-821A-B2476087DE1A";
color = -1;
layerId = "CFF8A86F-AE16-4C64-9489-D379846A37F4";
name = "SemiBold [170]";
paths = (
{
closed = 1;
nodes = (
"648 -9 OFFCURVE",
"817 177 OFFCURVE",
"817 412 CURVE SMOOTH",
"817 588 OFFCURVE",
"695 709 OFFCURVE",
"485 709 CURVE SMOOTH",
"227 709 OFFCURVE",
"58 523 OFFCURVE",
"58 288 CURVE SMOOTH",
"58 112 OFFCURVE",
"180 -9 OFFCURVE",
"390 -9 CURVE SMOOTH"
);
},
{
closed = 1;
nodes = (
"397 -135 LINE",
"427 13 LINE",
"312 10 LINE",
"283 -135 LINE"
);
},
{
closed = 1;
nodes = (
"252 93 OFFCURVE",
"173 175 OFFCURVE",
"173 295 CURVE SMOOTH",
"173 464 OFFCURVE",
"290 607 OFFCURVE",
"475 607 CURVE SMOOTH",
"623 607 OFFCURVE",
"702 525 OFFCURVE",
"702 405 CURVE SMOOTH",
"702 236 OFFCURVE",
"585 93 OFFCURVE",
"400 93 CURVE SMOOTH"
);
}
);
width = 841;
},
{
anchors = (
{
name = top;
position = "{506, 700}";
}
);
associatedMasterId = UUID0;
color = -1;
layerId = "6F12F9D4-9DEF-44C8-8433-3234DD760652";
name = "Thin [170]";
paths = (
{
closed = 1;
nodes = (
"644 -3 OFFCURVE",
"802 196 OFFCURVE",
"802 420 CURVE SMOOTH",
"802 589 OFFCURVE",
"691 703 OFFCURVE",
"487 703 CURVE SMOOTH",
"229 703 OFFCURVE",
"71 504 OFFCURVE",
"71 280 CURVE SMOOTH",
"71 111 OFFCURVE",
"182 -3 OFFCURVE",
"386 -3 CURVE SMOOTH"
);
},
{
closed = 1;
nodes = (
"349 -135 LINE",
"376 1 LINE",
"356 1 LINE",
"329 -135 LINE"
);
},
{
closed = 1;
nodes = (
"192 16 OFFCURVE",
"91 123 OFFCURVE",
"91 280 CURVE SMOOTH",
"91 499 OFFCURVE",
"246 684 OFFCURVE",
"485 684 CURVE SMOOTH",
"681 684 OFFCURVE",
"782 577 OFFCURVE",
"782 420 CURVE SMOOTH",
"782 201 OFFCURVE",
"627 16 OFFCURVE",
"388 16 CURVE SMOOTH"
);
}
);
width = 836;
}
);
leftKerningGroup = O;
leftMetricsKey = O;
rightKerningGroup = O;
rightMetricsKey = O;
},
{
glyphname = Schwa.ss01;
layers = (
{
anchors = (
{
name = bottom;
position = "{356, 0}";
},
{
name = top;
position = "{496, 700}";
}
);
color = -1;
layerId = UUID0;
paths = (
{
closed = 1;
nodes = (
"624 -3 OFFCURVE",
"782 196 OFFCURVE",
"782 420 CURVE SMOOTH",
"782 589 OFFCURVE",
"671 703 OFFCURVE",
"477 703 CURVE SMOOTH",
"372 703 OFFCURVE",
"277 668 OFFCURVE",
"222 616 CURVE",
"234 602 LINE",
"290 653 OFFCURVE",
"372 684 OFFCURVE",
"475 684 CURVE SMOOTH",
"661 684 OFFCURVE",
"762 577 OFFCURVE",
"762 420 CURVE SMOOTH",
"762 201 OFFCURVE",
"607 16 OFFCURVE",
"378 16 CURVE SMOOTH",
"233 16 OFFCURVE",
"132 84 OFFCURVE",
"102 191 CURVE",
"95 184 LINE",
"769 444 LINE",
"765 461 LINE",
"78 196 LINE",
"108 76 OFFCURVE",
"221 -3 OFFCURVE",
"376 -3 CURVE SMOOTH"
);
}
);
width = 816;
},
{
anchors = (
{
name = bottom;
position = "{354, 0}";
},
{
name = top;
position = "{494, 700}";
}
);
color = -1;
layerId = "5DA6E103-6A94-47F2-987D-4952DB8EA68E";
paths = (
{
closed = 1;
nodes = (
"623 -16 OFFCURVE",
"804 138 OFFCURVE",
"804 393 CURVE SMOOTH",
"804 587 OFFCURVE",
"657 716 OFFCURVE",
"440 716 CURVE SMOOTH",
"321 716 OFFCURVE",
"206 678 OFFCURVE",
"119 604 CURVE",
"228 451 LINE",
"286 500 OFFCURVE",
"352 525 OFFCURVE",
"422 525 CURVE SMOOTH",
"511 525 OFFCURVE",
"567 474 OFFCURVE",
"567 391 CURVE SMOOTH",
"567 258 OFFCURVE",
"508 157 OFFCURVE",
"400 157 CURVE SMOOTH",
"302 157 OFFCURVE",
"251 223 OFFCURVE",
"276 312 CURVE",
"173 173 LINE",
"616 341 LINE",
"593 469 LINE",
"29 259 LINE",
"45 90 OFFCURVE",
"193 -16 OFFCURVE",
"393 -16 CURVE SMOOTH"
);
}
);
width = 818;
},
{
anchors = (
{
name = bottom;
position = "{355, 0}";
},
{
name = top;
position = "{495, 700}";
}
);
color = 3;
layerId = "C4221BDF-4AE8-4E40-821A-B2476087DE1A";
paths = (
{
closed = 1;
nodes = (
"629 -9 OFFCURVE",
"793 177 OFFCURVE",
"793 412 CURVE SMOOTH",
"793 588 OFFCURVE",
"675 709 OFFCURVE",
"464 709 CURVE SMOOTH",
"353 709 OFFCURVE",
"247 675 OFFCURVE",
"176 612 CURVE",
"232 528 LINE",
"289 579 OFFCURVE",
"371 607 OFFCURVE",
"455 607 CURVE SMOOTH",
"604 607 OFFCURVE",
"678 525 OFFCURVE",
"678 405 CURVE SMOOTH",
"678 236 OFFCURVE",
"565 90 OFFCURVE",
"389 90 CURVE SMOOTH",
"262 90 OFFCURVE",
"186 151 OFFCURVE",
"171 249 CURVE",
"131 155 LINE",
"704 371 LINE",
"690 472 LINE",
"60 234 LINE",
"90 74 OFFCURVE",
"211 -9 OFFCURVE",
"378 -9 CURVE SMOOTH"
);
}
);
width = 817;
}
);
leftKerningGroup = O;
widthMetricsKey = Schwa;
rightKerningGroup = O;
rightMetricsKey = O;
},
{
glyphname = T.ss01;
layers = (
{
anchors = (
{
name = bottom;
position = "{222, 0}";
},
{
name = bottomleft;
position = "{212, 0}";
},
{
name = center;
position = "{292, 350}";
},
{
name = top;
position = "{362, 699}";
}
);
color = -1;
layerId = UUID0;
paths = (
{
closed = 1;
nodes = (
"162 659 OFFCURVE",
"257 684 OFFCURVE",
"354 684 CURVE SMOOTH",
"456 684 OFFCURVE",
"545 660 OFFCURVE",
"610 615 CURVE",
"622 631 LINE",
"549 680 OFFCURVE",
"461 703 OFFCURVE",
"355 703 CURVE SMOOTH",
"256 703 OFFCURVE",
"159 678 OFFCURVE",
"82 631 CURVE",
"92 615 LINE"
);
},
{
closed = 1;
nodes = (
"232 0 LINE",
"370 690 LINE",
"350 690 LINE",
"212 0 LINE"
);
}
);
width = 548;
},
{
anchors = (
{
name = bottom;
position = "{287, 0}";
},
{
name = bottomleft;
position = "{169, 0}";
},
{
name = center;
position = "{346, 300}";
},
{
name = top;
position = "{432, 701}";
}
);
color = -1;
layerId = "5DA6E103-6A94-47F2-987D-4952DB8EA68E";
paths = (
{
closed = 1;
nodes = (
"182 504 OFFCURVE",
"275 528 OFFCURVE",
"373 528 CURVE SMOOTH",
"489 528 OFFCURVE",
"575 503 OFFCURVE",
"665 454 CURVE",
"766 623 LINE",
"674 682 OFFCURVE",
"546 716 OFFCURVE",
"410 716 CURVE SMOOTH",
"282 716 OFFCURVE",
"139 686 OFFCURVE",
"44 628 CURVE",
"102 458 LINE"
);
},
{
closed = 1;
nodes = (
"405 0 LINE",
"526 606 LINE",
"290 606 LINE",
"169 0 LINE"
);
}
);
width = 684;
},
{
anchors = (
{
name = bottom;
position = "{249, 0}";
},
{
name = bottomleft;
position = "{193, 0}";
},
{
name = center;
position = "{315, 326}";
},
{
name = top;
position = "{392, 700}";
}
);
color = -1;
layerId = "C4221BDF-4AE8-4E40-821A-B2476087DE1A";
paths = (
{
closed = 1;
nodes = (
"167 584 OFFCURVE",
"262 608 OFFCURVE",
"359 608 CURVE SMOOTH",
"467 608 OFFCURVE",
"555 584 OFFCURVE",
"631 537 CURVE",
"682 627 LINE",
"600 681 OFFCURVE",
"495 709 OFFCURVE",
"376 709 CURVE SMOOTH",
"264 709 OFFCURVE",
"147 682 OFFCURVE",
"62 630 CURVE",
"93 539 LINE"
);
},
{
closed = 1;
nodes = (
"307 0 LINE",
"437 649 LINE",
"323 649 LINE",
"193 0 LINE"
);
}
);
width = 607;
}
);
leftKerningGroup = T.ss01;
rightKerningGroup = T.ss01;
},
{
glyphname = U.ss01;
layers = (
{
anchors = (
{
name = bottom;
position = "{345, 0}";
},
{
name = ogonek;
position = "{615, 0}";
},
{
name = top;
position = "{485, 700}";
},
{
name = topright;
position = "{748, 700}";
}
);
color = -1;
layerId = UUID0;
paths = (
{
closed = 1;
nodes = (
"474 -3 OFFCURVE",
"576 53 OFFCURVE",
"634 174 CURVE",
"630 176 LINE",
"595 0 LINE",
"615 0 LINE",
"755 700 LINE",
"735 700 LINE",
"650 277 LINE SMOOTH",
"614 99 OFFCURVE",
"501 16 OFFCURVE",
"350 16 CURVE SMOOTH",
"191 16 OFFCURVE",
"117 108 OFFCURVE",
"153 290 CURVE SMOOTH",
"235 700 LINE",
"215 700 LINE",
"133 289 LINE SMOOTH",
"95 97 OFFCURVE",
"182 -3 OFFCURVE",
"348 -3 CURVE SMOOTH"
);
}
);
width = 800;
},
{
anchors = (
{
name = bottom;
position = "{339, 0}";
},
{
name = ogonek;
position = "{682, 0}";
},
{
name = top;
position = "{479, 700}";
},
{
name = topright;
position = "{717, 700}";
}
);
color = -1;
layerId = "5DA6E103-6A94-47F2-987D-4952DB8EA68E";
paths = (
{
closed = 1;
nodes = (
"370 -16 OFFCURVE",
"455 30 OFFCURVE",
"510 119 CURVE",
"486 164 LINE",
"453 0 LINE",
"682 0 LINE",
"822 700 LINE",
"586 700 LINE",
"508 310 LINE SMOOTH",
"488 211 OFFCURVE",
"435 175 OFFCURVE",
"374 175 CURVE SMOOTH",
"306 175 OFFCURVE",
"276 220 OFFCURVE",
"294 311 CURVE SMOOTH",
"372 700 LINE",
"136 700 LINE",
"59 315 LINE SMOOTH",
"17 105 OFFCURVE",
"111 -16 OFFCURVE",
"281 -16 CURVE SMOOTH"
);
}
);
width = 794;
},
{
anchors = (
{
name = bottom;
position = "{341, 0}";
},
{
name = ogonek;
position = "{641, 0}";
},
{
name = top;
position = "{481, 700}";
},
{
name = topright;
position = "{733, 700}";
}
);
color = -1;
layerId = "C4221BDF-4AE8-4E40-821A-B2476087DE1A";
paths = (
{
closed = 1;
nodes = (
"437 -9 OFFCURVE",
"522 37 OFFCURVE",
"578 119 CURVE",
"565 170 LINE",
"531 0 LINE",
"641 0 LINE",
"781 700 LINE",
"667 700 LINE",
"586 295 LINE SMOOTH",
"558 155 OFFCURVE",
"469 93 OFFCURVE",
"359 93 CURVE SMOOTH",
"240 93 OFFCURVE",
"187 162 OFFCURVE",
"215 300 CURVE SMOOTH",
"295 700 LINE",
"181 700 LINE",
"102 304 LINE SMOOTH",
"62 105 OFFCURVE",
"160 -9 OFFCURVE",
"327 -9 CURVE SMOOTH"
);
}
);
width = 794;
}
);
leftKerningGroup = U;
leftMetricsKey = U;
rightKerningGroup = H;
rightMetricsKey = H;
},
{
glyphname = W.ss01;
layers = (
{
anchors = (
{
name = bottom;
position = "{545, 0}";
},
{
name = top;
position = "{689, 700}";
}
);
color = -1;
layerId = UUID0;
paths = (
{
closed = 1;
nodes = (
"427 -3 OFFCURVE",
"522 51 OFFCURVE",
"578 182 CURVE",
"574 182 LINE",
"573 59 OFFCURVE",
"645 -3 OFFCURVE",
"773 -3 CURVE SMOOTH",
"928 -3 OFFCURVE",
"1022 83 OFFCURVE",
"1062 266 CURVE SMOOTH",
"1156 700 LINE",
"1136 700 LINE",
"1044 268 LINE SMOOTH",
"1007 97 OFFCURVE",
"919 16 OFFCURVE",
"774 16 CURVE SMOOTH",
"631 16 OFFCURVE",
"568 96 OFFCURVE",
"603 259 CURVE SMOOTH",
"698 700 LINE",
"678 700 LINE",
"587 279 LINE SMOOTH",
"548 97 OFFCURVE",
"451 16 OFFCURVE",
"317 16 CURVE SMOOTH",
"175 16 OFFCURVE",
"112 96 OFFCURVE",
"147 259 CURVE SMOOTH",
"242 700 LINE",
"222 700 LINE",
"127 258 LINE SMOOTH",
"90 85 OFFCURVE",
"166 -3 OFFCURVE",
"316 -3 CURVE SMOOTH"
);
}
);
width = 1195;
},
{
anchors = (
{
name = bottom;
position = "{554, 0}";
},
{
name = top;
position = "{697, 700}";
}
);
color = -1;
layerId = "5DA6E103-6A94-47F2-987D-4952DB8EA68E";
paths = (
{
closed = 1;
nodes = (
"460 -16 OFFCURVE",
"555 25 OFFCURVE",
"621 94 CURVE",
"537 94 LINE",
"584 25 OFFCURVE",
"666 -16 OFFCURVE",
"771 -16 CURVE SMOOTH",
"1000 -16 OFFCURVE",
"1120 76 OFFCURVE",
"1166 295 CURVE SMOOTH",
"1252 700 LINE",
"1022 700 LINE",
"935 290 LINE SMOOTH",
"919 214 OFFCURVE",
"885 175 OFFCURVE",
"804 175 CURVE SMOOTH",
"737 175 OFFCURVE",
"709 216 OFFCURVE",
"723 282 CURVE SMOOTH",
"812 700 LINE",
"582 700 LINE",
"495 290 LINE SMOOTH",
"479 214 OFFCURVE",
"445 175 OFFCURVE",
"373 175 CURVE SMOOTH",
"307 175 OFFCURVE",
"268 200 OFFCURVE",
"282 267 CURVE SMOOTH",
"371 700 LINE",
"141 700 LINE",
"57 305 LINE SMOOTH",
"15 104 OFFCURVE",
"151 -16 OFFCURVE",
"346 -16 CURVE SMOOTH"
);
}
);
width = 1218;
},
{
anchors = (
{
name = bottom;
position = "{552, 0}";
},
{
name = top;
position = "{690, 700}";
}
);
color = -1;
layerId = "C4221BDF-4AE8-4E40-821A-B2476087DE1A";
paths = (
{
closed = 1;
nodes = (
"443 -9 OFFCURVE",
"536 30 OFFCURVE",
"593 116 CURVE",
"553 116 LINE",
"579 33 OFFCURVE",
"657 -9 OFFCURVE",
"768 -9 CURVE SMOOTH",
"961 -9 OFFCURVE",
"1063 80 OFFCURVE",
"1105 280 CURVE SMOOTH",
"1194 700 LINE",
"1080 700 LINE",
"991 279 LINE SMOOTH",
"963 149 OFFCURVE",
"897 93 OFFCURVE",
"785 93 CURVE SMOOTH",
"681 93 OFFCURVE",
"629 149 OFFCURVE",
"655 270 CURVE SMOOTH",
"747 700 LINE",
"634 700 LINE",
"545 284 LINE SMOOTH",
"516 149 OFFCURVE",
"442 93 OFFCURVE",
"341 93 CURVE SMOOTH",
"237 93 OFFCURVE",
"183 149 OFFCURVE",
"209 270 CURVE SMOOTH",
"301 700 LINE",
"186 700 LINE",
"97 281 LINE SMOOTH",
"57 94 OFFCURVE",
"160 -9 OFFCURVE",
"339 -9 CURVE SMOOTH"
);
}
);
width = 1201;
},
{
anchors = (
{
name = top;
position = "{645, 700}";
}
);
associatedMasterId = UUID0;
color = -1;
layerId = "004914D5-52CA-4955-936B-99A035B2670F";
name = Jacques;
paths = (
{
closed = 1;
nodes = (
"404 -3 OFFCURVE",
"491 51 OFFCURVE",
"543 182 CURVE",
"539 182 LINE",
"537 59 OFFCURVE",
"604 -3 OFFCURVE",
"720 -3 CURVE SMOOTH",
"863 -3 OFFCURVE",
"951 83 OFFCURVE",
"988 266 CURVE SMOOTH",
"1075 700 LINE",
"1055 700 LINE",
"969 268 LINE SMOOTH",
"935 97 OFFCURVE",
"855 16 OFFCURVE",
"721 16 CURVE SMOOTH",
"591 16 OFFCURVE",
"534 96 OFFCURVE",
"567 259 CURVE SMOOTH",
"655 700 LINE",
"635 700 LINE",
"551 279 LINE SMOOTH",
"515 97 OFFCURVE",
"426 16 OFFCURVE",
"303 16 CURVE SMOOTH",
"172 16 OFFCURVE",
"114 96 OFFCURVE",
"147 259 CURVE SMOOTH",
"235 700 LINE",
"215 700 LINE",
"127 258 LINE SMOOTH",
"93 85 OFFCURVE",
"164 -3 OFFCURVE",
"302 -3 CURVE SMOOTH"
);
}
);
width = 1114;
},
{
anchors = (
{
name = top;
position = "{653, 700}";
}
);
associatedMasterId = "C4221BDF-4AE8-4E40-821A-B2476087DE1A";
color = -1;
layerId = "5E5AB5DD-825E-47E3-9BE0-128B8B0E1B7C";
name = Jacques;
paths = (
{
closed = 1;
nodes = (
"422 -9 OFFCURVE",
"508 30 OFFCURVE",
"561 116 CURVE",
"524 116 LINE",
"548 33 OFFCURVE",
"620 -9 OFFCURVE",
"723 -9 CURVE SMOOTH",
"900 -9 OFFCURVE",
"999 80 OFFCURVE",
"1039 280 CURVE SMOOTH",
"1123 700 LINE",
"1009 700 LINE",
"925 279 LINE SMOOTH",
"898 149 OFFCURVE",
"840 93 OFFCURVE",
"739 93 CURVE SMOOTH",
"643 93 OFFCURVE",
"599 149 OFFCURVE",
"623 270 CURVE SMOOTH",
"709 700 LINE",
"595 700 LINE",
"512 284 LINE SMOOTH",
"485 149 OFFCURVE",
"421 93 OFFCURVE",
"327 93 CURVE SMOOTH",
"230 93 OFFCURVE",
"185 149 OFFCURVE",
"209 270 CURVE SMOOTH",
"295 700 LINE",
"181 700 LINE",
"97 281 LINE SMOOTH",
"61 94 OFFCURVE",
"157 -9 OFFCURVE",
"325 -9 CURVE SMOOTH"
);
}
);
width = 1130;
},
{
anchors = (
{
name = top;
position = "{660, 700}";
}
);
associatedMasterId = "5DA6E103-6A94-47F2-987D-4952DB8EA68E";
color = -1;
layerId = "ECA76513-9BC8-4E01-BEBF-CCD51BC29AF5";
name = Jacques;
paths = (
{
closed = 1;
nodes = (
"437 -16 OFFCURVE",
"526 25 OFFCURVE",
"589 94 CURVE",
"509 94 LINE",
"554 25 OFFCURVE",
"627 -16 OFFCURVE",
"730 -16 CURVE SMOOTH",
"946 -16 OFFCURVE",
"1059 76 OFFCURVE",
"1103 295 CURVE SMOOTH",
"1184 700 LINE",
"948 700 LINE",
"866 290 LINE SMOOTH",
"849 204 OFFCURVE",
"819 175 OFFCURVE",
"761 175 CURVE SMOOTH",
"708 175 OFFCURVE",
"679 206 OFFCURVE",
"694 282 CURVE SMOOTH",
"778 700 LINE",
"542 700 LINE",
"460 290 LINE SMOOTH",
"443 204 OFFCURVE",
"413 175 OFFCURVE",
"355 175 CURVE SMOOTH",
"302 175 OFFCURVE",
"273 206 OFFCURVE",
"288 282 CURVE SMOOTH",
"372 700 LINE",
"136 700 LINE",
"57 305 LINE SMOOTH",
"17 104 OFFCURVE",
"145 -16 OFFCURVE",
"329 -16 CURVE SMOOTH"
);
}
);
width = 1150;
}
);
leftKerningGroup = U;
leftMetricsKey = U;
rightKerningGroup = U;
rightMetricsKey = U;
},
{
glyphname = Y.ss01;
layers = (
{
anchors = (
{
name = bottom;
position = "{601, 0}";
},
{
name = top;
position = "{481, 700}";
}
);
color = -1;
layerId = UUID0;
paths = (
{
closed = 1;
nodes = (
"682 461 LINE SMOOTH",
"646 283 OFFCURVE",
"533 200 OFFCURVE",
"382 200 CURVE SMOOTH",
"223 200 OFFCURVE",
"149 292 OFFCURVE",
"185 474 CURVE SMOOTH",
"230 700 LINE",
"210 700 LINE",
"165 473 LINE SMOOTH",
"127 281 OFFCURVE",
"214 181 OFFCURVE",
"380 181 CURVE SMOOTH",
"506 181 OFFCURVE",
"608 237 OFFCURVE",
"666 358 CURVE",
"662 360 LINE",
"629 194 LINE SMOOTH",
"592 7 OFFCURVE",
"483 -84 OFFCURVE",
"327 -84 CURVE SMOOTH",
"219 -84 OFFCURVE",
"148 -48 OFFCURVE",
"105 27 CURVE",
"88 13 LINE",
"130 -61 OFFCURVE",
"213 -103 OFFCURVE",
"325 -103 CURVE SMOOTH",
"492 -103 OFFCURVE",
"610 -5 OFFCURVE",
"649 193 CURVE SMOOTH",
"750 700 LINE",
"730 700 LINE"
);
}
);
width = 789;
},
{
anchors = (
{
name = bottom;
position = "{656, 0}";
},
{
name = top;
position = "{474, 700}";
}
);
color = -1;
layerId = "5DA6E103-6A94-47F2-987D-4952DB8EA68E";
paths = (
{
closed = 1;
nodes = (
"539 488 LINE SMOOTH",
"519 389 OFFCURVE",
"466 353 OFFCURVE",
"405 353 CURVE SMOOTH",
"337 353 OFFCURVE",
"307 398 OFFCURVE",
"325 489 CURVE SMOOTH",
"367 700 LINE",
"131 700 LINE",
"90 493 LINE SMOOTH",
"48 283 OFFCURVE",
"141 162 OFFCURVE",
"312 162 CURVE SMOOTH",
"401 162 OFFCURVE",
"486 208 OFFCURVE",
"541 297 CURVE",
"508 337 LINE",
"485 218 LINE SMOOTH",
"465 115 OFFCURVE",
"420 78 OFFCURVE",
"332 78 CURVE SMOOTH",
"260 78 OFFCURVE",
"188 100 OFFCURVE",
"121 144 CURVE",
"7 -25 LINE",
"84 -77 OFFCURVE",
"183 -110 OFFCURVE",
"322 -110 CURVE SMOOTH",
"538 -110 OFFCURVE",
"675 -8 OFFCURVE",
"719 211 CURVE SMOOTH",
"817 700 LINE",
"581 700 LINE"
);
}
);
width = 783;
},
{
anchors = (
{
name = bottom;
position = "{626, 0}";
},
{
name = top;
position = "{478, 700}";
}
);
color = -1;
layerId = "C4221BDF-4AE8-4E40-821A-B2476087DE1A";
paths = (
{
closed = 1;
nodes = (
"621 475 LINE SMOOTH",
"593 335 OFFCURVE",
"504 273 OFFCURVE",
"394 273 CURVE SMOOTH",
"275 273 OFFCURVE",
"218 342 OFFCURVE",
"246 480 CURVE SMOOTH",
"290 700 LINE",
"176 700 LINE",
"133 484 LINE SMOOTH",
"93 285 OFFCURVE",
"192 171 OFFCURVE",
"362 171 CURVE SMOOTH",
"472 171 OFFCURVE",
"557 217 OFFCURVE",
"613 299 CURVE",
"596 349 LINE",
"567 206 LINE SMOOTH",
"537 60 OFFCURVE",
"456 -4 OFFCURVE",
"330 -4 CURVE SMOOTH",
"240 -4 OFFCURVE",
"168 25 OFFCURVE",
"113 84 CURVE",
"54 -5 LINE",
"111 -69 OFFCURVE",
"201 -106 OFFCURVE",
"325 -106 CURVE SMOOTH",
"513 -106 OFFCURVE",
"639 -9 OFFCURVE",
"680 199 CURVE SMOOTH",
"780 700 LINE",
"666 700 LINE"
);
}
);
width = 787;
}
);
leftKerningGroup = Y.ss01;
leftMetricsKey = "=U-5";
rightKerningGroup = U;
rightMetricsKey = U;
},
{
glyphname = Z.ss01;
layers = (
{
anchors = (
{
name = bottom;
position = "{288, 0}";
},
{
name = top;
position = "{418, 700}";
}
);
color = -1;
layerId = UUID0;
paths = (
{
closed = 1;
nodes = (
"553 0 LINE",
"557 19 LINE",
"32 19 LINE",
"30 12 LINE",
"680 685 LINE",
"683 700 LINE",
"148 700 LINE",
"144 681 LINE",
"654 681 LINE",
"655 688 LINE",
"6 15 LINE",
"3 0 LINE"
);
},
{
closed = 1;
nodes = (
"333 346 LINE",
"340 346 LINE",
"538 346 LINE",
"542 365 LINE",
"358 365 LINE",
"351 365 LINE",
"142 365 LINE",
"138 346 LINE"
);
}
);
width = 649;
},
{
anchors = (
{
name = bottom;
position = "{304, 0}";
},
{
name = top;
position = "{444, 700}";
}
);
color = -1;
layerId = "5DA6E103-6A94-47F2-987D-4952DB8EA68E";
paths = (
{
closed = 1;
nodes = (
"625 0 LINE",
"661 178 LINE",
"226 178 LINE",
"247 111 LINE",
"723 571 LINE",
"749 700 LINE",
"132 700 LINE",
"98 523 LINE",
"507 523 LINE",
"484 589 LINE",
"8 130 LINE",
"-18 0 LINE"
);
},
{
closed = 1;
nodes = (
"278 277 LINE",
"338 273 LINE",
"616 273 LINE",
"648 433 LINE",
"480 433 LINE",
"420 437 LINE",
"119 437 LINE",
"87 277 LINE"
);
}
);
width = 697;
},
{
anchors = (
{
name = bottom;
position = "{294.99, 0}";
},
{
name = top;
position = "{429, 700}";
}
);
color = -1;
layerId = "C4221BDF-4AE8-4E40-821A-B2476087DE1A";
paths = (
{
closed = 1;
nodes = (
"584 0 LINE",
"604 99 LINE",
"117 99 LINE",
"127 55 LINE",
"697 622 LINE",
"713 700 LINE",
"143 700 LINE",
"123 601 LINE",
"588 601 LINE",
"578 645 LINE",
"8 78 LINE",
"-8 0 LINE"
);
},
{
closed = 1;
nodes = (
"308 309 LINE",
"338 307 LINE",
"571 307 LINE",
"590 402 LINE",
"413 402 LINE",
"383 404 LINE",
"134 404 LINE",
"115 309 LINE"
);
}
);
width = 670;
}
);
leftKerningGroup = Z;
leftMetricsKey = "=Z+5";
rightKerningGroup = Z;
rightMetricsKey = "=Z+5";
},
{
glyphname = Aogonek.loclNAV.ss01;
layers = (
{
anchors = (
{
name = ogonek;
position = "{625, 0}";
},
{
name = top;
position = "{490, 700}";
},
{
name = topleft;
position = "{179, 700}";
}
);
layerId = UUID0;
paths = (
{
closed = 1;
nodes = (
"96 0 LINE",
"177 406 LINE SMOOTH",
"214 594 OFFCURVE",
"311 684 OFFCURVE",
"477 684 CURVE SMOOTH",
"644 684 OFFCURVE",
"722 585 OFFCURVE",
"686 405 CURVE SMOOTH",
"605 0 LINE",
"625 0 LINE",
"706 407 LINE SMOOTH",
"743 593 OFFCURVE",
"657 703 OFFCURVE",
"477 703 CURVE SMOOTH",
"302 703 OFFCURVE",
"197 608 OFFCURVE",
"157 408 CURVE SMOOTH",
"76 0 LINE"
);
},
{
closed = 1;
nodes = (
"662 231 LINE",
"666 250 LINE",
"140 250 LINE",
"136 231 LINE"
);
},
{
closed = 1;
nodes = (
"355 -213 OFFCURVE",
"383 -204 OFFCURVE",
"406 -186 CURVE",
"398 -169 LINE",
"378 -185 OFFCURVE",
"352 -194 OFFCURVE",
"327 -194 CURVE SMOOTH",
"291 -194 OFFCURVE",
"270 -176 OFFCURVE",
"270 -142 CURVE SMOOTH",
"270 -93 OFFCURVE",
"316 -50 OFFCURVE",
"408 -7 CURVE",
"401 9 LINE",
"294 -39 OFFCURVE",
"250 -88 OFFCURVE",
"250 -144 CURVE SMOOTH",
"250 -187 OFFCURVE",
"280 -213 OFFCURVE",
"326 -213 CURVE SMOOTH"
);
}
);
width = 804;
},
{
anchors = (
{
name = ogonek;
position = "{652, 0}";
},
{
name = top;
position = "{486, 700}";
},
{
name = topleft;
position = "{160, 700}";
}
);
layerId = "C4221BDF-4AE8-4E40-821A-B2476087DE1A";
paths = (
{
closed = 1;
nodes = (
"153 0 LINE",
"233 400 LINE SMOOTH",
"262 546 OFFCURVE",
"337 607 OFFCURVE",
"460 607 CURVE SMOOTH",
"586 607 OFFCURVE",
"644 535 OFFCURVE",
"616 394 CURVE SMOOTH",
"538 0 LINE",
"652 0 LINE",
"729 387 LINE SMOOTH",
"769 589 OFFCURVE",
"664 709 OFFCURVE",
"471 709 CURVE SMOOTH",
"282 709 OFFCURVE",
"162 610 OFFCURVE",
"121 402 CURVE SMOOTH",
"41 0 LINE"
);
},
{
closed = 1;
nodes = (
"618 186 LINE",
"637 285 LINE",
"171 285 LINE",
"152 186 LINE"
);
},
{
closed = 1;
nodes = (
"359 -226 OFFCURVE",
"391 -217 OFFCURVE",
"418 -203 CURVE",
"405 -147 LINE",
"386 -157 OFFCURVE",
"361 -163 OFFCURVE",
"341 -163 CURVE SMOOTH",
"309 -163 OFFCURVE",
"289 -148 OFFCURVE",
"289 -123 CURVE SMOOTH",
"289 -87 OFFCURVE",
"331 -53 OFFCURVE",
"408 -26 CURVE",
"391 27 LINE",
"274 -10 OFFCURVE",
"210 -70 OFFCURVE",
"210 -136 CURVE SMOOTH",
"210 -193 OFFCURVE",
"257 -226 OFFCURVE",
"324 -226 CURVE SMOOTH"
);
}
);
width = 799;
},
{
anchors = (
{
name = ogonek;
position = "{686, 0}";
},
{
name = top;
position = "{477, 700}";
},
{
name = topleft;
position = "{136, 700}";
}
);
layerId = "5DA6E103-6A94-47F2-987D-4952DB8EA68E";
paths = (
{
closed = 1;
nodes = (
"228 0 LINE",
"306 391 LINE SMOOTH",
"325 486 OFFCURVE",
"371 525 OFFCURVE",
"439 525 CURVE SMOOTH",
"511 525 OFFCURVE",
"546 480 OFFCURVE",
"526 381 CURVE SMOOTH",
"450 0 LINE",
"686 0 LINE",
"759 365 LINE SMOOTH",
"803 584 OFFCURVE",
"679 716 OFFCURVE",
"463 716 CURVE SMOOTH",
"256 716 OFFCURVE",
"117 605 OFFCURVE",
"75 395 CURVE SMOOTH",
"-4 0 LINE"
);
},
{
closed = 1;
nodes = (
"562 141 LINE",
"598 319 LINE",
"208 319 LINE",
"172 141 LINE"
);
},
{
closed = 1;
nodes = (
"362 -240 OFFCURVE",
"400 -230 OFFCURVE",
"427 -217 CURVE",
"418 -124 LINE",
"402 -131 OFFCURVE",
"380 -138 OFFCURVE",
"360 -138 CURVE SMOOTH",
"326 -138 OFFCURVE",
"312 -120 OFFCURVE",
"312 -103 CURVE SMOOTH",
"312 -75 OFFCURVE",
"352 -47 OFFCURVE",
"425 -29 CURVE",
"398 37 LINE",
"270 15 OFFCURVE",
"173 -54 OFFCURVE",
"173 -136 CURVE SMOOTH",
"173 -200 OFFCURVE",
"231 -240 OFFCURVE",
"319 -240 CURVE SMOOTH"
);
}
);
width = 792;
}
);
},
{
glyphname = Eogonek.loclNAV.ss01;
layers = (
{
anchors = (
{
name = top;
position = "{422, 700}";
},
{
name = topleft;
position = "{154, 700}";
}
);
layerId = UUID0;
paths = (
{
closed = 1;
nodes = (
"216 -22 OFFCURVE",
"160 -85 OFFCURVE",
"160 -144 CURVE SMOOTH",
"160 -187 OFFCURVE",
"190 -213 OFFCURVE",
"236 -213 CURVE SMOOTH",
"265 -213 OFFCURVE",
"293 -204 OFFCURVE",
"316 -186 CURVE",
"308 -169 LINE",
"288 -185 OFFCURVE",
"262 -194 OFFCURVE",
"237 -194 CURVE SMOOTH",
"201 -194 OFFCURVE",
"180 -173 OFFCURVE",
"180 -142 CURVE SMOOTH",
"180 -82 OFFCURVE",
"256 -15 OFFCURVE",
"373 5 CURVE SMOOTH",
"431 15 OFFCURVE",
"507 40 OFFCURVE",
"555 91 CURVE",
"541 106 LINE",
"488 50 OFFCURVE",
"391 16 OFFCURVE",
"282 16 CURVE SMOOTH",
"143 16 OFFCURVE",
"66 68 OFFCURVE",
"66 161 CURVE SMOOTH",
"66 274 OFFCURVE",
"164 346 OFFCURVE",
"321 346 CURVE SMOOTH",
"484 346 LINE",
"488 365 LINE",
"324 365 LINE SMOOTH",
"222 365 OFFCURVE",
"163 414 OFFCURVE",
"163 496 CURVE SMOOTH",
"163 609 OFFCURVE",
"264 684 OFFCURVE",
"413 684 CURVE SMOOTH",
"494 684 OFFCURVE",
"559 666 OFFCURVE",
"617 627 CURVE",
"629 644 LINE",
"573 683 OFFCURVE",
"498 703 OFFCURVE",
"414 703 CURVE SMOOTH",
"253 703 OFFCURVE",
"144 621 OFFCURVE",
"144 494 CURVE SMOOTH",
"144 405 OFFCURVE",
"209 349 OFFCURVE",
"314 349 CURVE",
"312 362 LINE",
"151 362 OFFCURVE",
"46 283 OFFCURVE",
"46 159 CURVE SMOOTH",
"46 57 OFFCURVE",
"132 -3 OFFCURVE",
"279 -3 CURVE SMOOTH",
"289 -3 OFFCURVE",
"299 -3 OFFCURVE",
"309 -2 CURVE",
"328 13 LINE"
);
}
);
width = 614;
},
{
anchors = (
{
name = top;
position = "{441, 700}";
},
{
name = topleft;
position = "{125, 700}";
}
);
layerId = "C4221BDF-4AE8-4E40-821A-B2476087DE1A";
paths = (
{
closed = 1;
nodes = (
"233 -5 OFFCURVE",
"172 -63 OFFCURVE",
"172 -133 CURVE SMOOTH",
"172 -193 OFFCURVE",
"218 -226 OFFCURVE",
"286 -226 CURVE SMOOTH",
"322 -226 OFFCURVE",
"353 -217 OFFCURVE",
"380 -203 CURVE",
"367 -147 LINE",
"348 -157 OFFCURVE",
"324 -163 OFFCURVE",
"303 -163 CURVE SMOOTH",
"271 -163 OFFCURVE",
"251 -149 OFFCURVE",
"251 -119 CURVE SMOOTH",
"251 -64 OFFCURVE",
"316 -26 OFFCURVE",
"417 -2 CURVE SMOOTH",
"482 13 OFFCURVE",
"547 30 OFFCURVE",
"603 67 CURVE",
"567 157 LINE",
"512 116 OFFCURVE",
"422 89 OFFCURVE",
"323 89 CURVE SMOOTH",
"203 89 OFFCURVE",
"147 126 OFFCURVE",
"147 191 CURVE SMOOTH",
"147 263 OFFCURVE",
"215 305 OFFCURVE",
"321 305 CURVE SMOOTH",
"518 305 LINE",
"538 403 LINE",
"355 403 LINE SMOOTH",
"282 403 OFFCURVE",
"241 432 OFFCURVE",
"241 488 CURVE SMOOTH",
"241 561 OFFCURVE",
"312 611 OFFCURVE",
"441 611 CURVE SMOOTH",
"505 611 OFFCURVE",
"576 599 OFFCURVE",
"638 564 CURVE",
"677 655 LINE",
"620 690 OFFCURVE",
"536 709 OFFCURVE",
"446 709 CURVE SMOOTH",
"252 709 OFFCURVE",
"126 620 OFFCURVE",
"126 489 CURVE SMOOTH",
"126 400 OFFCURVE",
"184 344 OFFCURVE",
"269 344 CURVE",
"270 378 LINE",
"133 378 OFFCURVE",
"32 294 OFFCURVE",
"32 179 CURVE SMOOTH",
"32 60 OFFCURVE",
"142 -9 OFFCURVE",
"310 -9 CURVE SMOOTH",
"320 -9 OFFCURVE",
"330 -9 OFFCURVE",
"340 -8 CURVE",
"344 39 LINE"
);
}
);
width = 649;
},
{
anchors = (
{
name = top;
position = "{460, 700}";
},
{
name = topleft;
position = "{82, 700}";
}
);
layerId = "5DA6E103-6A94-47F2-987D-4952DB8EA68E";
paths = (
{
closed = 1;
nodes = (
"257 16 OFFCURVE",
"167 -44 OFFCURVE",
"167 -132 CURVE SMOOTH",
"167 -200 OFFCURVE",
"225 -240 OFFCURVE",
"313 -240 CURVE SMOOTH",
"356 -240 OFFCURVE",
"394 -230 OFFCURVE",
"421 -217 CURVE",
"412 -124 LINE",
"396 -131 OFFCURVE",
"374 -138 OFFCURVE",
"354 -138 CURVE SMOOTH",
"323 -138 OFFCURVE",
"306 -122 OFFCURVE",
"306 -97 CURVE SMOOTH",
"306 -59 OFFCURVE",
"343 -31 OFFCURVE",
"448 -10 CURVE SMOOTH",
"515 3 OFFCURVE",
"601 21 OFFCURVE",
"651 48 CURVE",
"601 216 LINE",
"542 185 OFFCURVE",
"467 164 OFFCURVE",
"376 164 CURVE SMOOTH",
"290 164 OFFCURVE",
"252 183 OFFCURVE",
"252 216 CURVE SMOOTH",
"252 247 OFFCURVE",
"284 266 OFFCURVE",
"330 266 CURVE SMOOTH",
"561 266 LINE",
"596 440 LINE",
"404 440 LINE SMOOTH",
"354 440 OFFCURVE",
"334 453 OFFCURVE",
"334 477 CURVE SMOOTH",
"334 511 OFFCURVE",
"372 536 OFFCURVE",
"463 536 CURVE SMOOTH",
"518 536 OFFCURVE",
"594 527 OFFCURVE",
"660 498 CURVE",
"735 667 LINE",
"676 697 OFFCURVE",
"581 716 OFFCURVE",
"479 716 CURVE SMOOTH",
"246 716 OFFCURVE",
"98 617 OFFCURVE",
"98 480 CURVE SMOOTH",
"98 396 OFFCURVE",
"154 335 OFFCURVE",
"277 335 CURVE",
"282 387 LINE",
"126 387 OFFCURVE",
"10 309 OFFCURVE",
"10 185 CURVE SMOOTH",
"10 56 OFFCURVE",
"134 -16 OFFCURVE",
"342 -16 CURVE SMOOTH",
"367 -16 OFFCURVE",
"383 -15 OFFCURVE",
"393 -15 CURVE",
"380 49 LINE"
);
}
);
width = 695;
}
);
},
{
glyphname = Uogonek.loclNAV.ss01;
layers = (
{
anchors = (
{
name = bottom;
position = "{345, 0}";
},
{
name = ogonek;
position = "{615, 0}";
},
{
name = top;
position = "{485, 700}";
},
{
name = topright;
position = "{745, 700}";
}
);
layerId = UUID0;
paths = (
{
closed = 1;
nodes = (
"341 -213 OFFCURVE",
"369 -204 OFFCURVE",
"392 -186 CURVE",
"384 -169 LINE",
"364 -185 OFFCURVE",
"338 -194 OFFCURVE",
"313 -194 CURVE SMOOTH",
"277 -194 OFFCURVE",
"256 -176 OFFCURVE",
"256 -142 CURVE SMOOTH",
"256 -83 OFFCURVE",
"324 -23 OFFCURVE",
"448 7 CURVE SMOOTH",
"531 27 OFFCURVE",
"596 81 OFFCURVE",
"639 176 CURVE",
"630 176 LINE",
"595 0 LINE",
"615 0 LINE",
"755 700 LINE",
"735 700 LINE",
"655 294 LINE SMOOTH",
"618 106 OFFCURVE",
"521 16 OFFCURVE",
"361 16 CURVE SMOOTH",
"195 16 OFFCURVE",
"120 116 OFFCURVE",
"155 295 CURVE SMOOTH",
"235 700 LINE",
"215 700 LINE",
"135 293 LINE SMOOTH",
"98 107 OFFCURVE",
"184 -3 OFFCURVE",
"361 -3 CURVE SMOOTH",
"376 -3 OFFCURVE",
"390 -2 OFFCURVE",
"401 -1 CURVE",
"368 1 LINE",
"275 -43 OFFCURVE",
"236 -91 OFFCURVE",
"236 -144 CURVE SMOOTH",
"236 -187 OFFCURVE",
"266 -213 OFFCURVE",
"311 -213 CURVE SMOOTH"
);
}
);
width = 800;
},
{
anchors = (
{
name = bottom;
position = "{341, 0}";
},
{
name = ogonek;
position = "{641, 0}";
},
{
name = top;
position = "{481, 700}";
},
{
name = topright;
position = "{733, 700}";
}
);
layerId = "C4221BDF-4AE8-4E40-821A-B2476087DE1A";
paths = (
{
closed = 1;
nodes = (
"361 -226 OFFCURVE",
"392 -217 OFFCURVE",
"419 -203 CURVE",
"406 -147 LINE",
"387 -157 OFFCURVE",
"363 -163 OFFCURVE",
"342 -163 CURVE SMOOTH",
"309 -163 OFFCURVE",
"290 -148 OFFCURVE",
"290 -120 CURVE SMOOTH",
"290 -71 OFFCURVE",
"346 -33 OFFCURVE",
"411 -5 CURVE SMOOTH",
"476 23 OFFCURVE",
"539 52 OFFCURVE",
"578 119 CURVE",
"565 170 LINE",
"531 0 LINE",
"641 0 LINE",
"781 700 LINE",
"667 700 LINE",
"586 295 LINE SMOOTH",
"558 155 OFFCURVE",
"469 93 OFFCURVE",
"358 93 CURVE SMOOTH",
"241 93 OFFCURVE",
"187 162 OFFCURVE",
"215 300 CURVE SMOOTH",
"295 700 LINE",
"181 700 LINE",
"102 304 LINE SMOOTH",
"62 105 OFFCURVE",
"160 -9 OFFCURVE",
"327 -9 CURVE SMOOTH",
"344 -9 OFFCURVE",
"359 -8 OFFCURVE",
"375 -6 CURVE",
"383 46 LINE",
"272 -5 OFFCURVE",
"211 -63 OFFCURVE",
"211 -133 CURVE SMOOTH",
"211 -193 OFFCURVE",
"257 -226 OFFCURVE",
"325 -226 CURVE SMOOTH"
);
}
);
width = 794;
},
{
anchors = (
{
name = bottom;
position = "{339, 0}";
},
{
name = ogonek;
position = "{682, 0}";
},
{
name = top;
position = "{479, 700}";
},
{
name = topright;
position = "{717, 700}";
}
);
layerId = "5DA6E103-6A94-47F2-987D-4952DB8EA68E";
paths = (
{
closed = 1;
nodes = (
"379 -240 OFFCURVE",
"417 -230 OFFCURVE",
"444 -217 CURVE",
"435 -124 LINE",
"419 -131 OFFCURVE",
"397 -138 OFFCURVE",
"377 -138 CURVE SMOOTH",
"346 -138 OFFCURVE",
"329 -122 OFFCURVE",
"329 -96 CURVE SMOOTH",
"329 -61 OFFCURVE",
"364 -27 OFFCURVE",
"398 1 CURVE SMOOTH",
"451 45 OFFCURVE",
"485 75 OFFCURVE",
"510 114 CURVE",
"486 164 LINE",
"453 0 LINE",
"682 0 LINE",
"822 700 LINE",
"586 700 LINE",
"508 310 LINE SMOOTH",
"488 211 OFFCURVE",
"437 175 OFFCURVE",
"375 175 CURVE SMOOTH",
"306 175 OFFCURVE",
"276 220 OFFCURVE",
"294 311 CURVE SMOOTH",
"372 700 LINE",
"136 700 LINE",
"59 315 LINE SMOOTH",
"17 105 OFFCURVE",
"111 -16 OFFCURVE",
"281 -16 CURVE SMOOTH",
"296 -16 OFFCURVE",
"310 -15 OFFCURVE",
"324 -12 CURVE",
"385 99 LINE",
"278 22 OFFCURVE",
"190 -44 OFFCURVE",
"190 -132 CURVE SMOOTH",
"190 -200 OFFCURVE",
"248 -240 OFFCURVE",
"336 -240 CURVE SMOOTH"
);
}
);
width = 794;
}
);
},
{
glyphname = a;
layers = (
{
anchors = (
{
name = bottom;
position = "{265, 0}";
},
{
name = ogonek;
position = "{504, 0}";
},
{
name = top;
position = "{368, 517}";
}
);
color = -1;
layerId = UUID0;
paths = (
{
closed = 1;
nodes = (
"440 -3 OFFCURVE",
"558 133 OFFCURVE",
"557 312 CURVE SMOOTH",
"556 442 OFFCURVE",
"479 520 OFFCURVE",
"341 520 CURVE SMOOTH",
"171 520 OFFCURVE",
"49 386 OFFCURVE",
"49 207 CURVE SMOOTH",
"49 78 OFFCURVE",
"134 -3 OFFCURVE",
"269 -3 CURVE SMOOTH"
);
},
{
closed = 1;
nodes = (
"144 16 OFFCURVE",
"69 86 OFFCURVE",
"69 208 CURVE SMOOTH",
"69 376 OFFCURVE",
"183 501 OFFCURVE",
"338 501 CURVE SMOOTH",
"466 501 OFFCURVE",
"541 431 OFFCURVE",
"541 309 CURVE SMOOTH",
"541 140 OFFCURVE",
"427 16 OFFCURVE",
"272 16 CURVE SMOOTH"
);
},
{
closed = 1;
nodes = (
"505 0 LINE",
"608 517 LINE",
"588 517 LINE",
"550 327 LINE",
"547 250 LINE",
"521 180 LINE",
"485 0 LINE"
);
}
);
width = 671;
},
{
anchors = (
{
name = bottom;
position = "{312, 0}";
},
{
name = ogonek;
position = "{596, 0}";
},
{
name = top;
position = "{421, 547}";
}
);
color = -1;
layerId = "5DA6E103-6A94-47F2-987D-4952DB8EA68E";
paths = (
{
closed = 1;
nodes = (
"378 -10 OFFCURVE",
"464 97 OFFCURVE",
"493 274 CURVE SMOOTH",
"527 489 OFFCURVE",
"438 557 OFFCURVE",
"311 557 CURVE SMOOTH",
"154 557 OFFCURVE",
"20 423 OFFCURVE",
"20 243 CURVE SMOOTH",
"20 80 OFFCURVE",
"136 -10 OFFCURVE",
"245 -10 CURVE SMOOTH"
);
},
{
closed = 1;
nodes = (
"279 168 OFFCURVE",
"249 203 OFFCURVE",
"249 254 CURVE SMOOTH",
"249 330 OFFCURVE",
"289 379 OFFCURVE",
"348 379 CURVE SMOOTH",
"399 379 OFFCURVE",
"429 344 OFFCURVE",
"429 293 CURVE SMOOTH",
"429 217 OFFCURVE",
"389 168 OFFCURVE",
"330 168 CURVE SMOOTH"
);
},
{
closed = 1;
nodes = (
"596 0 LINE",
"705 547 LINE",
"479 547 LINE",
"464 472 LINE",
"435 274 LINE",
"398 74 LINE",
"383 0 LINE"
);
}
);
width = 700;
},
{
anchors = (
{
name = bottom;
position = "{286, 0}";
},
{
name = ogonek;
position = "{544, 0}";
},
{
name = top;
position = "{391, 532}";
}
);
color = -1;
layerId = "C4221BDF-4AE8-4E40-821A-B2476087DE1A";
paths = (
{
closed = 1;
nodes = (
"449 -6 OFFCURVE",
"555 129 OFFCURVE",
"555 330 CURVE SMOOTH",
"555 464 OFFCURVE",
"473 538 OFFCURVE",
"338 538 CURVE SMOOTH",
"165 538 OFFCURVE",
"36 408 OFFCURVE",
"36 226 CURVE SMOOTH",
"36 80 OFFCURVE",
"138 -6 OFFCURVE",
"273 -6 CURVE SMOOTH"
);
},
{
closed = 1;
nodes = (
"201 90 OFFCURVE",
"147 143 OFFCURVE",
"147 231 CURVE SMOOTH",
"147 355 OFFCURVE",
"230 442 OFFCURVE",
"343 442 CURVE SMOOTH",
"439 442 OFFCURVE",
"493 389 OFFCURVE",
"493 301 CURVE SMOOTH",
"493 177 OFFCURVE",
"410 90 OFFCURVE",
"297 90 CURVE SMOOTH"
);
},
{
closed = 1;
nodes = (
"544 0 LINE",
"650 532 LINE",
"540 532 LINE",
"513 397 LINE",
"498 262 LINE",
"465 129 LINE",
"439 0 LINE"
);
}
);
width = 684;
}
);
leftKerningGroup = o;
leftMetricsKey = o;
rightKerningGroup = u;
rightMetricsKey = "=|n";
unicode = 0061;
},
{
glyphname = ae;
layers = (
{
anchors = (
{
name = top;
position = "{506, 517}";
}
);
color = -1;
layerId = UUID0;
paths = (
{
closed = 1;
nodes = (
"309 -3 OFFCURVE",
"414 53 OFFCURVE",
"449 187 CURVE",
"443 189 LINE",
"452 63 OFFCURVE",
"539 -3 OFFCURVE",
"671 -3 CURVE SMOOTH",
"755 -3 OFFCURVE",
"828 30 OFFCURVE",
"872 80 CURVE",
"859 93 LINE",
"816 45 OFFCURVE",
"750 16 OFFCURVE",
"673 16 CURVE SMOOTH",
"536 16 OFFCURVE",
"462 85 OFFCURVE",
"462 210 CURVE SMOOTH",
"462 377 OFFCURVE",
"574 501 OFFCURVE",
"719 501 CURVE SMOOTH",
"848 501 OFFCURVE",
"933 418 OFFCURVE",
"909 267 CURVE",
"919 280 LINE",
"465 280 LINE",
"461 261 LINE",
"926 261 LINE",
"929 274 OFFCURVE",
"932 292 OFFCURVE",
"932 310 CURVE SMOOTH",
"932 441 OFFCURVE",
"852 520 OFFCURVE",
"720 520 CURVE SMOOTH",
"616 520 OFFCURVE",
"524 461 OFFCURVE",
"475 359 CURVE",
"481 350 LINE",
"497 454 OFFCURVE",
"446 520 OFFCURVE",
"323 520 CURVE SMOOTH",
"247 520 OFFCURVE",
"168 491 OFFCURVE",
"116 444 CURVE",
"128 430 LINE",
"176 472 OFFCURVE",
"248 501 OFFCURVE",
"322 501 CURVE SMOOTH",
"436 501 OFFCURVE",
"482 443 OFFCURVE",
"459 331 CURVE SMOOTH",
"433 202 LINE SMOOTH",
"409 82 OFFCURVE",
"315 16 OFFCURVE",
"208 16 CURVE SMOOTH",
"112 16 OFFCURVE",
"60 54 OFFCURVE",
"60 123 CURVE SMOOTH",
"60 209 OFFCURVE",
"130 261 OFFCURVE",
"252 261 CURVE SMOOTH",
"451 261 LINE",
"455 280 LINE",
"252 280 LINE SMOOTH",
"120 280 OFFCURVE",
"40 221 OFFCURVE",
"40 122 CURVE SMOOTH",
"40 44 OFFCURVE",
"102 -3 OFFCURVE",
"206 -3 CURVE SMOOTH"
);
}
);
width = 983;
},
{
anchors = (
{
name = top;
position = "{529, 547}";
}
);
color = -1;
guideLines = (
{
position = "{589, 219}";
},
{
position = "{742, 328}";
}
);
layerId = "5DA6E103-6A94-47F2-987D-4952DB8EA68E";
paths = (
{
closed = 1;
nodes = (
"349 -10 OFFCURVE",
"428 21 OFFCURVE",
"503 155 CURVE",
"395 155 LINE",
"440 35 OFFCURVE",
"559 -10 OFFCURVE",
"670 -10 CURVE SMOOTH",
"755 -10 OFFCURVE",
"836 7 OFFCURVE",
"913 58 CURVE",
"816 195 LINE",
"781 169 OFFCURVE",
"737 157 OFFCURVE",
"695 157 CURVE SMOOTH",
"623 157 OFFCURVE",
"585 183 OFFCURVE",
"585 251 CURVE SMOOTH",
"585 327 OFFCURVE",
"613 403 OFFCURVE",
"697 403 CURVE SMOOTH",
"755 403 OFFCURVE",
"792 364 OFFCURVE",
"777 301 CURVE",
"823 328 LINE",
"584 328 LINE",
"562 219 LINE",
"979 219 LINE",
"986 250 OFFCURVE",
"991 282 OFFCURVE",
"991 316 CURVE SMOOTH",
"991 457 OFFCURVE",
"886 557 OFFCURVE",
"708 557 CURVE SMOOTH",
"598 557 OFFCURVE",
"542 520 OFFCURVE",
"476 451 CURVE",
"558 451 LINE",
"516 524 OFFCURVE",
"442 557 OFFCURVE",
"315 557 CURVE SMOOTH",
"242 557 OFFCURVE",
"147 541 OFFCURVE",
"84 508 CURVE",
"138 359 LINE",
"175 377 OFFCURVE",
"227 389 OFFCURVE",
"271 389 CURVE SMOOTH",
"341 389 OFFCURVE",
"378 360 OFFCURVE",
"368 307 CURVE SMOOTH",
"347 200 LINE SMOOTH",
"337 149 OFFCURVE",
"313 126 OFFCURVE",
"274 126 CURVE SMOOTH",
"241 126 OFFCURVE",
"220 145 OFFCURVE",
"220 168 CURVE SMOOTH",
"220 200 OFFCURVE",
"246 219 OFFCURVE",
"290 219 CURVE SMOOTH",
"367 219 LINE",
"389 328 LINE",
"267 328 LINE SMOOTH",
"101 328 OFFCURVE",
"2 264 OFFCURVE",
"2 150 CURVE SMOOTH",
"2 60 OFFCURVE",
"88 -10 OFFCURVE",
"229 -10 CURVE SMOOTH"
);
}
);
width = 1002;
},
{
anchors = (
{
name = top;
position = "{514, 531}";
}
);
color = 3;
layerId = "C4221BDF-4AE8-4E40-821A-B2476087DE1A";
paths = (
{
closed = 1;
nodes = (
"340 -6 OFFCURVE",
"444 37 OFFCURVE",
"485 171 CURVE",
"421 173 LINE",
"446 49 OFFCURVE",
"547 -6 OFFCURVE",
"665 -6 CURVE SMOOTH",
"746 -6 OFFCURVE",
"827 19 OFFCURVE",
"883 68 CURVE",
"835 148 LINE",
"796 110 OFFCURVE",
"744 90 OFFCURVE",
"675 90 CURVE SMOOTH",
"568 90 OFFCURVE",
"515 135 OFFCURVE",
"515 232 CURVE SMOOTH",
"515 361 OFFCURVE",
"593 446 OFFCURVE",
"706 446 CURVE SMOOTH",
"801 446 OFFCURVE",
"864 388 OFFCURVE",
"848 283 CURVE",
"894 310 LINE",
"500 310 LINE",
"487 231 LINE",
"948 231 LINE",
"953 254 OFFCURVE",
"956 279 OFFCURVE",
"956 305 CURVE SMOOTH",
"956 451 OFFCURVE",
"856 538 OFFCURVE",
"711 538 CURVE SMOOTH",
"612 538 OFFCURVE",
"517 490 OFFCURVE",
"465 404 CURVE",
"522 399 LINE",
"513 488 OFFCURVE",
"444 538 OFFCURVE",
"319 538 CURVE SMOOTH",
"245 538 OFFCURVE",
"159 518 OFFCURVE",
"99 477 CURVE",
"132 390 LINE",
"175 421 OFFCURVE",
"239 442 OFFCURVE",
"302 442 CURVE SMOOTH",
"395 442 OFFCURVE",
"435 398 OFFCURVE",
"419 319 CURVE SMOOTH",
"395 201 LINE SMOOTH",
"377 115 OFFCURVE",
"314 78 OFFCURVE",
"239 78 CURVE SMOOTH",
"166 78 OFFCURVE",
"134 105 OFFCURVE",
"134 150 CURVE SMOOTH",
"134 200 OFFCURVE",
"175 231 OFFCURVE",
"248 231 CURVE SMOOTH",
"414 231 LINE",
"425 310 LINE",
"258 310 LINE SMOOTH",
"101 310 OFFCURVE",
"25 242 OFFCURVE",
"25 143 CURVE SMOOTH",
"25 52 OFFCURVE",
"99 -6 OFFCURVE",
"229 -6 CURVE SMOOTH"
);
}
);
width = 990;
},
{
anchors = (
{
name = top;
position = "{506, 517}";
}
);
associatedMasterId = UUID0;
color = -1;
layerId = "F938FD17-618D-476A-A4FB-45A5C6A07D64";
name = Jacques;
paths = (
{
closed = 1;
nodes = (
"309 -3 OFFCURVE",
"414 53 OFFCURVE",
"449 187 CURVE",
"443 189 LINE",
"452 63 OFFCURVE",
"542 -3 OFFCURVE",
"679 -3 CURVE SMOOTH",
"767 -3 OFFCURVE",
"845 30 OFFCURVE",
"889 80 CURVE",
"876 93 LINE",
"833 45 OFFCURVE",
"762 16 OFFCURVE",
"681 16 CURVE SMOOTH",
"539 16 OFFCURVE",
"462 85 OFFCURVE",
"462 210 CURVE SMOOTH",
"462 377 OFFCURVE",
"576 501 OFFCURVE",
"729 501 CURVE SMOOTH",
"862 501 OFFCURVE",
"950 418 OFFCURVE",
"926 267 CURVE",
"936 280 LINE",
"465 280 LINE",
"461 261 LINE",
"943 261 LINE",
"946 274 OFFCURVE",
"949 292 OFFCURVE",
"949 310 CURVE SMOOTH",
"949 441 OFFCURVE",
"866 520 OFFCURVE",
"730 520 CURVE SMOOTH",
"621 520 OFFCURVE",
"524 461 OFFCURVE",
"475 359 CURVE",
"481 350 LINE",
"497 454 OFFCURVE",
"446 520 OFFCURVE",
"323 520 CURVE SMOOTH",
"247 520 OFFCURVE",
"168 491 OFFCURVE",
"116 444 CURVE",
"128 430 LINE",
"176 472 OFFCURVE",
"248 501 OFFCURVE",
"322 501 CURVE SMOOTH",
"436 501 OFFCURVE",
"482 443 OFFCURVE",
"459 331 CURVE SMOOTH",
"433 202 LINE SMOOTH",
"409 82 OFFCURVE",
"315 16 OFFCURVE",
"208 16 CURVE SMOOTH",
"112 16 OFFCURVE",
"60 54 OFFCURVE",
"60 123 CURVE SMOOTH",
"60 209 OFFCURVE",
"130 261 OFFCURVE",
"252 261 CURVE SMOOTH",
"451 261 LINE",
"455 280 LINE",
"252 280 LINE SMOOTH",
"120 280 OFFCURVE",
"40 221 OFFCURVE",
"40 122 CURVE SMOOTH",
"40 44 OFFCURVE",
"102 -3 OFFCURVE",
"206 -3 CURVE SMOOTH"
);
}
);
width = 997;
},
{
anchors = (
{
name = top;
position = "{514, 531}";
}
);
associatedMasterId = "C4221BDF-4AE8-4E40-821A-B2476087DE1A";
color = 3;
layerId = "9242A276-88AC-4693-A234-6EE05B1A73BF";
name = Jacques;
paths = (
{
closed = 1;
nodes = (
"340 -6 OFFCURVE",
"444 37 OFFCURVE",
"485 171 CURVE",
"421 173 LINE",
"446 49 OFFCURVE",
"547 -6 OFFCURVE",
"670 -6 CURVE SMOOTH",
"756 -6 OFFCURVE",
"837 19 OFFCURVE",
"893 68 CURVE",
"845 148 LINE",
"806 110 OFFCURVE",
"744 90 OFFCURVE",
"680 90 CURVE SMOOTH",
"568 90 OFFCURVE",
"515 135 OFFCURVE",
"515 232 CURVE SMOOTH",
"515 361 OFFCURVE",
"593 446 OFFCURVE",
"711 446 CURVE SMOOTH",
"811 446 OFFCURVE",
"874 388 OFFCURVE",
"858 283 CURVE",
"904 310 LINE",
"500 310 LINE",
"487 231 LINE",
"958 231 LINE",
"963 254 OFFCURVE",
"966 279 OFFCURVE",
"966 305 CURVE SMOOTH",
"966 451 OFFCURVE",
"866 538 OFFCURVE",
"716 538 CURVE SMOOTH",
"612 538 OFFCURVE",
"517 490 OFFCURVE",
"465 404 CURVE",
"522 399 LINE",
"513 488 OFFCURVE",
"444 538 OFFCURVE",
"319 538 CURVE SMOOTH",
"245 538 OFFCURVE",
"159 518 OFFCURVE",
"99 477 CURVE",
"132 390 LINE",
"175 421 OFFCURVE",
"239 442 OFFCURVE",
"302 442 CURVE SMOOTH",
"395 442 OFFCURVE",
"435 398 OFFCURVE",
"419 319 CURVE SMOOTH",
"395 201 LINE SMOOTH",
"377 115 OFFCURVE",
"314 78 OFFCURVE",
"239 78 CURVE SMOOTH",
"166 78 OFFCURVE",
"134 105 OFFCURVE",
"134 150 CURVE SMOOTH",
"134 200 OFFCURVE",
"175 231 OFFCURVE",
"248 231 CURVE SMOOTH",
"414 231 LINE",
"425 310 LINE",
"258 310 LINE SMOOTH",
"101 310 OFFCURVE",
"25 242 OFFCURVE",
"25 143 CURVE SMOOTH",
"25 52 OFFCURVE",
"99 -6 OFFCURVE",
"229 -6 CURVE SMOOTH"
);
}
);
width = 1002;
},
{
anchors = (
{
name = top;
position = "{529, 547}";
}
);
associatedMasterId = "5DA6E103-6A94-47F2-987D-4952DB8EA68E";
color = -1;
guideLines = (
{
position = "{589, 219}";
},
{
position = "{742, 328}";
}
);
layerId = "1DA4FCD5-FB7F-484D-8641-93FA7EBDAD75";
name = Jacques;
paths = (
{
closed = 1;
nodes = (
"349 -10 OFFCURVE",
"428 21 OFFCURVE",
"503 155 CURVE",
"395 155 LINE",
"440 35 OFFCURVE",
"559 -10 OFFCURVE",
"670 -10 CURVE SMOOTH",
"755 -10 OFFCURVE",
"836 7 OFFCURVE",
"913 58 CURVE",
"816 195 LINE",
"781 169 OFFCURVE",
"737 157 OFFCURVE",
"695 157 CURVE SMOOTH",
"623 157 OFFCURVE",
"585 183 OFFCURVE",
"585 251 CURVE SMOOTH",
"585 327 OFFCURVE",
"613 403 OFFCURVE",
"697 403 CURVE SMOOTH",
"755 403 OFFCURVE",
"792 364 OFFCURVE",
"777 301 CURVE",
"823 328 LINE",
"584 328 LINE",
"562 219 LINE",
"979 219 LINE",
"986 250 OFFCURVE",
"991 282 OFFCURVE",
"991 316 CURVE SMOOTH",
"991 457 OFFCURVE",
"886 557 OFFCURVE",
"708 557 CURVE SMOOTH",
"598 557 OFFCURVE",
"542 520 OFFCURVE",
"476 451 CURVE",
"558 451 LINE",
"516 524 OFFCURVE",
"442 557 OFFCURVE",
"315 557 CURVE SMOOTH",
"242 557 OFFCURVE",
"147 541 OFFCURVE",
"84 508 CURVE",
"138 359 LINE",
"175 377 OFFCURVE",
"227 389 OFFCURVE",
"271 389 CURVE SMOOTH",
"341 389 OFFCURVE",
"378 360 OFFCURVE",
"368 307 CURVE SMOOTH",
"347 200 LINE SMOOTH",
"337 149 OFFCURVE",
"313 126 OFFCURVE",
"274 126 CURVE SMOOTH",
"241 126 OFFCURVE",
"220 145 OFFCURVE",
"220 168 CURVE SMOOTH",
"220 200 OFFCURVE",
"246 219 OFFCURVE",
"290 219 CURVE SMOOTH",
"367 219 LINE",
"389 328 LINE",
"267 328 LINE SMOOTH",
"101 328 OFFCURVE",
"2 264 OFFCURVE",
"2 150 CURVE SMOOTH",
"2 60 OFFCURVE",
"88 -10 OFFCURVE",
"229 -10 CURVE SMOOTH"
);
}
);
width = 1002;
}
);
leftKerningGroup = o;
rightKerningGroup = e;
rightMetricsKey = e;
unicode = 00E6;
},
{
glyphname = b;
layers = (
{
color = -1;
layerId = UUID0;
paths = (
{
closed = 1;
nodes = (
"83 0 LINE",
"121 190 LINE",
"124 267 LINE",
"150 337 LINE",
"231 742 LINE",
"211 742 LINE",
"63 0 LINE"
);
},
{
closed = 1;
nodes = (
"500 -3 OFFCURVE",
"622 131 OFFCURVE",
"622 310 CURVE SMOOTH",
"622 439 OFFCURVE",
"537 520 OFFCURVE",
"402 520 CURVE SMOOTH",
"231 520 OFFCURVE",
"113 384 OFFCURVE",
"114 205 CURVE SMOOTH",
"115 75 OFFCURVE",
"192 -3 OFFCURVE",
"330 -3 CURVE SMOOTH"
);
},
{
closed = 1;
nodes = (
"205 16 OFFCURVE",
"130 86 OFFCURVE",
"130 208 CURVE SMOOTH",
"130 377 OFFCURVE",
"244 501 OFFCURVE",
"399 501 CURVE SMOOTH",
"527 501 OFFCURVE",
"602 431 OFFCURVE",
"602 309 CURVE SMOOTH",
"602 141 OFFCURVE",
"488 16 OFFCURVE",
"333 16 CURVE SMOOTH"
);
}
);
width = 671;
},
{
color = -1;
layerId = "5DA6E103-6A94-47F2-987D-4952DB8EA68E";
paths = (
{
closed = 1;
nodes = (
"210 0 LINE",
"232 110 LINE",
"266 274 LINE",
"315 472 LINE",
"369 742 LINE",
"143 742 LINE",
"-5 0 LINE"
);
},
{
closed = 1;
nodes = (
"546 -10 OFFCURVE",
"680 124 OFFCURVE",
"680 304 CURVE SMOOTH",
"680 467 OFFCURVE",
"564 557 OFFCURVE",
"455 557 CURVE SMOOTH",
"286 557 OFFCURVE",
"200 375 OFFCURVE",
"200 188 CURVE SMOOTH",
"200 40 OFFCURVE",
"280 -10 OFFCURVE",
"389 -10 CURVE SMOOTH"
);
},
{
closed = 1;
nodes = (
"301 168 OFFCURVE",
"271 203 OFFCURVE",
"271 254 CURVE SMOOTH",
"271 330 OFFCURVE",
"311 379 OFFCURVE",
"370 379 CURVE SMOOTH",
"421 379 OFFCURVE",
"451 344 OFFCURVE",
"451 293 CURVE SMOOTH",
"451 217 OFFCURVE",
"411 168 OFFCURVE",
"352 168 CURVE SMOOTH"
);
}
);
width = 700;
},
{
color = -1;
layerId = "C4221BDF-4AE8-4E40-821A-B2476087DE1A";
paths = (
{
closed = 1;
nodes = (
"139 0 LINE",
"169 150 LINE",
"187 270 LINE",
"224 401 LINE",
"292 742 LINE",
"182 742 LINE",
"34 0 LINE"
);
},
{
closed = 1;
nodes = (
"519 -6 OFFCURVE",
"648 124 OFFCURVE",
"648 306 CURVE SMOOTH",
"648 452 OFFCURVE",
"546 538 OFFCURVE",
"411 538 CURVE SMOOTH",
"235 538 OFFCURVE",
"129 403 OFFCURVE",
"129 202 CURVE SMOOTH",
"129 68 OFFCURVE",
"211 -6 OFFCURVE",
"346 -6 CURVE SMOOTH"
);
},
{
closed = 1;
nodes = (
"245 90 OFFCURVE",
"191 143 OFFCURVE",
"191 231 CURVE SMOOTH",
"191 355 OFFCURVE",
"274 442 OFFCURVE",
"387 442 CURVE SMOOTH",
"483 442 OFFCURVE",
"537 389 OFFCURVE",
"537 301 CURVE SMOOTH",
"537 177 OFFCURVE",
"454 90 OFFCURVE",
"341 90 CURVE SMOOTH"
);
}
);
width = 684;
}
);
leftKerningGroup = l;
leftMetricsKey = l;
rightKerningGroup = o;
rightMetricsKey = o;
unicode = 0062;
},
{
glyphname = c;
layers = (
{
anchors = (
{
name = bottom;
position = "{284, -3}";
},
{
name = top;
position = "{342, 517}";
}
);
color = -1;
layerId = UUID0;
paths = (
{
closed = 1;
nodes = (
"354 -3 OFFCURVE",
"429 27 OFFCURVE",
"472 80 CURVE",
"460 94 LINE",
"419 45 OFFCURVE",
"351 16 OFFCURVE",
"277 16 CURVE SMOOTH",
"144 16 OFFCURVE",
"69 86 OFFCURVE",
"69 208 CURVE SMOOTH",
"69 376 OFFCURVE",
"183 501 OFFCURVE",
"341 501 CURVE SMOOTH",
"420 501 OFFCURVE",
"477 475 OFFCURVE",
"512 421 CURVE",
"527 433 LINE",
"493 490 OFFCURVE",
"428 520 OFFCURVE",
"342 520 CURVE SMOOTH",
"172 520 OFFCURVE",
"49 388 OFFCURVE",
"49 207 CURVE SMOOTH",
"49 78 OFFCURVE",
"134 -3 OFFCURVE",
"274 -3 CURVE SMOOTH"
);
}
);
width = 545;
},
{
anchors = (
{
name = bottom;
position = "{292, 0}";
},
{
name = top;
position = "{377, 547}";
}
);
color = -1;
layerId = "5DA6E103-6A94-47F2-987D-4952DB8EA68E";
paths = (
{
closed = 1;
nodes = (
"446 -10 OFFCURVE",
"547 46 OFFCURVE",
"601 142 CURVE",
"436 238 LINE",
"410 187 OFFCURVE",
"378 168 OFFCURVE",
"334 168 CURVE SMOOTH",
"278 168 OFFCURVE",
"248 205 OFFCURVE",
"248 257 CURVE SMOOTH",
"248 330 OFFCURVE",
"292 379 OFFCURVE",
"353 379 CURVE SMOOTH",
"391 379 OFFCURVE",
"424 360 OFFCURVE",
"443 309 CURVE",
"635 397 LINE",
"596 496 OFFCURVE",
"494 557 OFFCURVE",
"364 557 CURVE SMOOTH",
"162 557 OFFCURVE",
"19 423 OFFCURVE",
"19 243 CURVE SMOOTH",
"19 90 OFFCURVE",
"137 -10 OFFCURVE",
"317 -10 CURVE SMOOTH"
);
}
);
width = 614;
},
{
anchors = (
{
name = bottom;
position = "{276, 0}";
},
{
name = top;
position = "{357, 532}";
}
);
color = -1;
layerId = "C4221BDF-4AE8-4E40-821A-B2476087DE1A";
paths = (
{
closed = 1;
nodes = (
"391 -6 OFFCURVE",
"481 36 OFFCURVE",
"531 107 CURVE",
"450 164 LINE",
"414 114 OFFCURVE",
"358 90 OFFCURVE",
"297 90 CURVE SMOOTH",
"201 90 OFFCURVE",
"147 143 OFFCURVE",
"147 231 CURVE SMOOTH",
"147 355 OFFCURVE",
"230 442 OFFCURVE",
"343 442 CURVE SMOOTH",
"409 442 OFFCURVE",
"456 417 OFFCURVE",
"482 367 CURVE",
"576 418 LINE",
"533 498 OFFCURVE",
"457 538 OFFCURVE",
"352 538 CURVE SMOOTH",
"167 538 OFFCURVE",
"36 405 OFFCURVE",
"36 226 CURVE SMOOTH",
"36 86 OFFCURVE",
"136 -6 OFFCURVE",
"293 -6 CURVE SMOOTH"
);
}
);
width = 576;
}
);
leftKerningGroup = o;
leftMetricsKey = o;
rightKerningGroup = c;
unicode = 0063;
},
{
glyphname = d;
layers = (
{
anchors = (
{
name = bottom;
position = "{276, 0}";
},
{
name = center;
position = "{556, 630}";
},
{
name = topright;
position = "{752, 742}";
}
);
color = -1;
layerId = UUID0;
paths = (
{
closed = 1;
nodes = (
"440 -3 OFFCURVE",
"558 133 OFFCURVE",
"557 312 CURVE SMOOTH",
"556 442 OFFCURVE",
"479 520 OFFCURVE",
"341 520 CURVE SMOOTH",
"171 520 OFFCURVE",
"49 386 OFFCURVE",
"49 207 CURVE SMOOTH",
"49 78 OFFCURVE",
"134 -3 OFFCURVE",
"269 -3 CURVE SMOOTH"
);
},
{
closed = 1;
nodes = (
"144 16 OFFCURVE",
"69 86 OFFCURVE",
"69 208 CURVE SMOOTH",
"69 376 OFFCURVE",
"183 501 OFFCURVE",
"338 501 CURVE SMOOTH",
"466 501 OFFCURVE",
"541 431 OFFCURVE",
"541 309 CURVE SMOOTH",
"541 140 OFFCURVE",
"427 16 OFFCURVE",
"272 16 CURVE SMOOTH"
);
},
{
closed = 1;
nodes = (
"505 0 LINE",
"653 742 LINE",
"633 742 LINE",
"550 327 LINE",
"547 250 LINE",
"521 180 LINE",
"485 0 LINE"
);
}
);
width = 671;
},
{
anchors = (
{
name = bottom;
position = "{327, 0}";
},
{
name = center;
position = "{565, 640}";
},
{
name = topright;
position = "{821, 742}";
}
);
color = -1;
layerId = "5DA6E103-6A94-47F2-987D-4952DB8EA68E";
leftMetricsKey = "=o+5";
paths = (
{
closed = 1;
nodes = (
"419 -10 OFFCURVE",
"505 172 OFFCURVE",
"505 359 CURVE SMOOTH",
"505 507 OFFCURVE",
"425 557 OFFCURVE",
"316 557 CURVE SMOOTH",
"159 557 OFFCURVE",
"25 423 OFFCURVE",
"25 243 CURVE SMOOTH",
"25 80 OFFCURVE",
"141 -10 OFFCURVE",
"250 -10 CURVE SMOOTH"
);
},
{
closed = 1;
nodes = (
"284 168 OFFCURVE",
"254 203 OFFCURVE",
"254 254 CURVE SMOOTH",
"254 330 OFFCURVE",
"294 379 OFFCURVE",
"353 379 CURVE SMOOTH",
"404 379 OFFCURVE",
"434 344 OFFCURVE",
"434 293 CURVE SMOOTH",
"434 217 OFFCURVE",
"394 168 OFFCURVE",
"335 168 CURVE SMOOTH"
);
},
{
closed = 1;
nodes = (
"600 0 LINE",
"748 742 LINE",
"522 742 LINE",
"468 472 LINE",
"439 274 LINE",
"402 74 LINE",
"387 0 LINE"
);
}
);
width = 705;
},
{
anchors = (
{
name = bottom;
position = "{295, 0}";
},
{
name = center;
position = "{557, 635}";
},
{
name = topright;
position = "{779, 742}";
}
);
color = -1;
guideLines = (
{
angle = 78.7;
position = "{511, 371}";
}
);
layerId = "C4221BDF-4AE8-4E40-821A-B2476087DE1A";
paths = (
{
closed = 1;
nodes = (
"449 -6 OFFCURVE",
"555 129 OFFCURVE",
"555 330 CURVE SMOOTH",
"555 464 OFFCURVE",
"473 538 OFFCURVE",
"338 538 CURVE SMOOTH",
"165 538 OFFCURVE",
"36 408 OFFCURVE",
"36 226 CURVE SMOOTH",
"36 80 OFFCURVE",
"138 -6 OFFCURVE",
"273 -6 CURVE SMOOTH"
);
},
{
closed = 1;
nodes = (
"201 90 OFFCURVE",
"147 143 OFFCURVE",
"147 231 CURVE SMOOTH",
"147 355 OFFCURVE",
"230 442 OFFCURVE",
"343 442 CURVE SMOOTH",
"439 442 OFFCURVE",
"493 389 OFFCURVE",
"493 301 CURVE SMOOTH",
"493 177 OFFCURVE",
"410 90 OFFCURVE",
"297 90 CURVE SMOOTH"
);
},
{
closed = 1;
nodes = (
"544 0 LINE",
"692 742 LINE",
"582 742 LINE",
"513 397 LINE",
"497 262 LINE",
"465 129 LINE",
"439 0 LINE"
);
}
);
width = 684;
}
);
leftKerningGroup = o;
leftMetricsKey = o;
rightKerningGroup = l;
unicode = 0064;
},
{
glyphname = eth;
layers = (
{
color = -1;
layerId = "5DA6E103-6A94-47F2-987D-4952DB8EA68E";
paths = (
{
closed = 1;
nodes = (
"521 -16 OFFCURVE",
"678 189 OFFCURVE",
"678 437 CURVE SMOOTH",
"678 637 OFFCURVE",
"540 758 OFFCURVE",
"329 758 CURVE SMOOTH",
"272 758 OFFCURVE",
"223 752 OFFCURVE",
"169 741 CURVE",
"157 578 LINE",
"200 591 OFFCURVE",
"246 596 OFFCURVE",
"282 596 CURVE SMOOTH",
"406 596 OFFCURVE",
"463 518 OFFCURVE",
"438 387 CURVE SMOOTH",
"430 347 OFFCURVE",
"427 328 OFFCURVE",
"423 308 CURVE",
"484 335 LINE",
"457 414 OFFCURVE",
"394 453 OFFCURVE",
"296 453 CURVE SMOOTH",
"132 453 OFFCURVE",
"10 347 OFFCURVE",
"10 198 CURVE SMOOTH",
"10 74 OFFCURVE",
"109 -16 OFFCURVE",
"272 -16 CURVE SMOOTH"
);
},
{
closed = 1;
nodes = (
"267 147 OFFCURVE",
"239 173 OFFCURVE",
"239 213 CURVE SMOOTH",
"239 258 OFFCURVE",
"273 290 OFFCURVE",
"323 290 CURVE SMOOTH",
"366 290 OFFCURVE",
"394 265 OFFCURVE",
"394 224 CURVE SMOOTH",
"394 178 OFFCURVE",
"360 147 OFFCURVE",
"310 147 CURVE SMOOTH"
);
},
{
closed = 1;
nodes = (
"707 629 LINE",
"678 718 LINE",
"163 542 LINE",
"192 453 LINE"
);
}
);
width = 676;
},
{
color = -1;
layerId = UUID0;
paths = (
{
closed = 1;
nodes = (
"478 -3 OFFCURVE",
"592 251 OFFCURVE",
"592 450 CURVE SMOOTH",
"592 618 OFFCURVE",
"492 703 OFFCURVE",
"332 703 CURVE SMOOTH",
"280 703 OFFCURVE",
"221 693 OFFCURVE",
"186 679 CURVE",
"190 661 LINE",
"227 675 OFFCURVE",
"282 684 OFFCURVE",
"333 684 CURVE SMOOTH",
"484 684 OFFCURVE",
"572 606 OFFCURVE",
"572 448 CURVE SMOOTH",
"572 371 OFFCURVE",
"556 278 OFFCURVE",
"514 205 CURVE",
"519 199 LINE",
"545 336 OFFCURVE",
"459 430 OFFCURVE",
"318 430 CURVE SMOOTH",
"160 430 OFFCURVE",
"42 332 OFFCURVE",
"42 180 CURVE SMOOTH",
"42 69 OFFCURVE",
"121 -3 OFFCURVE",
"248 -3 CURVE SMOOTH"
);
},
{
closed = 1;
nodes = (
"131 16 OFFCURVE",
"62 78 OFFCURVE",
"62 181 CURVE SMOOTH",
"62 318 OFFCURVE",
"167 411 OFFCURVE",
"318 411 CURVE SMOOTH",
"434 411 OFFCURVE",
"506 348 OFFCURVE",
"506 246 CURVE SMOOTH",
"506 118 OFFCURVE",
"377 16 OFFCURVE",
"251 16 CURVE SMOOTH"
);
},
{
closed = 1;
nodes = (
"599 684 LINE",
"591 702 LINE",
"194 539 LINE",
"201 521 LINE"
);
}
);
width = 618;
},
{
color = 3;
layerId = "C4221BDF-4AE8-4E40-821A-B2476087DE1A";
paths = (
{
closed = 1;
nodes = (
"496 -9 OFFCURVE",
"627 201 OFFCURVE",
"627 444 CURVE SMOOTH",
"627 627 OFFCURVE",
"503 729 OFFCURVE",
"324 729 CURVE SMOOTH",
"273 729 OFFCURVE",
"222 723 OFFCURVE",
"178 710 CURVE",
"177 617 LINE",
"217 630 OFFCURVE",
"269 637 OFFCURVE",
"313 637 CURVE SMOOTH",
"441 637 OFFCURVE",
"516 573 OFFCURVE",
"516 445 CURVE SMOOTH",
"516 385 OFFCURVE",
"503 307 OFFCURVE",
"477 255 CURVE",
"529 287 LINE",
"514 383 OFFCURVE",
"428 441 OFFCURVE",
"316 441 CURVE SMOOTH",
"149 441 OFFCURVE",
"31 340 OFFCURVE",
"31 193 CURVE SMOOTH",
"31 72 OFFCURVE",
"131 -9 OFFCURVE",
"269 -9 CURVE SMOOTH"
);
},
{
closed = 1;
nodes = (
"191 84 OFFCURVE",
"140 129 OFFCURVE",
"140 201 CURVE SMOOTH",
"140 290 OFFCURVE",
"212 349 OFFCURVE",
"320 349 CURVE SMOOTH",
"405 349 OFFCURVE",
"457 304 OFFCURVE",
"457 232 CURVE SMOOTH",
"457 145 OFFCURVE",
"373 84 OFFCURVE",
"277 84 CURVE SMOOTH"
);
},
{
closed = 1;
nodes = (
"657 643 LINE",
"630 716 LINE",
"185 546 LINE",
"212 473 LINE"
);
}
);
width = 644;
}
);
leftKerningGroup = o;
rightKerningGroup = eth;
unicode = 00F0;
},
{
glyphname = e;
layers = (
{
anchors = (
{
name = bottom;
position = "{240, 0}";
},
{
name = ogonek;
position = "{425, 0}";
},
{
name = top;
position = "{339, 517}";
}
);
color = -1;
guideLines = (
{
angle = 90;
position = "{428, 91}";
}
);
layerId = UUID0;
paths = (
{
closed = 1;
nodes = (
"362 -3 OFFCURVE",
"437 30 OFFCURVE",
"479 80 CURVE",
"467 93 LINE",
"425 45 OFFCURVE",
"357 16 OFFCURVE",
"279 16 CURVE SMOOTH",
"143 16 OFFCURVE",
"69 85 OFFCURVE",
"69 210 CURVE SMOOTH",
"69 377 OFFCURVE",
"179 501 OFFCURVE",
"326 501 CURVE SMOOTH",
"453 501 OFFCURVE",
"538 418 OFFCURVE",
"515 267 CURVE",
"523 278 LINE",
"70 278 LINE",
"66 259 LINE",
"532 259 LINE",
"535 274 OFFCURVE",
"537 292 OFFCURVE",
"537 310 CURVE SMOOTH",
"537 441 OFFCURVE",
"457 520 OFFCURVE",
"326 520 CURVE SMOOTH",
"167 520 OFFCURVE",
"50 386 OFFCURVE",
"50 210 CURVE SMOOTH",
"50 74 OFFCURVE",
"135 -3 OFFCURVE",
"278 -3 CURVE SMOOTH"
);
}
);
width = 589;
},
{
anchors = (
{
name = bottom;
position = "{277, 0}";
},
{
name = ogonek;
position = "{500, 0}";
},
{
name = top;
position = "{384, 547}";
}
);
color = -1;
guideLines = (
{
angle = 90;
position = "{280, 80}";
}
);
layerId = "5DA6E103-6A94-47F2-987D-4952DB8EA68E";
paths = (
{
closed = 1;
nodes = (
"404 -10 OFFCURVE",
"485 7 OFFCURVE",
"560 58 CURVE",
"466 195 LINE",
"431 169 OFFCURVE",
"388 157 OFFCURVE",
"347 157 CURVE SMOOTH",
"276 157 OFFCURVE",
"239 183 OFFCURVE",
"239 251 CURVE SMOOTH",
"239 327 OFFCURVE",
"267 403 OFFCURVE",
"349 403 CURVE SMOOTH",
"406 403 OFFCURVE",
"442 364 OFFCURVE",
"427 301 CURVE",
"521 330 LINE",
"221 330 LINE",
"200 221 LINE",
"625 221 LINE",
"632 250 OFFCURVE",
"637 282 OFFCURVE",
"637 316 CURVE SMOOTH",
"637 457 OFFCURVE",
"534 557 OFFCURVE",
"359 557 CURVE SMOOTH",
"155 557 OFFCURVE",
"20 423 OFFCURVE",
"20 243 CURVE SMOOTH",
"20 88 OFFCURVE",
"141 -10 OFFCURVE",
"321 -10 CURVE SMOOTH"
);
}
);
width = 648;
},
{
anchors = (
{
name = bottom;
position = "{253, 0}";
},
{
name = ogonek;
position = "{455, 0}";
},
{
name = top;
position = "{356, 531}";
}
);
color = 3;
layerId = "C4221BDF-4AE8-4E40-821A-B2476087DE1A";
paths = (
{
closed = 1;
nodes = (
"375 -6 OFFCURVE",
"456 19 OFFCURVE",
"510 68 CURVE",
"464 148 LINE",
"426 112 OFFCURVE",
"368 90 OFFCURVE",
"304 90 CURVE SMOOTH",
"194 90 OFFCURVE",
"144 141 OFFCURVE",
"144 232 CURVE SMOOTH",
"144 361 OFFCURVE",
"219 446 OFFCURVE",
"334 446 CURVE SMOOTH",
"431 446 OFFCURVE",
"492 388 OFFCURVE",
"476 283 CURVE",
"521 310 LINE",
"129 310 LINE",
"116 231 LINE",
"573 231 LINE",
"578 254 OFFCURVE",
"581 279 OFFCURVE",
"581 305 CURVE SMOOTH",
"581 451 OFFCURVE",
"484 538 OFFCURVE",
"339 538 CURVE SMOOTH",
"164 538 OFFCURVE",
"36 407 OFFCURVE",
"36 226 CURVE SMOOTH",
"36 86 OFFCURVE",
"135 -6 OFFCURVE",
"294 -6 CURVE SMOOTH"
);
}
);
width = 615;
},
{
anchors = (
{
name = bottom;
position = "{248, 0}";
},
{
name = ogonek;
position = "{441, 0}";
},
{
name = top;
position = "{351, 517}";
}
);
associatedMasterId = UUID0;
color = -1;
guideLines = (
{
angle = 90;
position = "{491, 91}";
}
);
layerId = "56847BD8-F669-4008-891B-737C399A84FB";
name = Jacques;
paths = (
{
closed = 1;
nodes = (
"375 -3 OFFCURVE",
"453 30 OFFCURVE",
"497 80 CURVE",
"484 93 LINE",
"441 45 OFFCURVE",
"370 16 OFFCURVE",
"289 16 CURVE SMOOTH",
"147 16 OFFCURVE",
"70 85 OFFCURVE",
"70 210 CURVE SMOOTH",
"70 377 OFFCURVE",
"184 501 OFFCURVE",
"337 501 CURVE SMOOTH",
"470 501 OFFCURVE",
"558 418 OFFCURVE",
"534 267 CURVE",
"543 278 LINE",
"71 278 LINE",
"67 259 LINE",
"552 259 LINE",
"555 274 OFFCURVE",
"557 292 OFFCURVE",
"557 310 CURVE SMOOTH",
"557 441 OFFCURVE",
"474 520 OFFCURVE",
"338 520 CURVE SMOOTH",
"172 520 OFFCURVE",
"50 386 OFFCURVE",
"50 210 CURVE SMOOTH",
"50 74 OFFCURVE",
"139 -3 OFFCURVE",
"287 -3 CURVE SMOOTH"
);
}
);
width = 611;
},
{
anchors = (
{
name = bottom;
position = "{260, 0}";
},
{
name = ogonek;
position = "{468, 0}";
},
{
name = top;
position = "{366, 531}";
}
);
associatedMasterId = "C4221BDF-4AE8-4E40-821A-B2476087DE1A";
color = 3;
layerId = "A8AA6789-6C69-4D6E-B4CA-C41FEE2DBC83";
name = Jacques;
paths = (
{
closed = 1;
nodes = (
"388 -6 OFFCURVE",
"469 19 OFFCURVE",
"525 68 CURVE",
"477 148 LINE",
"438 110 OFFCURVE",
"378 90 OFFCURVE",
"312 90 CURVE SMOOTH",
"199 90 OFFCURVE",
"147 141 OFFCURVE",
"147 232 CURVE SMOOTH",
"147 361 OFFCURVE",
"225 446 OFFCURVE",
"343 446 CURVE SMOOTH",
"443 446 OFFCURVE",
"506 388 OFFCURVE",
"490 283 CURVE",
"536 310 LINE",
"132 310 LINE",
"119 231 LINE",
"590 231 LINE",
"595 254 OFFCURVE",
"598 279 OFFCURVE",
"598 305 CURVE SMOOTH",
"598 451 OFFCURVE",
"498 538 OFFCURVE",
"348 538 CURVE SMOOTH",
"168 538 OFFCURVE",
"36 407 OFFCURVE",
"36 226 CURVE SMOOTH",
"36 86 OFFCURVE",
"138 -6 OFFCURVE",
"302 -6 CURVE SMOOTH"
);
}
);
width = 633;
},
{
anchors = (
{
name = bottom;
position = "{283, 0}";
},
{
name = ogonek;
position = "{510, 0}";
},
{
name = top;
position = "{392, 547}";
}
);
associatedMasterId = "5DA6E103-6A94-47F2-987D-4952DB8EA68E";
color = -1;
guideLines = (
{
angle = 90;
position = "{287, 80}";
}
);
layerId = "CD6D3B16-BFE7-4CE5-9A72-1330BA0549EF";
name = Jacques;
paths = (
{
closed = 1;
nodes = (
"412 -10 OFFCURVE",
"495 7 OFFCURVE",
"571 58 CURVE",
"475 195 LINE",
"440 169 OFFCURVE",
"396 157 OFFCURVE",
"354 157 CURVE SMOOTH",
"282 157 OFFCURVE",
"244 183 OFFCURVE",
"244 251 CURVE SMOOTH",
"244 327 OFFCURVE",
"272 403 OFFCURVE",
"356 403 CURVE SMOOTH",
"414 403 OFFCURVE",
"451 364 OFFCURVE",
"436 301 CURVE",
"532 330 LINE",
"226 330 LINE",
"204 221 LINE",
"638 221 LINE",
"645 250 OFFCURVE",
"650 282 OFFCURVE",
"650 316 CURVE SMOOTH",
"650 457 OFFCURVE",
"545 557 OFFCURVE",
"366 557 CURVE SMOOTH",
"158 557 OFFCURVE",
"20 423 OFFCURVE",
"20 243 CURVE SMOOTH",
"20 88 OFFCURVE",
"144 -10 OFFCURVE",
"328 -10 CURVE SMOOTH"
);
}
);
width = 661;
}
);
leftKerningGroup = o;
leftMetricsKey = o;
rightKerningGroup = e;
unicode = 0065;
},
